<svg xmlns="http://www.w3.org/2000/svg" xmlns:xlink="http://www.w3.org/1999/xlink" width="1920" zoomAndPan="magnify" viewBox="0 0 1440 809.999993" height="1080" preserveAspectRatio="xMidYMid meet" version="1.0"><defs><clipPath id="85c79629bc"><path d="M 142 16 L 269 16 L 269 171 L 142 171 Z M 142 16 " clip-rule="nonzero"/></clipPath><clipPath id="1602983e57"><path d="M 93.851562 67.570312 L 172.054688 -0.230469 L 296.84375 143.703125 L 218.644531 211.503906 Z M 93.851562 67.570312 " clip-rule="nonzero"/></clipPath><clipPath id="c143d6ad56"><path d="M 93.851562 67.570312 L 172.054688 -0.230469 L 296.84375 143.703125 L 218.644531 211.503906 Z M 93.851562 67.570312 " clip-rule="nonzero"/></clipPath><clipPath id="18a65b79b3"><path d="M 93.851562 67.570312 L 172.054688 -0.230469 L 296.84375 143.703125 L 218.644531 211.503906 Z M 93.851562 67.570312 " clip-rule="nonzero"/></clipPath><clipPath id="2e1fdbc364"><path d="M 1143 623 L 1324 623 L 1324 747 L 1143 747 Z M 1143 623 " clip-rule="nonzero"/></clipPath><clipPath id="00fcf3ebce"><path d="M 1123.523438 712.648438 L 1153.050781 613.453125 L 1335.632812 667.800781 L 1306.105469 767 Z M 1123.523438 712.648438 " clip-rule="nonzero"/></clipPath><clipPath id="7a93bfd0f8"><path d="M 1123.523438 712.648438 L 1153.050781 613.453125 L 1335.632812 667.800781 L 1306.105469 767 Z M 1123.523438 712.648438 " clip-rule="nonzero"/></clipPath><clipPath id="0d3764c2ca"><path d="M 55 481 L 207 481 L 207 680 L 55 680 Z M 55 481 " clip-rule="nonzero"/></clipPath><clipPath id="c6b9b5c518"><path d="M 33.28125 483.953125 L 177.8125 453.265625 L 221.894531 660.886719 L 77.367188 691.574219 Z M 33.28125 483.953125 " clip-rule="nonzero"/></clipPath><clipPath id="2db4834202"><path d="M 33.28125 483.953125 L 177.8125 453.265625 L 221.894531 660.886719 L 77.367188 691.574219 Z M 33.28125 483.953125 " clip-rule="nonzero"/></clipPath><clipPath id="d3a0ca7d0c"><path d="M 33.28125 483.953125 L 177.8125 453.265625 L 221.894531 660.886719 L 77.367188 691.574219 Z M 33.28125 483.953125 " clip-rule="nonzero"/></clipPath><clipPath id="1006f59505"><path d="M 1184 15 L 1347 15 L 1347 131 L 1184 131 Z M 1184 15 " clip-rule="nonzero"/></clipPath><clipPath id="bcf540f494"><path d="M 1353.804688 32.117188 L 1329.386719 147.304688 L 1164.304688 112.3125 L 1188.722656 -2.878906 Z M 1353.804688 32.117188 " clip-rule="nonzero"/></clipPath><clipPath id="0f994c9192"><path d="M 1353.804688 32.117188 L 1329.386719 147.304688 L 1164.304688 112.3125 L 1188.722656 -2.878906 Z M 1353.804688 32.117188 " clip-rule="nonzero"/></clipPath><clipPath id="1e2837f2dc"><path d="M 267.445312 163.375 L 1319.304688 163.375 L 1319.304688 551.941406 L 267.445312 551.941406 Z M 267.445312 163.375 " clip-rule="nonzero"/></clipPath><clipPath id="b8e3c6974d"><path d="M 305.695312 163.375 L 1280.964844 163.375 C 1302.089844 163.375 1319.214844 180.5 1319.214844 201.625 L 1319.214844 513.691406 C 1319.214844 534.816406 1302.089844 551.941406 1280.964844 551.941406 L 305.695312 551.941406 C 284.570312 551.941406 267.445312 534.816406 267.445312 513.691406 L 267.445312 201.625 C 267.445312 180.5 284.570312 163.375 305.695312 163.375 Z M 305.695312 163.375 " clip-rule="nonzero"/></clipPath><clipPath id="be337c1939"><path d="M 0.445312 0.375 L 1052.28125 0.375 L 1052.28125 388.941406 L 0.445312 388.941406 Z M 0.445312 0.375 " clip-rule="nonzero"/></clipPath><clipPath id="22cd12ed27"><path d="M 38.695312 0.375 L 1013.964844 0.375 C 1035.089844 0.375 1052.214844 17.5 1052.214844 38.625 L 1052.214844 350.691406 C 1052.214844 371.816406 1035.089844 388.941406 1013.964844 388.941406 L 38.695312 388.941406 C 17.570312 388.941406 0.445312 371.816406 0.445312 350.691406 L 0.445312 38.625 C 0.445312 17.5 17.570312 0.375 38.695312 0.375 Z M 38.695312 0.375 " clip-rule="nonzero"/></clipPath><clipPath id="5998aea007"><rect x="0" width="1053" y="0" height="389"/></clipPath><clipPath id="55d20b857d"><path d="M 205.09375 208.722656 L 1259.988281 208.722656 L 1259.988281 597.289062 L 205.09375 597.289062 Z M 205.09375 208.722656 " clip-rule="nonzero"/></clipPath><clipPath id="667f447d70"><path d="M 243.34375 208.722656 L 1220.847656 208.722656 C 1241.972656 208.722656 1259.097656 225.847656 1259.097656 246.972656 L 1259.097656 559.039062 C 1259.097656 580.164062 1241.972656 597.289062 1220.847656 597.289062 L 243.34375 597.289062 C 222.21875 597.289062 205.09375 580.164062 205.09375 559.039062 L 205.09375 246.972656 C 205.09375 225.847656 222.21875 208.722656 243.34375 208.722656 Z M 243.34375 208.722656 " clip-rule="nonzero"/></clipPath><clipPath id="79d62a1632"><path d="M 0.09375 0.722656 L 1054 0.722656 L 1054 389.289062 L 0.09375 389.289062 Z M 0.09375 0.722656 " clip-rule="nonzero"/></clipPath><clipPath id="00e839eed6"><path d="M 38.34375 0.722656 L 1015.847656 0.722656 C 1036.972656 0.722656 1054.097656 17.847656 1054.097656 38.972656 L 1054.097656 351.039062 C 1054.097656 372.164062 1036.972656 389.289062 1015.847656 389.289062 L 38.34375 389.289062 C 17.21875 389.289062 0.09375 372.164062 0.09375 351.039062 L 0.09375 38.972656 C 0.09375 17.847656 17.21875 0.722656 38.34375 0.722656 Z M 38.34375 0.722656 " clip-rule="nonzero"/></clipPath><clipPath id="e9376f6c5e"><rect x="0" width="1055" y="0" height="390"/></clipPath><clipPath id="a0ea85ef32"><path d="M 205.09375 208.445312 L 418.09375 208.445312 L 418.09375 421.445312 L 205.09375 421.445312 Z M 205.09375 208.445312 " clip-rule="nonzero"/></clipPath><clipPath id="16d7ca2d89"><path d="M 1023 359 L 1259.09375 359 L 1259.09375 594.886719 L 1023 594.886719 Z M 1023 359 " clip-rule="nonzero"/></clipPath><clipPath id="d58d6a106c"><path d="M 1258 561 L 1385 561 L 1385 679 L 1258 679 Z M 1258 561 " clip-rule="nonzero"/></clipPath><clipPath id="a40f6de1c5"><path d="M 1389.277344 585.53125 L 1327.09375 682.753906 L 1232.085938 621.992188 L 1294.269531 524.765625 Z M 1389.277344 585.53125 " clip-rule="nonzero"/></clipPath><clipPath id="1cfc9eef83"><path d="M 1264.230469 571.734375 L 1262.105469 575.058594 C 1256.980469 583.070312 1257.253906 593.394531 1262.796875 601.125 L 1314.921875 673.816406 C 1316.984375 676.695312 1320.339844 678.363281 1323.878906 678.269531 C 1327.417969 678.175781 1330.679688 676.332031 1332.585938 673.347656 L 1383.019531 594.496094 C 1384.929688 591.515625 1385.234375 587.78125 1383.832031 584.53125 C 1382.433594 581.277344 1379.515625 578.929688 1376.039062 578.265625 L 1288.1875 561.429688 C 1278.84375 559.640625 1269.355469 563.722656 1264.230469 571.734375 Z M 1264.230469 571.734375 " clip-rule="nonzero"/></clipPath><clipPath id="af4a24a8f0"><path d="M 0 0 L 127 0 L 127 117.480469 L 0 117.480469 Z M 0 0 " clip-rule="nonzero"/></clipPath><clipPath id="5ce7820228"><path d="M 131.277344 24.53125 L 69.09375 121.753906 L -25.914062 60.992188 L 36.269531 -36.234375 Z M 131.277344 24.53125 " clip-rule="nonzero"/></clipPath><clipPath id="e3fb8f5f64"><path d="M 6.230469 10.734375 L 4.105469 14.058594 C -1.019531 22.070312 -0.746094 32.394531 4.796875 40.125 L 56.921875 112.816406 C 58.984375 115.695312 62.339844 117.363281 65.878906 117.269531 C 69.417969 117.175781 72.679688 115.332031 74.585938 112.347656 L 125.019531 33.496094 C 126.929688 30.515625 127.234375 26.78125 125.832031 23.53125 C 124.433594 20.277344 121.515625 17.929688 118.039062 17.265625 L 30.1875 0.429688 C 20.84375 -1.359375 11.355469 2.722656 6.230469 10.734375 Z M 6.230469 10.734375 " clip-rule="nonzero"/></clipPath><clipPath id="8d8eeecd91"><rect x="0" width="127" y="0" height="118"/></clipPath><clipPath id="60b25f3a6e"><path d="M 1323 488 L 1406 488 L 1406 561 L 1323 561 Z M 1323 488 " clip-rule="nonzero"/></clipPath><clipPath id="9aa8623000"><path d="M 1384.746094 485.671875 L 1407.859375 556.21875 L 1335.90625 579.796875 L 1312.792969 509.246094 Z M 1384.746094 485.671875 " clip-rule="nonzero"/></clipPath><clipPath id="dcc45fd53c"><path d="M 1324.355469 544.535156 C 1326.601562 551.390625 1332.796875 556.183594 1339.996094 556.636719 L 1393.714844 560.03125 C 1397.25 560.253906 1400.664062 558.710938 1402.828125 555.910156 C 1404.996094 553.109375 1405.632812 549.417969 1404.53125 546.054688 L 1388.082031 495.859375 C 1386.980469 492.496094 1384.28125 489.898438 1380.878906 488.921875 C 1377.476562 487.949219 1373.8125 488.726562 1371.097656 490.996094 L 1329.800781 525.519531 C 1324.265625 530.148438 1322.109375 537.679688 1324.355469 544.535156 Z M 1324.355469 544.535156 " clip-rule="nonzero"/></clipPath><clipPath id="9a03dc2557"><path d="M 0 0 L 82.679688 0 L 82.679688 72.398438 L 0 72.398438 Z M 0 0 " clip-rule="nonzero"/></clipPath><clipPath id="8573c20c02"><path d="M 61.746094 -2.328125 L 84.859375 68.21875 L 12.90625 91.796875 L -10.207031 21.246094 Z M 61.746094 -2.328125 " clip-rule="nonzero"/></clipPath><clipPath id="d0d5483112"><path d="M 1.355469 56.535156 C 3.601562 63.390625 9.796875 68.183594 16.996094 68.636719 L 70.714844 72.03125 C 74.25 72.253906 77.664062 70.710938 79.828125 67.910156 C 81.996094 65.109375 82.632812 61.417969 81.53125 58.054688 L 65.082031 7.859375 C 63.980469 4.496094 61.28125 1.898438 57.878906 0.921875 C 54.476562 -0.0507812 50.8125 0.726562 48.097656 2.996094 L 6.800781 37.519531 C 1.265625 42.148438 -0.890625 49.679688 1.355469 56.535156 Z M 1.355469 56.535156 " clip-rule="nonzero"/></clipPath><clipPath id="05584e771f"><rect x="0" width="83" y="0" height="73"/></clipPath><clipPath id="f3653360c7"><path d="M 173 610 L 309 610 L 309 730 L 173 730 Z M 173 610 " clip-rule="nonzero"/></clipPath><clipPath id="b8fe3c66e4"><path d="M 189.832031 603.992188 L 325 626.21875 L 307.863281 730.445312 L 172.695312 708.21875 Z M 189.832031 603.992188 " clip-rule="nonzero"/></clipPath><clipPath id="470a9f5778"><path d="M 229.941406 610.589844 L 284.621094 619.578125 C 289.042969 620.304688 292.5 623.78125 293.207031 628.203125 L 308.441406 723.328125 C 308.714844 725.042969 308.148438 726.789062 306.917969 728.011719 C 305.6875 729.238281 303.941406 729.800781 302.226562 729.515625 L 178.0625 709.101562 C 176.347656 708.820312 174.871094 707.730469 174.097656 706.175781 C 173.324219 704.617188 173.34375 702.785156 174.15625 701.246094 L 219.042969 616.007812 C 221.132812 612.042969 225.519531 609.863281 229.941406 610.589844 Z M 229.941406 610.589844 " clip-rule="nonzero"/></clipPath><clipPath id="caf1a9eb4d"><path d="M 0.28125 0 L 135.878906 0 L 135.878906 119.839844 L 0.28125 119.839844 Z M 0.28125 0 " clip-rule="nonzero"/></clipPath><clipPath id="be286ea3f2"><path d="M 16.832031 -6.007812 L 152 16.21875 L 134.863281 120.445312 L -0.304688 98.21875 Z M 16.832031 -6.007812 " clip-rule="nonzero"/></clipPath><clipPath id="c701cad1e2"><path d="M 56.941406 0.589844 L 111.621094 9.578125 C 116.042969 10.304688 119.5 13.78125 120.207031 18.203125 L 135.441406 113.328125 C 135.714844 115.042969 135.148438 116.789062 133.917969 118.011719 C 132.6875 119.238281 130.941406 119.800781 129.226562 119.515625 L 5.0625 99.101562 C 3.347656 98.820312 1.871094 97.730469 1.097656 96.175781 C 0.324219 94.617188 0.34375 92.785156 1.15625 91.246094 L 46.042969 6.007812 C 48.132812 2.042969 52.519531 -0.136719 56.941406 0.589844 Z M 56.941406 0.589844 " clip-rule="nonzero"/></clipPath><clipPath id="6b7186e20c"><rect x="0" width="136" y="0" height="120"/></clipPath><clipPath id="df18770379"><path d="M 312 615 L 381 615 L 381 684 L 312 684 Z M 312 615 " clip-rule="nonzero"/></clipPath><clipPath id="8dd15cb5a5"><path d="M 298.222656 641.433594 L 353.617188 604.773438 L 382.765625 648.8125 L 327.371094 685.472656 Z M 298.222656 641.433594 " clip-rule="nonzero"/></clipPath><clipPath id="b2815b9a9b"><path d="M 317.4375 628.71875 L 334.289062 617.5625 C 338.023438 615.09375 342.921875 615.289062 346.445312 618.050781 L 378.464844 643.125 C 379.832031 644.195312 380.601562 645.859375 380.535156 647.59375 C 380.464844 649.332031 379.566406 650.929688 378.117188 651.886719 L 331.90625 682.472656 C 330.457031 683.433594 328.632812 683.636719 327.007812 683.023438 C 325.382812 682.40625 324.152344 681.046875 323.703125 679.371094 L 313.132812 640.097656 C 311.96875 635.773438 313.703125 631.191406 317.4375 628.71875 Z M 317.4375 628.71875 " clip-rule="nonzero"/></clipPath><clipPath id="3317e1ad38"><path d="M 0 0 L 68.640625 0 L 68.640625 68.761719 L 0 68.761719 Z M 0 0 " clip-rule="nonzero"/></clipPath><clipPath id="f65c39a80b"><path d="M -13.777344 26.433594 L 41.617188 -10.226562 L 70.765625 33.8125 L 15.371094 70.472656 Z M -13.777344 26.433594 " clip-rule="nonzero"/></clipPath><clipPath id="7372299b06"><path d="M 5.4375 13.71875 L 22.289062 2.5625 C 26.023438 0.09375 30.921875 0.289062 34.445312 3.050781 L 66.464844 28.125 C 67.832031 29.195312 68.601562 30.859375 68.535156 32.59375 C 68.464844 34.332031 67.566406 35.929688 66.117188 36.886719 L 19.90625 67.472656 C 18.457031 68.433594 16.632812 68.636719 15.007812 68.023438 C 13.382812 67.40625 12.152344 66.046875 11.703125 64.371094 L 1.132812 25.097656 C -0.03125 20.773438 1.703125 16.191406 5.4375 13.71875 Z M 5.4375 13.71875 " clip-rule="nonzero"/></clipPath><clipPath id="cf7d8935be"><rect x="0" width="69" y="0" height="69"/></clipPath><clipPath id="0a3f573f5f"><path d="M 482 686.617188 L 1034.480469 686.617188 L 1034.480469 810 L 482 810 Z M 482 686.617188 " clip-rule="nonzero"/></clipPath><clipPath id="7c1661ae79"><path d="M 600.441406 686.617188 L 915.953125 686.617188 C 940.21875 686.617188 962.78125 699.097656 975.679688 719.652344 L 1030.839844 807.570312 C 1035.011719 814.21875 1035.242188 822.609375 1031.441406 829.476562 C 1027.644531 836.347656 1020.414062 840.609375 1012.566406 840.609375 L 503.828125 840.609375 C 495.980469 840.609375 488.75 836.347656 484.953125 829.476562 C 481.152344 822.609375 481.386719 814.21875 485.554688 807.570312 L 540.714844 719.652344 C 553.613281 699.097656 576.175781 686.617188 600.441406 686.617188 Z M 600.441406 686.617188 " clip-rule="nonzero"/></clipPath><clipPath id="9a98dd9b78"><path d="M 0 0.617188 L 552.480469 0.617188 L 552.480469 124 L 0 124 Z M 0 0.617188 " clip-rule="nonzero"/></clipPath><clipPath id="99872c9c35"><path d="M 118.441406 0.617188 L 433.953125 0.617188 C 458.21875 0.617188 480.78125 13.097656 493.679688 33.652344 L 548.839844 121.570312 C 553.011719 128.21875 553.242188 136.609375 549.441406 143.476562 C 545.644531 150.347656 538.414062 154.609375 530.566406 154.609375 L 21.828125 154.609375 C 13.980469 154.609375 6.75 150.347656 2.953125 143.476562 C -0.847656 136.609375 -0.613281 128.21875 3.554688 121.570312 L 58.714844 33.652344 C 71.613281 13.097656 94.175781 0.617188 118.441406 0.617188 Z M 118.441406 0.617188 " clip-rule="nonzero"/></clipPath><clipPath id="04692c5f1e"><rect x="0" width="553" y="0" height="124"/></clipPath><clipPath id="a00af68778"><path d="M 435.328125 0 L 1081 0 L 1081 105.699219 L 435.328125 105.699219 Z M 435.328125 0 " clip-rule="nonzero"/></clipPath><clipPath id="f6f2302268"><path d="M 962.601562 105.699219 L 553.785156 105.699219 C 529.519531 105.699219 506.957031 93.222656 494.058594 72.664062 L 438.898438 -15.253906 C 434.726562 -21.902344 434.496094 -30.292969 438.296875 -37.160156 C 442.09375 -44.027344 449.324219 -48.289062 457.171875 -48.289062 L 1059.214844 -48.289062 C 1067.0625 -48.289062 1074.292969 -44.027344 1078.09375 -37.160156 C 1081.890625 -30.292969 1081.660156 -21.902344 1077.488281 -15.253906 L 1022.328125 72.664062 C 1009.433594 93.222656 986.871094 105.699219 962.601562 105.699219 Z M 962.601562 105.699219 " clip-rule="nonzero"/></clipPath><clipPath id="8a70ee8389"><path d="M 0.328125 0 L 646 0 L 646 105.699219 L 0.328125 105.699219 Z M 0.328125 0 " clip-rule="nonzero"/></clipPath><clipPath id="88027c5b17"><path d="M 527.601562 105.699219 L 118.785156 105.699219 C 94.519531 105.699219 71.957031 93.222656 59.058594 72.664062 L 3.898438 -15.253906 C -0.273438 -21.902344 -0.503906 -30.292969 3.296875 -37.160156 C 7.09375 -44.027344 14.324219 -48.289062 22.171875 -48.289062 L 624.214844 -48.289062 C 632.0625 -48.289062 639.292969 -44.027344 643.09375 -37.160156 C 646.890625 -30.292969 646.660156 -21.902344 642.488281 -15.253906 L 587.328125 72.664062 C 574.433594 93.222656 551.871094 105.699219 527.601562 105.699219 Z M 527.601562 105.699219 " clip-rule="nonzero"/></clipPath><clipPath id="e30932ec9e"><rect x="0" width="646" y="0" height="106"/></clipPath><clipPath id="109cce8e73"><path d="M 36 149 L 185 149 L 185 252 L 36 252 Z M 36 149 " clip-rule="nonzero"/></clipPath><clipPath id="73a1046d5c"><path d="M 193.957031 171.667969 L 174.191406 272.101562 L 30.148438 243.753906 L 49.914062 143.320312 Z M 193.957031 171.667969 " clip-rule="nonzero"/></clipPath><clipPath id="715763cc0a"><path d="M 184.074219 221.882812 C 180.710938 238.976562 165.648438 251.246094 148.230469 251.082031 L 68.207031 250.335938 C 58.574219 250.246094 49.484375 245.875 43.402344 238.410156 C 37.320312 230.941406 34.878906 221.15625 36.738281 211.707031 L 43.867188 175.472656 C 45.726562 166.023438 51.699219 157.894531 60.15625 153.289062 C 68.613281 148.683594 78.683594 148.082031 87.628906 151.648438 L 161.964844 181.28125 C 178.148438 187.730469 187.4375 204.792969 184.074219 221.882812 Z M 184.074219 221.882812 " clip-rule="nonzero"/></clipPath><clipPath id="bdbefce9a5"><path d="M 0 0 L 149 0 L 149 102.28125 L 0 102.28125 Z M 0 0 " clip-rule="nonzero"/></clipPath><clipPath id="c1670adadc"><path d="M 157.957031 22.667969 L 138.191406 123.101562 L -5.851562 94.753906 L 13.914062 -5.679688 Z M 157.957031 22.667969 " clip-rule="nonzero"/></clipPath><clipPath id="e740f3824f"><path d="M 148.074219 72.882812 C 144.710938 89.976562 129.648438 102.246094 112.230469 102.082031 L 32.207031 101.335938 C 22.574219 101.246094 13.484375 96.875 7.402344 89.410156 C 1.320312 81.941406 -1.121094 72.15625 0.738281 62.707031 L 7.867188 26.472656 C 9.726562 17.023438 15.699219 8.894531 24.15625 4.289062 C 32.613281 -0.316406 42.683594 -0.917969 51.628906 2.648438 L 125.964844 32.28125 C 142.148438 38.730469 151.4375 55.792969 148.074219 72.882812 Z M 148.074219 72.882812 " clip-rule="nonzero"/></clipPath><clipPath id="46c661f7a6"><rect x="0" width="149" y="0" height="103"/></clipPath><clipPath id="2815bf1e2b"><path d="M 1328 109 L 1418 109 L 1418 199 L 1328 199 Z M 1328 109 " clip-rule="nonzero"/></clipPath><clipPath id="fbde4d9587"><path d="M 1349.273438 219.710938 L 1319.78125 130.4375 L 1389.457031 107.421875 L 1418.945312 196.695312 Z M 1349.273438 219.710938 " clip-rule="nonzero"/></clipPath><clipPath id="6c5f2737b4"><path d="M 1339.875 191.269531 L 1329.238281 159.0625 C 1327.832031 154.808594 1329.304688 150.132812 1332.898438 147.457031 L 1382.875 110.183594 C 1384.269531 109.144531 1386.078125 108.835938 1387.734375 109.359375 C 1389.390625 109.882812 1390.695312 111.171875 1391.242188 112.820312 L 1417.222656 191.476562 C 1417.769531 193.128906 1417.488281 194.941406 1416.46875 196.347656 C 1415.449219 197.753906 1413.8125 198.585938 1412.078125 198.578125 L 1349.730469 198.410156 C 1345.25 198.398438 1341.28125 195.523438 1339.875 191.269531 Z M 1339.875 191.269531 " clip-rule="nonzero"/></clipPath><clipPath id="6e861ceb9d"><path d="M 0 0 L 89.921875 0 L 89.921875 89.71875 L 0 89.71875 Z M 0 0 " clip-rule="nonzero"/></clipPath><clipPath id="1ab00f48ff"><path d="M 21.273438 110.710938 L -8.21875 21.4375 L 61.457031 -1.578125 L 90.945312 87.695312 Z M 21.273438 110.710938 " clip-rule="nonzero"/></clipPath><clipPath id="6b3e3c2856"><path d="M 11.875 82.269531 L 1.238281 50.0625 C -0.167969 45.808594 1.304688 41.132812 4.898438 38.457031 L 54.875 1.183594 C 56.269531 0.144531 58.078125 -0.164062 59.734375 0.359375 C 61.390625 0.882812 62.695312 2.171875 63.242188 3.820312 L 89.222656 82.476562 C 89.769531 84.128906 89.488281 85.941406 88.46875 87.347656 C 87.449219 88.753906 85.8125 89.585938 84.078125 89.578125 L 21.730469 89.410156 C 17.25 89.398438 13.28125 86.523438 11.875 82.269531 Z M 11.875 82.269531 " clip-rule="nonzero"/></clipPath><clipPath id="27fca601c4"><rect x="0" width="90" y="0" height="90"/></clipPath></defs><g clip-path="url(#85c79629bc)"><g clip-path="url(#1602983e57)"><g clip-path="url(#c143d6ad56)"><g clip-path="url(#18a65b79b3)"><path fill="#1ca379" d="M 262.917969 170.3125 C 260.121094 170.167969 258.101562 167.5625 257.910156 164.894531 C 257.828125 163.800781 257.96875 162.691406 257.953125 161.59375 C 257.972656 158.015625 257.703125 154.410156 256.691406 150.964844 C 254.320312 143.058594 248.929688 136.140625 241.792969 131.976562 C 237.191406 129.3125 231.917969 128.195312 226.703125 127.40625 C 223.367188 137.273438 218.097656 146.648438 210.476562 153.847656 C 202.851562 161.046875 191.523438 166.609375 181 163.257812 C 175.683594 161.457031 171.160156 156.746094 170.398438 151.074219 C 169.902344 147.273438 170.910156 143.453125 172.503906 140.011719 C 176.710938 131.121094 185.390625 125.40625 194.074219 121.425781 C 201.730469 117.816406 210.128906 115.90625 218.582031 115.863281 C 221.90625 99.210938 220.039062 82.207031 205.1875 71.800781 C 202.921875 82.679688 192.433594 95.246094 182.40625 99.808594 C 171.5625 105.070312 159.378906 101.164062 153.992188 90.335938 C 147.519531 77.902344 156.28125 63.246094 167.640625 57.199219 C 176.101562 52.953125 186.160156 52.921875 195.21875 55.03125 C 194.207031 48.34375 191.96875 41.289062 187.957031 35.835938 C 184.875 32.144531 181.089844 28.6875 176.195312 27.816406 C 171.519531 27.058594 166.65625 27.40625 162.027344 28.332031 C 159.019531 29.160156 156.039062 30.289062 153.464844 32.089844 C 152.496094 32.863281 151.8125 33.910156 150.898438 34.742188 C 147.25 38.195312 141.332031 35.214844 142.246094 30.199219 C 143.996094 24.195312 150.265625 21.078125 155.695312 18.988281 C 160.730469 17.101562 166.160156 16.566406 171.5 16.566406 C 174.019531 16.589844 176.542969 16.726562 179.007812 17.308594 C 187.101562 19.042969 193.734375 24.804688 198.261719 31.53125 C 203.410156 39.9375 206.25 49.8125 206.503906 59.671875 C 228.261719 71.996094 233.960938 93.234375 229.488281 116.765625 C 235.765625 117.820312 242.0625 119.390625 247.554688 122.703125 C 257.53125 128.5625 264.933594 138.582031 267.667969 149.820312 C 268.566406 153.460938 268.859375 157.222656 268.855469 160.96875 C 268.824219 162.503906 268.898438 164.050781 268.640625 165.566406 C 268.128906 168.222656 265.730469 170.542969 262.917969 170.3125 Z M 203.71875 145.234375 C 208.859375 140.078125 212.652344 133.683594 215.261719 126.921875 C 204.089844 127.414062 182.269531 136.246094 181.171875 149.007812 C 181.152344 150.859375 182.8125 152.179688 184.371094 152.855469 C 186.503906 153.707031 188.859375 153.382812 191.03125 152.851562 C 195.910156 151.605469 200.183594 148.757812 203.71875 145.234375 Z M 181.453125 87.824219 C 184.589844 85.539062 186.695312 83.226562 188.996094 80.332031 C 192.4375 75.894531 194.308594 71.984375 195.199219 66.414062 C 187.507812 63.90625 177.167969 63.390625 170.320312 68.34375 C 166.472656 71.480469 162.898438 75.867188 162.691406 81.019531 C 162.730469 85.4375 165.867188 89.734375 170.136719 90.957031 C 174.140625 91.96875 178.195312 90.039062 181.453125 87.824219 Z M 181.453125 87.824219 " fill-opacity="1" fill-rule="nonzero"/></g></g></g></g><g clip-path="url(#2e1fdbc364)"><g clip-path="url(#00fcf3ebce)"><g clip-path="url(#7a93bfd0f8)"><path fill="#ffbd59" d="M 1321.136719 708.632812 C 1318.699219 710.003906 1315.601562 708.894531 1314.007812 706.753906 C 1313.347656 705.875 1312.871094 704.867188 1312.269531 703.953125 C 1310.359375 700.933594 1308.195312 698.042969 1305.492188 695.6875 C 1299.246094 690.304688 1290.988281 687.371094 1282.738281 687.6875 C 1277.433594 687.90625 1272.386719 689.789062 1267.574219 691.910156 C 1270.070312 702 1270.667969 712.699219 1268.117188 722.835938 C 1265.566406 732.96875 1259.011719 743.707031 1248.347656 746.515625 C 1242.902344 747.847656 1236.5625 746.300781 1232.875 741.941406 C 1230.410156 739.007812 1229.207031 735.253906 1228.699219 731.507812 C 1227.464844 721.78125 1231.707031 712.332031 1236.878906 704.335938 C 1241.386719 697.207031 1247.4375 691.109375 1254.53125 686.550781 C 1248.378906 670.761719 1237.671875 657.460938 1219.570312 656.652344 C 1223.507812 667.015625 1221.429688 683.191406 1215.433594 692.398438 C 1209.125 702.621094 1196.765625 705.851562 1186.414062 699.628906 C 1174.277344 692.632812 1173.777344 675.617188 1180.097656 664.453125 C 1184.941406 656.355469 1193.398438 650.949219 1202.160156 647.878906 C 1197.714844 642.796875 1192.039062 638.058594 1185.730469 635.617188 C 1181.148438 634.160156 1176.101562 633.28125 1171.511719 635.164062 C 1167.167969 637.027344 1163.257812 639.917969 1159.859375 643.175781 C 1157.769531 645.484375 1155.867188 648.027344 1154.664062 650.914062 C 1154.265625 652.085938 1154.25 653.332031 1153.929688 654.519531 C 1152.710938 659.375 1146.125 660.035156 1144.199219 655.328125 C 1142.449219 649.339844 1146.050781 643.367188 1149.503906 638.703125 C 1152.730469 634.421875 1157.015625 631.070312 1161.511719 628.214844 C 1163.648438 626.882812 1165.84375 625.648438 1168.234375 624.820312 C 1175.984375 621.953125 1184.667969 623.25 1192.09375 626.484375 C 1200.949219 630.800781 1208.648438 637.589844 1214.160156 645.746094 C 1239.105469 644.472656 1255.324219 659.289062 1264.203125 681.472656 C 1270.054688 679 1276.203125 676.957031 1282.609375 676.800781 C 1294.160156 676.398438 1305.78125 680.859375 1314.121094 688.851562 C 1316.835938 691.433594 1319.105469 694.441406 1321.113281 697.597656 C 1321.910156 698.902344 1322.808594 700.167969 1323.402344 701.578125 C 1324.402344 704.085938 1323.625 707.320312 1321.136719 708.632812 Z M 1257.796875 719.203125 C 1259.355469 712.117188 1259.117188 704.710938 1257.679688 697.628906 C 1248.53125 704.019531 1234.898438 723.117188 1240.835938 734.441406 C 1241.8125 736.007812 1243.921875 736.230469 1245.597656 735.964844 C 1247.851562 735.539062 1249.660156 734.007812 1251.203125 732.398438 C 1254.644531 728.742188 1256.714844 724.058594 1257.796875 719.203125 Z M 1208.191406 682.824219 C 1209.605469 679.226562 1210.136719 676.152344 1210.515625 672.488281 C 1211.03125 666.914062 1210.503906 662.625 1208.261719 657.460938 C 1200.4375 659.46875 1191.449219 664.566406 1188.347656 672.394531 C 1186.792969 677.089844 1186.136719 682.695312 1188.730469 687.140625 C 1191.140625 690.832031 1196.089844 692.769531 1200.34375 691.515625 C 1204.257812 690.222656 1206.636719 686.429688 1208.191406 682.824219 Z M 1208.191406 682.824219 " fill-opacity="1" fill-rule="nonzero"/></g></g></g><g clip-path="url(#0d3764c2ca)"><g clip-path="url(#c6b9b5c518)"><g clip-path="url(#2db4834202)"><g clip-path="url(#d3a0ca7d0c)"><path fill="#ff743e" d="M 171.863281 519.410156 C 152.953125 514.339844 133.464844 511.214844 114.394531 506.644531 C 99.855469 502.761719 85.390625 498.410156 70.382812 496.707031 C 64.28125 495.542969 54.4375 495.984375 55.605469 487.101562 C 57.664062 478.761719 66.234375 482.386719 72.207031 483.117188 C 87.136719 484.902344 101.664062 488.777344 116.074219 492.957031 C 134.136719 497.003906 152.25 500.832031 170.363281 504.660156 C 172.355469 505.121094 174.265625 505.671875 176.0625 506.378906 C 184.699219 509.164062 180.597656 522.164062 171.863281 519.410156 Z M 66.625 596.347656 C 60.894531 597.726562 56.070312 590.789062 59.460938 585.917969 C 62.210938 581.753906 68.019531 582.71875 72.273438 581.316406 C 81.421875 579.421875 90.519531 577.308594 99.605469 575.148438 C 127.136719 569.246094 154.453125 561.628906 181.328125 554.335938 L 181.328125 554.339844 C 188.128906 554.738281 189.445312 564.207031 183.304688 566.851562 C 177.011719 569.757812 169.929688 571.164062 163.355469 573.140625 C 131.476562 582.234375 99.074219 589.59375 66.625 596.347656 Z M 113.230469 677.171875 C 110.667969 674.511719 110.855469 669.972656 113.578125 667.496094 C 116.703125 664.429688 119.628906 661.140625 123.039062 658.386719 C 131.683594 649.875 140.722656 641.792969 149.726562 633.667969 C 158.914062 625.058594 168.253906 616.605469 177.617188 608.175781 C 182.746094 603.488281 187.667969 598.566406 192.683594 593.753906 C 194.8125 591.894531 196.703125 589.453125 199.410156 588.4375 C 202.847656 587.097656 206.785156 590.328125 206.007812 594 C 205.644531 596.203125 204.035156 597.882812 202.699219 599.570312 C 191.074219 613.019531 177.570312 624.628906 164.714844 636.859375 C 154.738281 646.589844 144.078125 655.601562 134.429688 665.65625 C 132.585938 667.78125 129.480469 670.675781 127.78125 672.414062 C 123.867188 676.789062 119.085938 682.707031 113.230469 677.171875 Z M 113.230469 677.171875 " fill-opacity="1" fill-rule="nonzero"/></g></g></g></g><g clip-path="url(#1006f59505)"><g clip-path="url(#bcf540f494)"><g clip-path="url(#0f994c9192)"><path fill="#0cd380" d="M 1283.304688 121.378906 C 1293.09375 109.273438 1301.65625 96.117188 1311.132812 83.734375 C 1318.648438 74.421875 1326.480469 65.3125 1332.5625 54.957031 C 1335.375 50.898438 1338.234375 43.601562 1344.308594 47.320312 C 1349.703125 51.507812 1344.304688 56.566406 1341.84375 60.671875 C 1335.726562 70.945312 1328.222656 80.253906 1320.535156 89.375 C 1311.761719 101.195312 1303.132812 113.121094 1294.507812 125.050781 C 1293.527344 126.351562 1292.511719 127.5625 1291.417969 128.640625 C 1286.605469 134.015625 1278.484375 126.839844 1283.304688 121.378906 Z M 1261.390625 20.0625 C 1262.238281 15.449219 1268.835938 14.183594 1271.277344 18.21875 C 1273.414062 21.5625 1270.839844 25.472656 1270.484375 29.019531 C 1268.910156 36.277344 1267.503906 43.574219 1266.140625 50.871094 C 1261.542969 72.785156 1258.257812 95.097656 1254.878906 116.984375 L 1254.875 116.980469 C 1252.390625 121.796875 1245.085938 119.695312 1245.148438 114.378906 C 1245.070312 108.867188 1246.335938 103.269531 1247.023438 97.851562 C 1250.707031 71.746094 1255.820312 45.824219 1261.390625 20.0625 Z M 1187.628906 27.839844 C 1190.386719 26.835938 1193.625 28.4375 1194.546875 31.214844 C 1195.761719 34.476562 1197.207031 37.664062 1198.109375 41.03125 C 1201.5 50.0625 1204.453125 59.242188 1207.449219 68.40625 C 1210.738281 77.863281 1213.863281 87.378906 1216.964844 96.90625 C 1218.714844 102.148438 1220.699219 107.3125 1222.578125 112.511719 C 1223.242188 114.660156 1224.40625 116.820312 1224.269531 119.117188 C 1224.132812 122.046875 1220.511719 123.867188 1218.097656 122.117188 C 1216.613281 121.140625 1215.914062 119.425781 1215.121094 117.910156 C 1209.101562 105.121094 1205.027344 91.558594 1200.292969 78.269531 C 1196.445312 67.878906 1193.339844 57.222656 1189.148438 46.960938 C 1188.199219 44.9375 1187.101562 41.746094 1186.390625 39.949219 C 1184.472656 35.691406 1181.71875 30.308594 1187.628906 27.839844 Z M 1187.628906 27.839844 " fill-opacity="1" fill-rule="nonzero"/></g></g></g><g clip-path="url(#1e2837f2dc)"><g clip-path="url(#b8e3c6974d)"><g transform="matrix(1, 0, 0, 1, 267, 163)"><g clip-path="url(#5998aea007)"><g clip-path="url(#be337c1939)"><g clip-path="url(#22cd12ed27)"><path fill="#1ca379" d="M 0.445312 0.375 L 1052.304688 0.375 L 1052.304688 388.941406 L 0.445312 388.941406 Z M 0.445312 0.375 " fill-opacity="1" fill-rule="nonzero"/></g></g></g></g></g></g><g clip-path="url(#55d20b857d)"><g clip-path="url(#667f447d70)"><g transform="matrix(1, 0, 0, 1, 205, 208)"><g clip-path="url(#e9376f6c5e)"><g clip-path="url(#79d62a1632)"><g clip-path="url(#00e839eed6)"><path fill="#ffbd59" d="M 0.09375 0.722656 L 1053.472656 0.722656 L 1053.472656 389.289062 L 0.09375 389.289062 Z M 0.09375 0.722656 " fill-opacity="1" fill-rule="nonzero"/></g></g></g></g></g></g><g clip-path="url(#a0ea85ef32)"><path fill="#ff743e" d="M 280.425781 208.445312 L 205.09375 283.78125 L 205.09375 421.527344 L 418.175781 208.445312 Z M 280.425781 208.445312 " fill-opacity="1" fill-rule="nonzero"/></g><g clip-path="url(#16d7ca2d89)"><path fill="#ff743e" d="M 1175.699219 594.886719 L 1259.09375 511.492188 L 1259.09375 359.011719 L 1023.21875 594.886719 Z M 1175.699219 594.886719 " fill-opacity="1" fill-rule="nonzero"/></g><g clip-path="url(#d58d6a106c)"><g clip-path="url(#a40f6de1c5)"><g clip-path="url(#1cfc9eef83)"><g transform="matrix(1, 0, 0, 1, 1258, 561)"><g clip-path="url(#8d8eeecd91)"><g clip-path="url(#af4a24a8f0)"><g clip-path="url(#5ce7820228)"><g clip-path="url(#e3fb8f5f64)"><path fill="#0cd380" d="M 133.507812 20.230469 L 66.121094 125.585938 L -28.511719 65.058594 L 38.871094 -40.300781 Z M 133.507812 20.230469 " fill-opacity="1" fill-rule="nonzero"/></g></g></g></g></g></g></g></g><g clip-path="url(#60b25f3a6e)"><g clip-path="url(#9aa8623000)"><g clip-path="url(#dcc45fd53c)"><g transform="matrix(1, 0, 0, 1, 1323, 488)"><g clip-path="url(#05584e771f)"><g clip-path="url(#9a03dc2557)"><g clip-path="url(#8573c20c02)"><g clip-path="url(#d0d5483112)"><path fill="#ff743e" d="M 60.179688 -7.105469 L 86.425781 72.996094 L 14.472656 96.574219 L -11.773438 16.46875 Z M 60.179688 -7.105469 " fill-opacity="1" fill-rule="nonzero"/></g></g></g></g></g></g></g></g><g clip-path="url(#f3653360c7)"><g clip-path="url(#b8fe3c66e4)"><g clip-path="url(#470a9f5778)"><g transform="matrix(1, 0, 0, 1, 173, 610)"><g clip-path="url(#6b7186e20c)"><g clip-path="url(#caf1a9eb4d)"><g clip-path="url(#be286ea3f2)"><g clip-path="url(#c701cad1e2)"><path fill="#0cd380" d="M 14.796875 -6.339844 L 153.628906 16.488281 L 136.492188 120.710938 L -2.339844 97.882812 Z M 14.796875 -6.339844 " fill-opacity="1" fill-rule="nonzero"/></g></g></g></g></g></g></g></g><g clip-path="url(#df18770379)"><g clip-path="url(#8dd15cb5a5)"><g clip-path="url(#b2815b9a9b)"><g transform="matrix(1, 0, 0, 1, 312, 615)"><g clip-path="url(#cf7d8935be)"><g clip-path="url(#3317e1ad38)"><g clip-path="url(#f65c39a80b)"><g clip-path="url(#7372299b06)"><path fill="#ff743e" d="M -15.496094 27.574219 L 43.164062 -11.253906 L 72.3125 32.785156 L 13.652344 71.613281 Z M -15.496094 27.574219 " fill-opacity="1" fill-rule="nonzero"/></g></g></g></g></g></g></g></g><g clip-path="url(#0a3f573f5f)"><g clip-path="url(#7c1661ae79)"><g transform="matrix(1, 0, 0, 1, 482, 686)"><g clip-path="url(#04692c5f1e)"><g clip-path="url(#9a98dd9b78)"><g clip-path="url(#99872c9c35)"><path fill="#02714f" d="M -17.171875 0.617188 L 569.324219 0.617188 L 569.324219 154.609375 L -17.171875 154.609375 Z M -17.171875 0.617188 " fill-opacity="1" fill-rule="nonzero"/></g></g></g></g></g></g><g clip-path="url(#a00af68778)"><g clip-path="url(#f6f2302268)"><g transform="matrix(1, 0, 0, 1, 435, 0.000000000000039746)"><g clip-path="url(#e30932ec9e)"><g clip-path="url(#8a70ee8389)"><g clip-path="url(#88027c5b17)"><path fill="#d2501e" d="M 663.214844 105.699219 L -17.117188 105.699219 L -17.117188 -48.289062 L 663.214844 -48.289062 Z M 663.214844 105.699219 " fill-opacity="1" fill-rule="nonzero"/></g></g></g></g></g></g><g clip-path="url(#109cce8e73)"><g clip-path="url(#73a1046d5c)"><g clip-path="url(#715763cc0a)"><g transform="matrix(1, 0, 0, 1, 36, 149)"><g clip-path="url(#46c661f7a6)"><g clip-path="url(#bdbefce9a5)"><g clip-path="url(#c1670adadc)"><g clip-path="url(#e740f3824f)"><path fill="#ff743e" d="M 159.167969 16.5 L 136.976562 129.269531 L -6.625 101.007812 L 15.566406 -11.757812 Z M 159.167969 16.5 " fill-opacity="1" fill-rule="nonzero"/></g></g></g></g></g></g></g></g><g clip-path="url(#2815bf1e2b)"><g clip-path="url(#fbde4d9587)"><g clip-path="url(#6c5f2737b4)"><g transform="matrix(1, 0, 0, 1, 1328, 109)"><g clip-path="url(#27fca601c4)"><g clip-path="url(#6e861ceb9d)"><g clip-path="url(#1ab00f48ff)"><g clip-path="url(#6b3e3c2856)"><path fill="#ff743e" d="M 21.902344 112.617188 L -8.757812 19.804688 L 60.917969 -3.210938 L 91.578125 89.601562 Z M 21.902344 112.617188 " fill-opacity="1" fill-rule="nonzero"/></g></g></g></g></g></g></g></g></svg>