<svg xmlns="http://www.w3.org/2000/svg" xmlns:xlink="http://www.w3.org/1999/xlink" width="1920" zoomAndPan="magnify" viewBox="0 0 1440 809.999993" height="1080" preserveAspectRatio="xMidYMid meet" version="1.0"><defs><clipPath id="445674f378"><path d="M 1289 703 L 1396 703 L 1396 796 L 1289 796 Z M 1289 703 " clip-rule="nonzero"/></clipPath><clipPath id="f8b9a51608"><path d="M 1266.054688 750.949219 L 1302.734375 693.394531 L 1408.988281 761.113281 L 1372.308594 818.667969 Z M 1266.054688 750.949219 " clip-rule="nonzero"/></clipPath><clipPath id="8df4ab954c"><path d="M 1266.054688 750.949219 L 1302.734375 693.394531 L 1408.988281 761.113281 L 1372.308594 818.667969 Z M 1266.054688 750.949219 " clip-rule="nonzero"/></clipPath><clipPath id="6d6d4c87eb"><path d="M 1349 649 L 1432 649 L 1432 721 L 1349 721 Z M 1349 649 " clip-rule="nonzero"/></clipPath><clipPath id="96b822ec2b"><path d="M 1411.167969 646.203125 L 1434.285156 716.75 L 1362.332031 740.328125 L 1339.214844 669.78125 Z M 1411.167969 646.203125 " clip-rule="nonzero"/></clipPath><clipPath id="17383889d8"><path d="M 1350.777344 705.066406 C 1353.023438 711.921875 1359.21875 716.714844 1366.417969 717.171875 L 1420.140625 720.5625 C 1423.671875 720.785156 1427.085938 719.242188 1429.253906 716.441406 C 1431.421875 713.644531 1432.058594 709.953125 1430.957031 706.589844 L 1414.507812 656.394531 C 1413.40625 653.027344 1410.707031 650.429688 1407.304688 649.457031 C 1403.902344 648.480469 1400.238281 649.257812 1397.519531 651.527344 L 1356.222656 686.054688 C 1350.6875 690.679688 1348.53125 698.210938 1350.777344 705.066406 Z M 1350.777344 705.066406 " clip-rule="nonzero"/></clipPath><clipPath id="3e290cde87"><path d="M 0 0 L 83 0 L 83 71.960938 L 0 71.960938 Z M 0 0 " clip-rule="nonzero"/></clipPath><clipPath id="055be43aa7"><path d="M 62.167969 -2.796875 L 85.285156 67.75 L 13.332031 91.328125 L -9.785156 20.78125 Z M 62.167969 -2.796875 " clip-rule="nonzero"/></clipPath><clipPath id="cb794442cc"><path d="M 1.777344 56.066406 C 4.023438 62.921875 10.21875 67.714844 17.417969 68.171875 L 71.140625 71.5625 C 74.671875 71.785156 78.085938 70.242188 80.253906 67.441406 C 82.421875 64.644531 83.058594 60.953125 81.957031 57.589844 L 65.507812 7.394531 C 64.40625 4.027344 61.707031 1.429688 58.304688 0.457031 C 54.902344 -0.519531 51.238281 0.257812 48.519531 2.527344 L 7.222656 37.054688 C 1.6875 41.679688 -0.46875 49.210938 1.777344 56.066406 Z M 1.777344 56.066406 " clip-rule="nonzero"/></clipPath><clipPath id="7b37a393e2"><rect x="0" width="83" y="0" height="72"/></clipPath><clipPath id="6ec00c96c8"><path d="M 157.3125 251.320312 L 1353.707031 251.320312 L 1353.707031 693.277344 L 157.3125 693.277344 Z M 157.3125 251.320312 " clip-rule="nonzero"/></clipPath><clipPath id="0c24bece02"><path d="M 195.5625 251.320312 L 1315.355469 251.320312 C 1325.5 251.320312 1335.230469 255.347656 1342.402344 262.523438 C 1349.574219 269.695312 1353.605469 279.425781 1353.605469 289.570312 L 1353.605469 655.027344 C 1353.605469 665.171875 1349.574219 674.902344 1342.402344 682.074219 C 1335.230469 689.246094 1325.5 693.277344 1315.355469 693.277344 L 195.5625 693.277344 C 185.417969 693.277344 175.691406 689.246094 168.515625 682.074219 C 161.34375 674.902344 157.3125 665.171875 157.3125 655.027344 L 157.3125 289.570312 C 157.3125 279.425781 161.34375 269.695312 168.515625 262.523438 C 175.691406 255.347656 185.417969 251.320312 195.5625 251.320312 Z M 195.5625 251.320312 " clip-rule="nonzero"/></clipPath><clipPath id="d70ceb22ea"><path d="M 0.3125 0.320312 L 1196.707031 0.320312 L 1196.707031 442.277344 L 0.3125 442.277344 Z M 0.3125 0.320312 " clip-rule="nonzero"/></clipPath><clipPath id="00ee80aeb3"><path d="M 38.5625 0.320312 L 1158.355469 0.320312 C 1168.5 0.320312 1178.230469 4.347656 1185.402344 11.523438 C 1192.574219 18.695312 1196.605469 28.425781 1196.605469 38.570312 L 1196.605469 404.027344 C 1196.605469 414.171875 1192.574219 423.902344 1185.402344 431.074219 C 1178.230469 438.246094 1168.5 442.277344 1158.355469 442.277344 L 38.5625 442.277344 C 28.417969 442.277344 18.691406 438.246094 11.515625 431.074219 C 4.34375 423.902344 0.3125 414.171875 0.3125 404.027344 L 0.3125 38.570312 C 0.3125 28.425781 4.34375 18.695312 11.515625 11.523438 C 18.691406 4.347656 28.417969 0.320312 38.5625 0.320312 Z M 38.5625 0.320312 " clip-rule="nonzero"/></clipPath><clipPath id="f107ef59ae"><rect x="0" width="1197" y="0" height="443"/></clipPath><clipPath id="ac4c4bfd56"><path d="M 86.394531 302.898438 L 1286 302.898438 L 1286 744.855469 L 86.394531 744.855469 Z M 86.394531 302.898438 " clip-rule="nonzero"/></clipPath><clipPath id="52857ab3ae"><path d="M 124.644531 302.898438 L 1246.976562 302.898438 C 1257.121094 302.898438 1266.851562 306.925781 1274.023438 314.101562 C 1281.195312 321.273438 1285.226562 331.003906 1285.226562 341.148438 L 1285.226562 706.605469 C 1285.226562 716.75 1281.195312 726.480469 1274.023438 733.652344 C 1266.851562 740.824219 1257.121094 744.855469 1246.976562 744.855469 L 124.644531 744.855469 C 114.5 744.855469 104.769531 740.824219 97.597656 733.652344 C 90.425781 726.480469 86.394531 716.75 86.394531 706.605469 L 86.394531 341.148438 C 86.394531 331.003906 90.425781 321.273438 97.597656 314.101562 C 104.769531 306.925781 114.5 302.898438 124.644531 302.898438 Z M 124.644531 302.898438 " clip-rule="nonzero"/></clipPath><clipPath id="72a9975e0e"><path d="M 0.394531 0.898438 L 1199 0.898438 L 1199 442.855469 L 0.394531 442.855469 Z M 0.394531 0.898438 " clip-rule="nonzero"/></clipPath><clipPath id="a672990732"><path d="M 38.644531 0.898438 L 1160.976562 0.898438 C 1171.121094 0.898438 1180.851562 4.925781 1188.023438 12.101562 C 1195.195312 19.273438 1199.226562 29.003906 1199.226562 39.148438 L 1199.226562 404.605469 C 1199.226562 414.75 1195.195312 424.480469 1188.023438 431.652344 C 1180.851562 438.824219 1171.121094 442.855469 1160.976562 442.855469 L 38.644531 442.855469 C 28.5 442.855469 18.769531 438.824219 11.597656 431.652344 C 4.425781 424.480469 0.394531 414.75 0.394531 404.605469 L 0.394531 39.148438 C 0.394531 29.003906 4.425781 19.273438 11.597656 12.101562 C 18.769531 4.925781 28.5 0.898438 38.644531 0.898438 Z M 38.644531 0.898438 " clip-rule="nonzero"/></clipPath><clipPath id="d7912da8a7"><rect x="0" width="1200" y="0" height="443"/></clipPath><clipPath id="864864194a"><path d="M 45 151 L 144 151 L 144 271 L 45 271 Z M 45 151 " clip-rule="nonzero"/></clipPath><clipPath id="d7687ffb19"><path d="M 7.585938 191.019531 L 68.222656 138.449219 L 165.007812 250.082031 L 104.375 302.652344 Z M 7.585938 191.019531 " clip-rule="nonzero"/></clipPath><clipPath id="5388d8613e"><path d="M 7.585938 191.019531 L 68.222656 138.449219 L 165.007812 250.082031 L 104.375 302.652344 Z M 7.585938 191.019531 " clip-rule="nonzero"/></clipPath><clipPath id="c0ed06e0a6"><path d="M 7.585938 191.019531 L 68.222656 138.449219 L 165.007812 250.082031 L 104.375 302.652344 Z M 7.585938 191.019531 " clip-rule="nonzero"/></clipPath><clipPath id="f320bae156"><path d="M 3 258 L 88 258 L 88 366 L 3 366 Z M 3 258 " clip-rule="nonzero"/></clipPath><clipPath id="8654957545"><path d="M 31.410156 251.320312 L 105.113281 284.921875 L 56.890625 390.699219 L -16.808594 357.097656 Z M 31.410156 251.320312 " clip-rule="nonzero"/></clipPath><clipPath id="dc986795c3"><path d="M 31.410156 251.320312 L 105.113281 284.921875 L 56.890625 390.699219 L -16.808594 357.097656 Z M 31.410156 251.320312 " clip-rule="nonzero"/></clipPath><clipPath id="1da2e69d4a"><path d="M 31.410156 251.320312 L 105.113281 284.921875 L 56.890625 390.699219 L -16.808594 357.097656 Z M 31.410156 251.320312 " clip-rule="nonzero"/></clipPath><clipPath id="1ba4d96a0d"><path d="M 268.691406 17.097656 L 1224.507812 17.097656 L 1224.507812 163.527344 L 268.691406 163.527344 Z M 268.691406 17.097656 " clip-rule="nonzero"/></clipPath><clipPath id="c41f74572b"><path d="M 306.941406 17.097656 L 1186.082031 17.097656 C 1196.226562 17.097656 1205.953125 21.125 1213.128906 28.300781 C 1220.300781 35.472656 1224.332031 45.203125 1224.332031 55.347656 L 1224.332031 125.277344 C 1224.332031 135.421875 1220.300781 145.152344 1213.128906 152.324219 C 1205.953125 159.5 1196.226562 163.527344 1186.082031 163.527344 L 306.941406 163.527344 C 296.796875 163.527344 287.066406 159.5 279.894531 152.324219 C 272.722656 145.152344 268.691406 135.421875 268.691406 125.277344 L 268.691406 55.347656 C 268.691406 45.203125 272.722656 35.472656 279.894531 28.300781 C 287.066406 21.125 296.796875 17.097656 306.941406 17.097656 Z M 306.941406 17.097656 " clip-rule="nonzero"/></clipPath><clipPath id="de3bbb3794"><path d="M 0.691406 0.0976562 L 956.480469 0.0976562 L 956.480469 146.527344 L 0.691406 146.527344 Z M 0.691406 0.0976562 " clip-rule="nonzero"/></clipPath><clipPath id="496f7fb1ca"><path d="M 38.941406 0.0976562 L 918.082031 0.0976562 C 928.226562 0.0976562 937.953125 4.125 945.128906 11.300781 C 952.300781 18.472656 956.332031 28.203125 956.332031 38.347656 L 956.332031 108.277344 C 956.332031 118.421875 952.300781 128.152344 945.128906 135.324219 C 937.953125 142.5 928.226562 146.527344 918.082031 146.527344 L 38.941406 146.527344 C 28.796875 146.527344 19.066406 142.5 11.894531 135.324219 C 4.722656 128.152344 0.691406 118.421875 0.691406 108.277344 L 0.691406 38.347656 C 0.691406 28.203125 4.722656 18.472656 11.894531 11.300781 C 19.066406 4.125 28.796875 0.0976562 38.941406 0.0976562 Z M 38.941406 0.0976562 " clip-rule="nonzero"/></clipPath><clipPath id="75769834f0"><rect x="0" width="957" y="0" height="147"/></clipPath><clipPath id="ae68e098c5"><path d="M 249.195312 44.953125 L 1203 44.953125 L 1203 191.386719 L 249.195312 191.386719 Z M 249.195312 44.953125 " clip-rule="nonzero"/></clipPath><clipPath id="e427b68256"><path d="M 287.445312 44.953125 L 1164.710938 44.953125 C 1174.855469 44.953125 1184.585938 48.984375 1191.757812 56.15625 C 1198.933594 63.328125 1202.960938 73.058594 1202.960938 83.203125 L 1202.960938 153.136719 C 1202.960938 163.28125 1198.933594 173.007812 1191.757812 180.183594 C 1184.585938 187.355469 1174.855469 191.386719 1164.710938 191.386719 L 287.445312 191.386719 C 277.300781 191.386719 267.570312 187.355469 260.398438 180.183594 C 253.226562 173.007812 249.195312 163.28125 249.195312 153.136719 L 249.195312 83.203125 C 249.195312 73.058594 253.226562 63.328125 260.398438 56.15625 C 267.570312 48.984375 277.300781 44.953125 287.445312 44.953125 Z M 287.445312 44.953125 " clip-rule="nonzero"/></clipPath><clipPath id="bc4fd2cf70"><path d="M 0.195312 0.953125 L 954 0.953125 L 954 147.386719 L 0.195312 147.386719 Z M 0.195312 0.953125 " clip-rule="nonzero"/></clipPath><clipPath id="3d6ecd5c4d"><path d="M 38.445312 0.953125 L 915.710938 0.953125 C 925.855469 0.953125 935.585938 4.984375 942.757812 12.15625 C 949.933594 19.328125 953.960938 29.058594 953.960938 39.203125 L 953.960938 109.136719 C 953.960938 119.28125 949.933594 129.007812 942.757812 136.183594 C 935.585938 143.355469 925.855469 147.386719 915.710938 147.386719 L 38.445312 147.386719 C 28.300781 147.386719 18.570312 143.355469 11.398438 136.183594 C 4.226562 129.007812 0.195312 119.28125 0.195312 109.136719 L 0.195312 39.203125 C 0.195312 29.058594 4.226562 19.328125 11.398438 12.15625 C 18.570312 4.984375 28.300781 0.953125 38.445312 0.953125 Z M 38.445312 0.953125 " clip-rule="nonzero"/></clipPath><clipPath id="9bf8e7a250"><rect x="0" width="954" y="0" height="148"/></clipPath><clipPath id="4b3124c0bb"><path d="M 249.195312 44.953125 L 367.695312 44.953125 L 367.695312 163.453125 L 249.195312 163.453125 Z M 249.195312 44.953125 " clip-rule="nonzero"/></clipPath><clipPath id="a7487f130f"><path d="M 1095 83.375 L 1202.953125 83.375 L 1202.953125 191.375 L 1095 191.375 Z M 1095 83.375 " clip-rule="nonzero"/></clipPath><clipPath id="682673cdd5"><path d="M 1203 163 L 1287 163 L 1287 244 L 1203 244 Z M 1203 163 " clip-rule="nonzero"/></clipPath><clipPath id="89051fadc3"><path d="M 1290.878906 188.488281 L 1243.449219 247.5625 L 1183.675781 199.570312 L 1231.105469 140.496094 Z M 1290.878906 188.488281 " clip-rule="nonzero"/></clipPath><clipPath id="16fd1cc8f9"><path d="M 1207.382812 170.042969 C 1202.8125 175.738281 1202.167969 183.644531 1205.761719 190 L 1232.679688 237.609375 C 1234.421875 240.691406 1237.578125 242.707031 1241.109375 242.992188 C 1244.636719 243.28125 1248.078125 241.796875 1250.292969 239.039062 L 1284.019531 197.035156 C 1286.234375 194.273438 1286.9375 190.59375 1285.894531 187.210938 C 1284.855469 183.828125 1282.203125 181.183594 1278.816406 180.148438 L 1226.519531 164.152344 C 1219.535156 162.015625 1211.953125 164.347656 1207.382812 170.042969 Z M 1207.382812 170.042969 " clip-rule="nonzero"/></clipPath><clipPath id="cf6b690b67"><path d="M 0 0 L 84 0 L 84 80.359375 L 0 80.359375 Z M 0 0 " clip-rule="nonzero"/></clipPath><clipPath id="4d30a0deef"><path d="M 87.878906 25.488281 L 40.449219 84.5625 L -19.324219 36.570312 L 28.105469 -22.503906 Z M 87.878906 25.488281 " clip-rule="nonzero"/></clipPath><clipPath id="9b784b3925"><path d="M 4.382812 7.042969 C -0.1875 12.738281 -0.832031 20.644531 2.761719 27 L 29.679688 74.609375 C 31.421875 77.691406 34.578125 79.707031 38.109375 79.992188 C 41.636719 80.28125 45.078125 78.796875 47.292969 76.039062 L 81.019531 34.035156 C 83.234375 31.273438 83.9375 27.59375 82.894531 24.210938 C 81.855469 20.828125 79.203125 18.183594 75.816406 17.148438 L 23.519531 1.152344 C 16.535156 -0.984375 8.953125 1.347656 4.382812 7.042969 Z M 4.382812 7.042969 " clip-rule="nonzero"/></clipPath><clipPath id="664b6e2c6e"><rect x="0" width="84" y="0" height="81"/></clipPath><clipPath id="f6e15f2fad"><path d="M 1231 115 L 1283 115 L 1283 159 L 1231 159 Z M 1231 115 " clip-rule="nonzero"/></clipPath><clipPath id="901e3d356f"><path d="M 1272.289062 113.097656 L 1284.597656 155.503906 L 1238.007812 169.027344 L 1225.699219 126.621094 Z M 1272.289062 113.097656 " clip-rule="nonzero"/></clipPath><clipPath id="9b32bc6f5c"><path d="M 1231.855469 147.832031 C 1233.144531 152.269531 1237.007812 155.476562 1241.605469 155.925781 L 1270.300781 158.722656 C 1273.824219 159.066406 1277.289062 157.640625 1279.550781 154.914062 C 1281.8125 152.191406 1282.574219 148.523438 1281.585938 145.125 L 1275.308594 123.492188 C 1274.320312 120.089844 1271.710938 117.402344 1268.34375 116.3125 C 1264.976562 115.222656 1261.285156 115.871094 1258.496094 118.050781 L 1235.757812 135.777344 C 1232.113281 138.617188 1230.566406 143.394531 1231.855469 147.832031 Z M 1231.855469 147.832031 " clip-rule="nonzero"/></clipPath><clipPath id="438207c448"><path d="M 0 0.199219 L 51.800781 0.199219 L 51.800781 44 L 0 44 Z M 0 0.199219 " clip-rule="nonzero"/></clipPath><clipPath id="942e846612"><path d="M 41.289062 -1.902344 L 53.597656 40.503906 L 7.007812 54.027344 L -5.300781 11.621094 Z M 41.289062 -1.902344 " clip-rule="nonzero"/></clipPath><clipPath id="bdcb3d9c0d"><path d="M 0.855469 32.832031 C 2.144531 37.269531 6.007812 40.476562 10.605469 40.925781 L 39.300781 43.722656 C 42.824219 44.066406 46.289062 42.640625 48.550781 39.914062 C 50.8125 37.191406 51.574219 33.523438 50.585938 30.125 L 44.308594 8.492188 C 43.320312 5.089844 40.710938 2.402344 37.34375 1.3125 C 33.976562 0.222656 30.285156 0.871094 27.496094 3.050781 L 4.757812 20.777344 C 1.113281 23.617188 -0.433594 28.394531 0.855469 32.832031 Z M 0.855469 32.832031 " clip-rule="nonzero"/></clipPath><clipPath id="fdf66d0264"><rect x="0" width="52" y="0" height="44"/></clipPath><clipPath id="b064133ba5"><path d="M 153 0 L 247 0 L 247 74 L 153 74 Z M 153 0 " clip-rule="nonzero"/></clipPath><clipPath id="ef617d8237"><path d="M 150.683594 70.335938 L 170.800781 -3.675781 L 256.398438 19.59375 L 236.277344 93.601562 Z M 150.683594 70.335938 " clip-rule="nonzero"/></clipPath><clipPath id="fcd6e4e146"><path d="M 246.207031 56.5625 C 248.105469 49.578125 245.367188 42.160156 239.386719 38.085938 L 184.957031 1.007812 C 181.957031 -1.035156 178.15625 -1.503906 174.75 -0.246094 C 171.347656 1.011719 168.761719 3.835938 167.808594 7.339844 L 153.675781 59.320312 C 152.726562 62.820312 153.523438 66.566406 155.824219 69.375 C 158.125 72.183594 161.640625 73.703125 165.261719 73.460938 L 230.96875 69.042969 C 238.191406 68.558594 244.308594 63.546875 246.207031 56.5625 Z M 246.207031 56.5625 " clip-rule="nonzero"/></clipPath><clipPath id="62aa56d02b"><path d="M 0 0 L 94 0 L 94 73.921875 L 0 73.921875 Z M 0 0 " clip-rule="nonzero"/></clipPath><clipPath id="55d7c751b4"><path d="M -2.316406 70.335938 L 17.800781 -3.675781 L 103.398438 19.59375 L 83.277344 93.601562 Z M -2.316406 70.335938 " clip-rule="nonzero"/></clipPath><clipPath id="f91c3d4646"><path d="M 93.207031 56.5625 C 95.105469 49.578125 92.367188 42.160156 86.386719 38.085938 L 31.957031 1.007812 C 28.957031 -1.035156 25.15625 -1.503906 21.75 -0.246094 C 18.347656 1.011719 15.761719 3.835938 14.808594 7.339844 L 0.675781 59.320312 C -0.273438 62.820312 0.523438 66.566406 2.824219 69.375 C 5.125 72.183594 8.640625 73.703125 12.261719 73.460938 L 77.96875 69.042969 C 85.191406 68.558594 91.308594 63.546875 93.207031 56.5625 Z M 93.207031 56.5625 " clip-rule="nonzero"/></clipPath><clipPath id="fe1114f29e"><rect x="0" width="94" y="0" height="74"/></clipPath><clipPath id="cea5ee575e"><path d="M 173 87 L 227 87 L 227 139 L 173 139 Z M 173 87 " clip-rule="nonzero"/></clipPath><clipPath id="94ff9429a3"><path d="M 197.109375 143.226562 L 168.503906 108.820312 L 209.855469 74.433594 L 238.464844 108.84375 Z M 197.109375 143.226562 " clip-rule="nonzero"/></clipPath><clipPath id="bc99ee7e0f"><path d="M 224.148438 91.625 C 221.214844 88.09375 216.378906 86.785156 212.0625 88.351562 L 180.332031 99.863281 C 176.941406 101.09375 174.363281 103.898438 173.421875 107.375 C 172.480469 110.855469 173.289062 114.574219 175.59375 117.347656 L 189.996094 134.667969 C 192.300781 137.441406 195.808594 138.917969 199.402344 138.625 C 202.996094 138.335938 206.222656 136.3125 208.050781 133.203125 L 225.164062 104.109375 C 227.492188 100.148438 227.085938 95.15625 224.148438 91.625 Z M 224.148438 91.625 " clip-rule="nonzero"/></clipPath><clipPath id="2063fac514"><path d="M 0 0 L 54 0 L 54 51.960938 L 0 51.960938 Z M 0 0 " clip-rule="nonzero"/></clipPath><clipPath id="340b500567"><path d="M 24.109375 56.226562 L -4.496094 21.820312 L 36.855469 -12.566406 L 65.464844 21.84375 Z M 24.109375 56.226562 " clip-rule="nonzero"/></clipPath><clipPath id="dbffecf955"><path d="M 51.148438 4.625 C 48.214844 1.09375 43.378906 -0.214844 39.0625 1.351562 L 7.332031 12.863281 C 3.941406 14.09375 1.363281 16.898438 0.421875 20.375 C -0.519531 23.855469 0.289062 27.574219 2.59375 30.347656 L 16.996094 47.667969 C 19.300781 50.441406 22.808594 51.917969 26.402344 51.625 C 29.996094 51.335938 33.222656 49.3125 35.050781 46.203125 L 52.164062 17.109375 C 54.492188 13.148438 54.085938 8.15625 51.148438 4.625 Z M 51.148438 4.625 " clip-rule="nonzero"/></clipPath><clipPath id="a77b8c7475"><rect x="0" width="54" y="0" height="52"/></clipPath></defs><g clip-path="url(#445674f378)"><g clip-path="url(#f8b9a51608)"><g clip-path="url(#8df4ab954c)"><path fill="#ff743e" d="M 1392.773438 784.355469 C 1390.972656 784.789062 1389.199219 783.515625 1388.570312 781.859375 C 1388.3125 781.179688 1388.191406 780.453125 1387.972656 779.757812 C 1387.304688 777.484375 1386.453125 775.25 1385.15625 773.257812 C 1382.15625 768.6875 1377.425781 765.3125 1372.105469 764.011719 C 1368.683594 763.1875 1365.125 763.46875 1361.667969 763.945312 C 1361.421875 770.832031 1359.859375 777.765625 1356.386719 783.761719 C 1352.914062 789.757812 1346.78125 795.410156 1339.472656 795.261719 C 1335.757812 795.121094 1331.996094 792.980469 1330.441406 789.527344 C 1329.402344 787.210938 1329.320312 784.597656 1329.675781 782.117188 C 1330.660156 775.691406 1335.085938 770.4375 1339.835938 766.28125 C 1344.011719 762.558594 1348.976562 759.769531 1354.332031 758.15625 C 1353.28125 746.96875 1348.875 736.539062 1337.480469 732.730469 C 1338.105469 740.054688 1333.835938 749.988281 1328.335938 754.765625 C 1322.457031 760.136719 1313.988281 759.949219 1308.519531 754.097656 C 1302.054688 747.425781 1304.835938 736.488281 1310.894531 730.519531 C 1315.457031 726.238281 1321.832031 724.332031 1327.980469 723.96875 C 1326.070312 719.917969 1323.3125 715.863281 1319.734375 713.160156 C 1317.078125 711.398438 1314.023438 709.917969 1310.753906 710.285156 C 1307.644531 710.679688 1304.625 711.8125 1301.863281 713.269531 C 1300.113281 714.359375 1298.4375 715.636719 1297.144531 717.257812 C 1296.675781 717.933594 1296.441406 718.726562 1296.019531 719.425781 C 1294.359375 722.296875 1290.039062 721.519531 1289.667969 718.167969 C 1289.640625 714.03125 1293.027344 710.878906 1296.078125 708.535156 C 1298.914062 706.390625 1302.253906 705.035156 1305.640625 704.03125 C 1307.246094 703.570312 1308.871094 703.183594 1310.546875 703.09375 C 1316.007812 702.671875 1321.308594 705.082031 1325.453125 708.496094 C 1330.3125 712.859375 1333.988281 718.589844 1336.015625 724.792969 C 1352.152344 728.519531 1359.796875 740.917969 1361.421875 756.679688 C 1365.601562 756.167969 1369.894531 755.984375 1374.003906 757.050781 C 1381.445312 758.894531 1388.039062 763.855469 1391.902344 770.46875 C 1393.164062 772.609375 1394.0625 774.941406 1394.769531 777.316406 C 1395.039062 778.292969 1395.382812 779.261719 1395.503906 780.269531 C 1395.683594 782.050781 1394.601562 783.972656 1392.773438 784.355469 Z M 1350.46875 779.566406 C 1352.753906 775.332031 1353.945312 770.566406 1354.320312 765.789062 C 1347.324219 768.199219 1335.15625 777.894531 1336.878906 786.195312 C 1337.21875 787.371094 1338.523438 787.898438 1339.640625 788.035156 C 1341.152344 788.171875 1342.585938 787.527344 1343.863281 786.78125 C 1346.722656 785.074219 1348.894531 782.464844 1350.46875 779.566406 Z M 1325.460938 747.347656 C 1327.019531 745.308594 1327.917969 743.445312 1328.824219 741.179688 C 1330.167969 737.71875 1330.613281 734.890625 1330.125 731.1875 C 1324.769531 731.042969 1318.113281 732.660156 1314.710938 737.085938 C 1312.863281 739.796875 1311.425781 743.25 1312.269531 746.554688 C 1313.132812 749.347656 1315.9375 751.484375 1318.878906 751.457031 C 1321.609375 751.347656 1323.816406 749.359375 1325.460938 747.347656 Z M 1325.460938 747.347656 " fill-opacity="1" fill-rule="nonzero"/></g></g></g><g clip-path="url(#6d6d4c87eb)"><g clip-path="url(#96b822ec2b)"><g clip-path="url(#17383889d8)"><g transform="matrix(1, 0, 0, 1, 1349, 649)"><g clip-path="url(#7b37a393e2)"><g clip-path="url(#3e290cde87)"><g clip-path="url(#055be43aa7)"><g clip-path="url(#cb794442cc)"><path fill="#0cd380" d="M 60.605469 -7.574219 L 86.851562 72.53125 L 14.898438 96.105469 L -11.347656 16 Z M 60.605469 -7.574219 " fill-opacity="1" fill-rule="nonzero"/></g></g></g></g></g></g></g></g><g clip-path="url(#6ec00c96c8)"><g clip-path="url(#0c24bece02)"><g transform="matrix(1, 0, 0, 1, 157, 251)"><g clip-path="url(#f107ef59ae)"><g clip-path="url(#d70ceb22ea)"><g clip-path="url(#00ee80aeb3)"><path fill="#1ca379" d="M 0.3125 0.320312 L 1196.707031 0.320312 L 1196.707031 442.277344 L 0.3125 442.277344 Z M 0.3125 0.320312 " fill-opacity="1" fill-rule="nonzero"/></g></g></g></g></g></g><g clip-path="url(#ac4c4bfd56)"><g clip-path="url(#52857ab3ae)"><g transform="matrix(1, 0, 0, 1, 86, 302)"><g clip-path="url(#d7912da8a7)"><g clip-path="url(#72a9975e0e)"><g clip-path="url(#a672990732)"><path fill="#ffbd59" d="M 0.394531 0.898438 L 1198.515625 0.898438 L 1198.515625 442.855469 L 0.394531 442.855469 Z M 0.394531 0.898438 " fill-opacity="1" fill-rule="nonzero"/></g></g></g></g></g></g><g clip-path="url(#864864194a)"><g clip-path="url(#d7687ffb19)"><g clip-path="url(#5388d8613e)"><g clip-path="url(#c0ed06e0a6)"><path fill="#1ca379" d="M 138.695312 270.707031 C 136.527344 270.59375 134.960938 268.570312 134.8125 266.503906 C 134.75 265.65625 134.859375 264.796875 134.847656 263.945312 C 134.859375 261.167969 134.652344 258.375 133.867188 255.703125 C 132.027344 249.570312 127.847656 244.207031 122.3125 240.976562 C 118.742188 238.910156 114.65625 238.042969 110.613281 237.429688 C 108.027344 245.085938 103.941406 252.351562 98.03125 257.9375 C 92.121094 263.515625 83.335938 267.828125 75.175781 265.230469 C 71.050781 263.835938 67.546875 260.179688 66.957031 255.785156 C 66.566406 252.835938 67.351562 249.871094 68.585938 247.203125 C 71.847656 240.308594 78.578125 235.878906 85.3125 232.792969 C 91.246094 229.996094 97.761719 228.515625 104.316406 228.484375 C 106.890625 215.566406 105.441406 202.382812 93.925781 194.3125 C 92.167969 202.75 84.039062 212.492188 76.261719 216.03125 C 67.855469 220.109375 58.40625 217.078125 54.230469 208.683594 C 49.210938 199.042969 56 187.675781 64.808594 182.988281 C 71.371094 179.695312 79.171875 179.671875 86.195312 181.3125 C 85.410156 176.125 83.671875 170.652344 80.5625 166.425781 C 78.171875 163.5625 75.234375 160.882812 71.441406 160.207031 C 67.816406 159.617188 64.046875 159.886719 60.457031 160.605469 C 58.125 161.246094 55.8125 162.121094 53.816406 163.515625 C 53.066406 164.117188 52.535156 164.929688 51.828125 165.574219 C 49 168.25 44.410156 165.941406 45.117188 162.050781 C 46.476562 157.394531 51.335938 154.976562 55.546875 153.359375 C 59.453125 151.894531 63.660156 151.480469 67.800781 151.480469 C 69.753906 151.5 71.710938 151.605469 73.621094 152.058594 C 79.898438 153.402344 85.042969 157.871094 88.554688 163.085938 C 92.546875 169.605469 94.75 177.265625 94.945312 184.910156 C 111.816406 194.464844 116.238281 210.9375 112.773438 229.183594 C 117.640625 230 122.519531 231.21875 126.78125 233.785156 C 134.515625 238.332031 140.257812 246.101562 142.378906 254.8125 C 143.074219 257.636719 143.300781 260.554688 143.296875 263.460938 C 143.273438 264.648438 143.332031 265.851562 143.132812 267.023438 C 142.738281 269.085938 140.875 270.882812 138.695312 270.707031 Z M 92.792969 251.253906 C 96.777344 247.257812 99.71875 242.300781 101.742188 237.058594 C 93.078125 237.4375 76.160156 244.285156 75.308594 254.179688 C 75.292969 255.617188 76.582031 256.640625 77.789062 257.164062 C 79.441406 257.824219 81.269531 257.574219 82.953125 257.160156 C 86.734375 256.195312 90.050781 253.988281 92.792969 251.253906 Z M 75.523438 206.738281 C 77.953125 204.964844 79.589844 203.171875 81.371094 200.925781 C 84.039062 197.484375 85.488281 194.457031 86.179688 190.136719 C 80.214844 188.191406 72.199219 187.792969 66.890625 191.632812 C 63.90625 194.0625 61.132812 197.464844 60.972656 201.460938 C 61.003906 204.882812 63.4375 208.21875 66.75 209.167969 C 69.851562 209.949219 72.996094 208.453125 75.523438 206.738281 Z M 75.523438 206.738281 " fill-opacity="1" fill-rule="nonzero"/></g></g></g></g><g clip-path="url(#f320bae156)"><g clip-path="url(#8654957545)"><g clip-path="url(#dc986795c3)"><g clip-path="url(#1da2e69d4a)"><path fill="#ff743e" d="M 80.941406 312.105469 C 74.257812 303.707031 66.6875 295.980469 59.769531 287.753906 C 54.625 281.300781 49.667969 274.671875 43.605469 269.027344 C 41.296875 266.527344 36.8125 263.511719 40.222656 259.984375 C 43.847656 256.984375 46.441406 261.371094 48.839844 263.640625 C 54.835938 269.292969 59.980469 275.734375 64.96875 282.273438 C 71.613281 289.941406 78.347656 297.53125 85.085938 305.121094 C 85.816406 305.976562 86.476562 306.839844 87.039062 307.738281 C 89.9375 311.777344 83.894531 316.164062 80.941406 312.105469 Z M 9.480469 311.671875 C 6.503906 310.410156 6.636719 305.785156 9.722656 304.746094 C 12.289062 303.808594 14.535156 306.125 16.867188 306.894531 C 21.519531 309.042969 26.21875 311.078125 30.925781 313.089844 C 44.988281 319.464844 59.511719 325.015625 73.734375 330.566406 L 73.730469 330.566406 C 76.601562 332.960938 74.097656 337.558594 70.527344 336.71875 C 66.804688 335.949219 63.226562 334.257812 59.683594 332.984375 C 42.667969 326.597656 25.984375 319.277344 9.480469 311.671875 Z M 3.6875 362.445312 C 3.425781 360.441406 4.988281 358.5 6.996094 358.300781 C 9.371094 357.96875 11.734375 357.476562 14.132812 357.375 C 20.71875 356.445312 27.335938 355.832031 33.953125 355.191406 C 40.808594 354.394531 47.679688 353.71875 54.554688 353.058594 C 58.34375 352.667969 62.113281 352.105469 65.894531 351.621094 C 67.441406 351.496094 69.070312 351.039062 70.59375 351.472656 C 72.542969 352.003906 73.226562 354.710938 71.6875 356.074219 C 70.8125 356.925781 69.554688 357.140625 68.414062 357.445312 C 58.910156 359.582031 49.171875 360.289062 39.519531 361.480469 C 31.953125 362.515625 24.316406 363.007812 16.785156 364.289062 C 15.28125 364.621094 12.96875 364.882812 11.652344 365.09375 C 8.503906 365.746094 4.464844 366.792969 3.6875 362.445312 Z M 3.6875 362.445312 " fill-opacity="1" fill-rule="nonzero"/></g></g></g></g><g clip-path="url(#1ba4d96a0d)"><g clip-path="url(#c41f74572b)"><g transform="matrix(1, 0, 0, 1, 268, 17)"><g clip-path="url(#75769834f0)"><g clip-path="url(#de3bbb3794)"><g clip-path="url(#496f7fb1ca)"><path fill="#1ca379" d="M 0.691406 0.0976562 L 956.507812 0.0976562 L 956.507812 146.527344 L 0.691406 146.527344 Z M 0.691406 0.0976562 " fill-opacity="1" fill-rule="nonzero"/></g></g></g></g></g></g><g clip-path="url(#ae68e098c5)"><g clip-path="url(#e427b68256)"><g transform="matrix(1, 0, 0, 1, 249, 44)"><g clip-path="url(#9bf8e7a250)"><g clip-path="url(#bc4fd2cf70)"><g clip-path="url(#3d6ecd5c4d)"><path fill="#ffbd59" d="M 0.195312 0.953125 L 953.722656 0.953125 L 953.722656 147.386719 L 0.195312 147.386719 Z M 0.195312 0.953125 " fill-opacity="1" fill-rule="nonzero"/></g></g></g></g></g></g><g clip-path="url(#4b3124c0bb)"><path fill="#ff743e" d="M 291.117188 44.953125 L 249.195312 86.875 L 249.195312 163.523438 L 367.765625 44.953125 Z M 291.117188 44.953125 " fill-opacity="1" fill-rule="nonzero"/></g><g clip-path="url(#a7487f130f)"><path fill="#ff743e" d="M 1164.851562 191.375 L 1202.953125 153.277344 L 1202.953125 83.609375 L 1095.1875 191.375 Z M 1164.851562 191.375 " fill-opacity="1" fill-rule="nonzero"/></g><g clip-path="url(#682673cdd5)"><g clip-path="url(#89051fadc3)"><g clip-path="url(#16fd1cc8f9)"><g transform="matrix(1, 0, 0, 1, 1203, 163)"><g clip-path="url(#664b6e2c6e)"><g clip-path="url(#cf6b690b67)"><g clip-path="url(#4d30a0deef)"><g clip-path="url(#9b784b3925)"><path fill="#d2501e" d="M 90.878906 21.753906 L 37.449219 88.296875 L -22.324219 40.304688 L 31.105469 -26.238281 Z M 90.878906 21.753906 " fill-opacity="1" fill-rule="nonzero"/></g></g></g></g></g></g></g></g><g clip-path="url(#f6e15f2fad)"><g clip-path="url(#901e3d356f)"><g clip-path="url(#9b32bc6f5c)"><g transform="matrix(1, 0, 0, 1, 1231, 115)"><g clip-path="url(#fdf66d0264)"><g clip-path="url(#438207c448)"><g clip-path="url(#942e846612)"><g clip-path="url(#bdcb3d9c0d)"><path fill="#0cd380" d="M 39.917969 -6.636719 L 54.972656 45.234375 L 8.382812 58.757812 L -6.675781 6.890625 Z M 39.917969 -6.636719 " fill-opacity="1" fill-rule="nonzero"/></g></g></g></g></g></g></g></g><g clip-path="url(#b064133ba5)"><g clip-path="url(#ef617d8237)"><g clip-path="url(#fcd6e4e146)"><g transform="matrix(1, 0, 0, 1, 153, 0.000000000000039746)"><g clip-path="url(#fe1114f29e)"><g clip-path="url(#62aa56d02b)"><g clip-path="url(#55d7c751b4)"><g clip-path="url(#f91c3d4646)"><path fill="#d2501e" d="M -3.453125 74.515625 L 18.941406 -7.859375 L 104.535156 15.410156 L 82.140625 97.785156 Z M -3.453125 74.515625 " fill-opacity="1" fill-rule="nonzero"/></g></g></g></g></g></g></g></g><g clip-path="url(#cea5ee575e)"><g clip-path="url(#94ff9429a3)"><g clip-path="url(#bc99ee7e0f)"><g transform="matrix(1, 0, 0, 1, 173, 87)"><g clip-path="url(#a77b8c7475)"><g clip-path="url(#2063fac514)"><g clip-path="url(#340b500567)"><g clip-path="url(#dbffecf955)"><path fill="#0cd380" d="M 27.066406 59.78125 L -7.453125 18.265625 L 33.902344 -16.117188 L 68.417969 25.398438 Z M 27.066406 59.78125 " fill-opacity="1" fill-rule="nonzero"/></g></g></g></g></g></g></g></g></svg>