<svg xmlns="http://www.w3.org/2000/svg" xmlns:xlink="http://www.w3.org/1999/xlink" width="1920" zoomAndPan="magnify" viewBox="0 0 1440 809.999993" height="1080" preserveAspectRatio="xMidYMid meet" version="1.0"><defs><clipPath id="2d93150870"><path d="M 123.714844 81 L 1359 81 L 1359 668.296875 L 123.714844 668.296875 Z M 123.714844 81 " clip-rule="nonzero"/></clipPath><clipPath id="b3c61d4d18"><path d="M 161.964844 81 L 1320.75 81 C 1330.894531 81 1340.625 85.03125 1347.796875 92.203125 C 1354.96875 99.375 1359 109.105469 1359 119.25 L 1359 630.046875 C 1359 640.191406 1354.96875 649.921875 1347.796875 657.09375 C 1340.625 664.269531 1330.894531 668.296875 1320.75 668.296875 L 161.964844 668.296875 C 151.820312 668.296875 142.089844 664.269531 134.917969 657.09375 C 127.746094 649.921875 123.714844 640.191406 123.714844 630.046875 L 123.714844 119.25 C 123.714844 109.105469 127.746094 99.375 134.917969 92.203125 C 142.089844 85.03125 151.820312 81 161.964844 81 Z M 161.964844 81 " clip-rule="nonzero"/></clipPath><clipPath id="246d73784f"><path d="M 0.714844 0 L 1235 0 L 1235 587.296875 L 0.714844 587.296875 Z M 0.714844 0 " clip-rule="nonzero"/></clipPath><clipPath id="889ad35dcf"><path d="M 38.964844 0 L 1197.75 0 C 1207.894531 0 1217.625 4.03125 1224.796875 11.203125 C 1231.96875 18.375 1236 28.105469 1236 38.25 L 1236 549.046875 C 1236 559.191406 1231.96875 568.921875 1224.796875 576.09375 C 1217.625 583.269531 1207.894531 587.296875 1197.75 587.296875 L 38.964844 587.296875 C 28.820312 587.296875 19.089844 583.269531 11.917969 576.09375 C 4.746094 568.921875 0.714844 559.191406 0.714844 549.046875 L 0.714844 38.25 C 0.714844 28.105469 4.746094 18.375 11.917969 11.203125 C 19.089844 4.03125 28.820312 0 38.964844 0 Z M 38.964844 0 " clip-rule="nonzero"/></clipPath><clipPath id="379feb23d0"><rect x="0" width="1236" y="0" height="588"/></clipPath><clipPath id="3ea49c2fe6"><path d="M 90.613281 137.195312 L 1296 137.195312 L 1296 729 L 90.613281 729 Z M 90.613281 137.195312 " clip-rule="nonzero"/></clipPath><clipPath id="70408d8bb0"><path d="M 128.863281 137.195312 L 1257.152344 137.195312 C 1267.296875 137.195312 1277.023438 141.222656 1284.199219 148.398438 C 1291.371094 155.570312 1295.402344 165.300781 1295.402344 175.445312 L 1295.402344 690.75 C 1295.402344 700.894531 1291.371094 710.625 1284.199219 717.796875 C 1277.023438 724.96875 1267.296875 729 1257.152344 729 L 128.863281 729 C 118.71875 729 108.992188 724.96875 101.816406 717.796875 C 94.644531 710.625 90.613281 700.894531 90.613281 690.75 L 90.613281 175.445312 C 90.613281 165.300781 94.644531 155.570312 101.816406 148.398438 C 108.992188 141.222656 118.71875 137.195312 128.863281 137.195312 Z M 128.863281 137.195312 " clip-rule="nonzero"/></clipPath><clipPath id="6e9b980190"><path d="M 0.613281 0.195312 L 1205.519531 0.195312 L 1205.519531 592 L 0.613281 592 Z M 0.613281 0.195312 " clip-rule="nonzero"/></clipPath><clipPath id="c6a9d29b3d"><path d="M 38.863281 0.195312 L 1167.152344 0.195312 C 1177.296875 0.195312 1187.023438 4.222656 1194.199219 11.398438 C 1201.371094 18.570312 1205.402344 28.300781 1205.402344 38.445312 L 1205.402344 553.75 C 1205.402344 563.894531 1201.371094 573.625 1194.199219 580.796875 C 1187.023438 587.96875 1177.296875 592 1167.152344 592 L 38.863281 592 C 28.71875 592 18.992188 587.96875 11.816406 580.796875 C 4.644531 573.625 0.613281 563.894531 0.613281 553.75 L 0.613281 38.445312 C 0.613281 28.300781 4.644531 18.570312 11.816406 11.398438 C 18.992188 4.222656 28.71875 0.195312 38.863281 0.195312 Z M 38.863281 0.195312 " clip-rule="nonzero"/></clipPath><clipPath id="9c6f676c83"><rect x="0" width="1206" y="0" height="592"/></clipPath><clipPath id="920cd72017"><path d="M 32 7 L 117 7 L 117 110 L 32 110 Z M 32 7 " clip-rule="nonzero"/></clipPath><clipPath id="ef9852b361"><path d="M 0.00390625 41.316406 L 52.136719 -3.882812 L 135.167969 91.882812 L 83.03125 137.085938 Z M 0.00390625 41.316406 " clip-rule="nonzero"/></clipPath><clipPath id="2661012226"><path d="M 0.00390625 41.316406 L 52.136719 -3.882812 L 135.167969 91.882812 L 83.03125 137.085938 Z M 0.00390625 41.316406 " clip-rule="nonzero"/></clipPath><clipPath id="8e91fb187c"><path d="M 0.00390625 41.316406 L 52.136719 -3.882812 L 135.167969 91.882812 L 83.03125 137.085938 Z M 0.00390625 41.316406 " clip-rule="nonzero"/></clipPath><clipPath id="db244acf38"><path d="M 1 106 L 81 106 L 81 219 L 1 219 Z M 1 106 " clip-rule="nonzero"/></clipPath><clipPath id="3d20b61f1e"><path d="M 10.734375 101.476562 L 90.464844 115.761719 L 69.964844 230.191406 L -9.765625 215.90625 Z M 10.734375 101.476562 " clip-rule="nonzero"/></clipPath><clipPath id="d34db20bff"><path d="M 10.734375 101.476562 L 90.464844 115.761719 L 69.964844 230.191406 L -9.765625 215.90625 Z M 10.734375 101.476562 " clip-rule="nonzero"/></clipPath><clipPath id="39336076b2"><path d="M 10.734375 101.476562 L 90.464844 115.761719 L 69.964844 230.191406 L -9.765625 215.90625 Z M 10.734375 101.476562 " clip-rule="nonzero"/></clipPath><clipPath id="b5e539a4b0"><path d="M 1296 694 L 1403 694 L 1403 787 L 1296 787 Z M 1296 694 " clip-rule="nonzero"/></clipPath><clipPath id="5fa2a8dd02"><path d="M 1273.144531 742.160156 L 1309.824219 684.601562 L 1416.078125 752.320312 L 1379.398438 809.875 Z M 1273.144531 742.160156 " clip-rule="nonzero"/></clipPath><clipPath id="5c8f765d5d"><path d="M 1273.144531 742.160156 L 1309.824219 684.601562 L 1416.078125 752.320312 L 1379.398438 809.875 Z M 1273.144531 742.160156 " clip-rule="nonzero"/></clipPath><clipPath id="810f705ea6"><path d="M 1354 624 L 1436 624 L 1436 696 L 1354 696 Z M 1354 624 " clip-rule="nonzero"/></clipPath><clipPath id="be77138ce1"><path d="M 1415.308594 621.226562 L 1438.421875 691.773438 L 1366.46875 715.347656 L 1343.355469 644.800781 Z M 1415.308594 621.226562 " clip-rule="nonzero"/></clipPath><clipPath id="0fa77abc40"><path d="M 1354.917969 680.089844 C 1357.164062 686.941406 1363.359375 691.738281 1370.558594 692.191406 L 1424.277344 695.582031 C 1427.8125 695.808594 1431.226562 694.265625 1433.390625 691.464844 C 1435.558594 688.664062 1436.195312 684.972656 1435.09375 681.609375 L 1418.644531 631.414062 C 1417.542969 628.050781 1414.84375 625.453125 1411.441406 624.476562 C 1408.039062 623.503906 1404.375 624.277344 1401.660156 626.550781 L 1360.359375 661.074219 C 1354.828125 665.703125 1352.671875 673.234375 1354.917969 680.089844 Z M 1354.917969 680.089844 " clip-rule="nonzero"/></clipPath><clipPath id="c1051cc15d"><path d="M 0 0 L 82 0 L 82 72 L 0 72 Z M 0 0 " clip-rule="nonzero"/></clipPath><clipPath id="6e7ce3154d"><path d="M 61.308594 -2.773438 L 84.421875 67.773438 L 12.46875 91.347656 L -10.644531 20.800781 Z M 61.308594 -2.773438 " clip-rule="nonzero"/></clipPath><clipPath id="38bfcb8d5e"><path d="M 0.917969 56.089844 C 3.164062 62.941406 9.359375 67.738281 16.558594 68.191406 L 70.277344 71.582031 C 73.8125 71.808594 77.226562 70.265625 79.390625 67.464844 C 81.558594 64.664062 82.195312 60.972656 81.09375 57.609375 L 64.644531 7.414062 C 63.542969 4.050781 60.84375 1.453125 57.441406 0.476562 C 54.039062 -0.496094 50.375 0.277344 47.660156 2.550781 L 6.359375 37.074219 C 0.828125 41.703125 -1.328125 49.234375 0.917969 56.089844 Z M 0.917969 56.089844 " clip-rule="nonzero"/></clipPath><clipPath id="ad496015c0"><rect x="0" width="82" y="0" height="72"/></clipPath><clipPath id="0f3def3b22"><path d="M 5 681 L 85 681 L 85 757 L 5 757 Z M 5 681 " clip-rule="nonzero"/></clipPath><clipPath id="f4042729fe"><path d="M 15.957031 758.078125 L 3.90625 683.640625 L 77.769531 671.679688 L 89.820312 746.117188 Z M 15.957031 758.078125 " clip-rule="nonzero"/></clipPath><clipPath id="0e2f7399c4"><path d="M 83.789062 708.871094 C 82.621094 701.648438 77.207031 695.847656 70.078125 694.1875 L 18.730469 682.222656 C 15.300781 681.425781 11.699219 682.386719 9.125 684.789062 C 6.550781 687.191406 5.347656 690.71875 5.910156 694.195312 L 14.519531 747.371094 C 15.082031 750.847656 17.339844 753.8125 20.539062 755.28125 C 23.738281 756.75 27.460938 756.527344 30.464844 754.6875 L 75.414062 727.128906 C 81.652344 723.304688 84.960938 716.09375 83.789062 708.871094 Z M 83.789062 708.871094 " clip-rule="nonzero"/></clipPath><clipPath id="e236bf3f60"><path d="M 0.28125 0.359375 L 79.960938 0.359375 L 79.960938 75.960938 L 0.28125 75.960938 Z M 0.28125 0.359375 " clip-rule="nonzero"/></clipPath><clipPath id="fd74a2273f"><path d="M 10.957031 77.078125 L -1.09375 2.640625 L 72.769531 -9.320312 L 84.820312 65.117188 Z M 10.957031 77.078125 " clip-rule="nonzero"/></clipPath><clipPath id="58e885a3d7"><path d="M 78.789062 27.871094 C 77.621094 20.648438 72.207031 14.847656 65.078125 13.1875 L 13.730469 1.222656 C 10.300781 0.425781 6.699219 1.386719 4.125 3.789062 C 1.550781 6.191406 0.347656 9.71875 0.910156 13.195312 L 9.519531 66.371094 C 10.082031 69.847656 12.339844 72.8125 15.539062 74.28125 C 18.738281 75.75 22.460938 75.527344 25.464844 73.6875 L 70.414062 46.128906 C 76.652344 42.304688 79.960938 35.09375 78.789062 27.871094 Z M 78.789062 27.871094 " clip-rule="nonzero"/></clipPath><clipPath id="15c57e7842"><rect x="0" width="80" y="0" height="76"/></clipPath><clipPath id="bfdd67c576"><path d="M 58 724 L 102 724 L 102 777 L 58 777 Z M 58 724 " clip-rule="nonzero"/></clipPath><clipPath id="6a69a77e61"><path d="M 96.953125 779.6875 L 55.515625 763.003906 L 73.84375 717.476562 L 115.28125 734.160156 Z M 96.953125 779.6875 " clip-rule="nonzero"/></clipPath><clipPath id="66bf18e7fe"><path d="M 94.554688 725.816406 C 90.21875 724.070312 85.253906 725.140625 82.027344 728.523438 L 61.753906 749.746094 C 59.3125 752.304688 58.292969 755.910156 59.042969 759.371094 C 59.789062 762.832031 62.203125 765.695312 65.488281 767.019531 L 86.96875 775.664062 C 90.25 776.988281 93.976562 776.59375 96.914062 774.617188 C 99.851562 772.640625 101.613281 769.335938 101.625 765.796875 L 101.714844 736.449219 C 101.730469 731.773438 98.894531 727.5625 94.554688 725.816406 Z M 94.554688 725.816406 " clip-rule="nonzero"/></clipPath><clipPath id="4f450ff51e"><path d="M 0.078125 0 L 43.761719 0 L 43.761719 53 L 0.078125 53 Z M 0.078125 0 " clip-rule="nonzero"/></clipPath><clipPath id="eec6636688"><path d="M 38.953125 55.6875 L -2.484375 39.003906 L 15.84375 -6.523438 L 57.28125 10.160156 Z M 38.953125 55.6875 " clip-rule="nonzero"/></clipPath><clipPath id="f506713ffc"><path d="M 36.554688 1.816406 C 32.21875 0.0703125 27.253906 1.140625 24.027344 4.523438 L 3.753906 25.746094 C 1.3125 28.304688 0.292969 31.910156 1.042969 35.371094 C 1.789062 38.832031 4.203125 41.695312 7.488281 43.019531 L 28.96875 51.664062 C 32.25 52.988281 35.976562 52.59375 38.914062 50.617188 C 41.851562 48.640625 43.613281 45.335938 43.625 41.796875 L 43.714844 12.449219 C 43.730469 7.773438 40.894531 3.5625 36.554688 1.816406 Z M 36.554688 1.816406 " clip-rule="nonzero"/></clipPath><clipPath id="c775c21ad9"><rect x="0" width="44" y="0" height="53"/></clipPath><clipPath id="187f70cbc7"><path d="M 1300 4 L 1410 4 L 1410 86 L 1300 86 Z M 1300 4 " clip-rule="nonzero"/></clipPath><clipPath id="bf3bdc0428"><path d="M 1416.335938 25.769531 L 1387.171875 101.335938 L 1278.71875 59.480469 L 1307.882812 -16.085938 Z M 1416.335938 25.769531 " clip-rule="nonzero"/></clipPath><clipPath id="69afd48b69"><path d="M 1416.335938 25.769531 L 1387.171875 101.335938 L 1278.71875 59.480469 L 1307.882812 -16.085938 Z M 1416.335938 25.769531 " clip-rule="nonzero"/></clipPath><clipPath id="37df5911ae"><path d="M 1373 85 L 1433 85 L 1433 139 L 1373 139 Z M 1373 85 " clip-rule="nonzero"/></clipPath><clipPath id="bbebe41990"><path d="M 1435.03125 88.714844 L 1421.171875 141.082031 L 1366.898438 126.71875 L 1380.757812 74.351562 Z M 1435.03125 88.714844 " clip-rule="nonzero"/></clipPath><clipPath id="f05866edc8"><path d="M 1373.820312 100.558594 C 1372.410156 105.882812 1374.359375 111.535156 1378.753906 114.863281 L 1407.316406 136.492188 C 1410.121094 138.621094 1413.804688 139.207031 1417.132812 138.058594 C 1420.460938 136.910156 1423 134.179688 1423.902344 130.777344 L 1432.292969 99.066406 C 1433.195312 95.660156 1432.339844 92.03125 1430.011719 89.390625 C 1427.6875 86.746094 1424.199219 85.433594 1420.707031 85.894531 L 1385.183594 90.5625 C 1379.71875 91.28125 1375.230469 95.230469 1373.820312 100.558594 Z M 1373.820312 100.558594 " clip-rule="nonzero"/></clipPath><clipPath id="d538bcf2b7"><path d="M 0 0.199219 L 60 0.199219 L 60 54 L 0 54 Z M 0 0.199219 " clip-rule="nonzero"/></clipPath><clipPath id="af52d995d6"><path d="M 62.03125 3.714844 L 48.171875 56.082031 L -6.101562 41.71875 L 7.757812 -10.648438 Z M 62.03125 3.714844 " clip-rule="nonzero"/></clipPath><clipPath id="faaf5171ba"><path d="M 0.820312 15.558594 C -0.589844 20.882812 1.359375 26.535156 5.753906 29.863281 L 34.316406 51.492188 C 37.121094 53.621094 40.804688 54.207031 44.132812 53.058594 C 47.460938 51.910156 50 49.179688 50.902344 45.777344 L 59.292969 14.066406 C 60.195312 10.660156 59.339844 7.03125 57.011719 4.390625 C 54.6875 1.746094 51.199219 0.433594 47.707031 0.894531 L 12.183594 5.5625 C 6.71875 6.28125 2.230469 10.230469 0.820312 15.558594 Z M 0.820312 15.558594 " clip-rule="nonzero"/></clipPath><clipPath id="9a2ba2a353"><rect x="0" width="60" y="0" height="54"/></clipPath></defs><g clip-path="url(#2d93150870)"><g clip-path="url(#b3c61d4d18)"><g transform="matrix(1, 0, 0, 1, 123, 81)"><g clip-path="url(#379feb23d0)"><g clip-path="url(#246d73784f)"><g clip-path="url(#889ad35dcf)"><path fill="#1ca379" d="M 0.714844 0 L 1234.960938 0 L 1234.960938 587.296875 L 0.714844 587.296875 Z M 0.714844 0 " fill-opacity="1" fill-rule="nonzero"/></g></g></g></g></g></g><g clip-path="url(#3ea49c2fe6)"><g clip-path="url(#70408d8bb0)"><g transform="matrix(1, 0, 0, 1, 90, 137)"><g clip-path="url(#9c6f676c83)"><g clip-path="url(#6e9b980190)"><g clip-path="url(#c6a9d29b3d)"><path fill="#ffbd59" d="M 0.613281 0.195312 L 1205.03125 0.195312 L 1205.03125 592 L 0.613281 592 Z M 0.613281 0.195312 " fill-opacity="1" fill-rule="nonzero"/></g></g></g></g></g></g><g clip-path="url(#920cd72017)"><g clip-path="url(#ef9852b361)"><g clip-path="url(#2661012226)"><g clip-path="url(#8e91fb187c)"><path fill="#1ca379" d="M 112.546875 109.621094 C 110.6875 109.527344 109.34375 107.792969 109.214844 106.019531 C 109.164062 105.289062 109.257812 104.550781 109.25 103.820312 C 109.261719 101.4375 109.085938 99.035156 108.414062 96.742188 C 106.839844 91.480469 103.253906 86.875 98.503906 84.109375 C 95.4375 82.335938 91.925781 81.597656 88.457031 81.074219 C 86.226562 87.648438 82.710938 93.894531 77.628906 98.695312 C 72.546875 103.492188 64.996094 107.203125 57.988281 104.976562 C 54.449219 103.785156 51.441406 100.648438 50.9375 96.875 C 50.605469 94.34375 51.28125 91.796875 52.347656 89.503906 C 55.152344 83.582031 60.941406 79.773438 66.726562 77.113281 C 71.828125 74.707031 77.421875 73.429688 83.054688 73.394531 C 85.277344 62.300781 84.046875 50.980469 74.164062 44.0625 C 72.644531 51.308594 65.652344 59.683594 58.96875 62.726562 C 51.742188 66.238281 43.628906 63.644531 40.046875 56.441406 C 35.746094 48.164062 41.589844 38.398438 49.160156 34.363281 C 54.800781 31.53125 61.5 31.503906 67.53125 32.902344 C 66.863281 28.449219 65.375 23.753906 62.707031 20.125 C 60.65625 17.667969 58.136719 15.371094 54.878906 14.792969 C 51.765625 14.292969 48.527344 14.523438 45.441406 15.144531 C 43.4375 15.699219 41.453125 16.453125 39.738281 17.652344 C 39.089844 18.167969 38.632812 18.867188 38.023438 19.421875 C 35.59375 21.722656 31.652344 19.742188 32.265625 16.402344 C 33.433594 12.402344 37.613281 10.320312 41.230469 8.929688 C 44.585938 7.667969 48.203125 7.308594 51.757812 7.304688 C 53.4375 7.316406 55.117188 7.40625 56.761719 7.792969 C 62.148438 8.945312 66.5625 12.777344 69.574219 17.253906 C 73 22.84375 74.882812 29.421875 75.046875 35.984375 C 89.53125 44.175781 93.3125 58.316406 90.320312 73.988281 C 94.496094 74.683594 98.691406 75.726562 102.347656 77.929688 C 108.988281 81.824219 113.914062 88.492188 115.726562 95.972656 C 116.320312 98.394531 116.515625 100.902344 116.507812 103.398438 C 116.488281 104.417969 116.535156 105.449219 116.363281 106.457031 C 116.023438 108.226562 114.421875 109.773438 112.546875 109.621094 Z M 73.136719 92.960938 C 76.5625 89.523438 79.09375 85.265625 80.835938 80.761719 C 73.390625 81.097656 58.851562 86.992188 58.113281 95.492188 C 58.097656 96.722656 59.203125 97.601562 60.242188 98.050781 C 61.660156 98.613281 63.230469 98.398438 64.675781 98.042969 C 67.925781 97.210938 70.777344 95.308594 73.136719 92.960938 Z M 58.34375 54.75 C 60.433594 53.222656 61.835938 51.683594 63.371094 49.753906 C 65.667969 46.796875 66.914062 44.191406 67.511719 40.480469 C 62.390625 38.816406 55.503906 38.480469 50.941406 41.785156 C 48.375 43.875 45.988281 46.800781 45.847656 50.230469 C 45.871094 53.171875 47.960938 56.03125 50.800781 56.84375 C 53.46875 57.511719 56.167969 56.222656 58.34375 54.75 Z M 58.34375 54.75 " fill-opacity="1" fill-rule="nonzero"/></g></g></g></g><g clip-path="url(#db244acf38)"><g clip-path="url(#3d20b61f1e)"><g clip-path="url(#d34db20bff)"><g clip-path="url(#39336076b2)"><path fill="#ff743e" d="M 73.785156 148.089844 C 65.226562 141.609375 55.976562 136 47.234375 129.742188 C 40.652344 124.769531 34.207031 119.574219 26.933594 115.609375 C 24.078125 113.757812 18.988281 111.949219 21.414062 107.6875 C 24.183594 103.878906 27.785156 107.488281 30.671875 109.09375 C 37.882812 113.082031 44.460938 118.046875 50.914062 123.144531 C 59.253906 128.929688 67.660156 134.613281 76.070312 140.296875 C 76.988281 140.941406 77.84375 141.617188 78.609375 142.34375 C 82.417969 145.542969 77.652344 151.289062 73.785156 148.089844 Z M 4.445312 165.378906 C 1.25 164.894531 0.230469 160.378906 2.960938 158.609375 C 5.21875 157.066406 7.96875 158.753906 10.417969 158.921875 C 15.453125 159.851562 20.511719 160.65625 25.574219 161.4375 C 40.773438 164.128906 56.222656 165.910156 71.378906 167.761719 L 71.375 167.761719 C 74.746094 169.371094 73.460938 174.445312 69.792969 174.515625 C 66 174.691406 62.113281 173.941406 58.363281 173.585938 C 40.296875 171.613281 22.320312 168.65625 4.445312 165.378906 Z M 11.417969 216.007812 C 10.664062 214.128906 11.699219 211.863281 13.59375 211.171875 C 15.8125 210.261719 17.980469 209.195312 20.28125 208.503906 C 26.429688 205.972656 32.6875 203.738281 38.9375 201.476562 C 45.382812 199.007812 51.875 196.648438 58.371094 194.308594 C 61.945312 192.988281 65.457031 191.507812 69 190.101562 C 70.464844 189.597656 71.929688 188.75 73.515625 188.792969 C 75.539062 188.824219 76.871094 191.277344 75.71875 192.976562 C 75.078125 194.023438 73.914062 194.542969 72.886719 195.121094 C 64.203125 199.542969 54.945312 202.644531 45.890625 206.191406 C 38.816406 209.066406 31.539062 211.4375 24.5625 214.546875 C 23.1875 215.242188 21.011719 216.066406 19.789062 216.597656 C 16.898438 218.011719 13.25 220.023438 11.417969 216.007812 Z M 11.417969 216.007812 " fill-opacity="1" fill-rule="nonzero"/></g></g></g></g><g clip-path="url(#b5e539a4b0)"><g clip-path="url(#5fa2a8dd02)"><g clip-path="url(#5c8f765d5d)"><path fill="#ff743e" d="M 1399.863281 775.5625 C 1398.0625 775.996094 1396.289062 774.722656 1395.660156 773.070312 C 1395.402344 772.390625 1395.28125 771.660156 1395.0625 770.964844 C 1394.394531 768.695312 1393.542969 766.457031 1392.246094 764.464844 C 1389.246094 759.898438 1384.515625 756.519531 1379.195312 755.222656 C 1375.773438 754.398438 1372.214844 754.675781 1368.757812 755.15625 C 1368.511719 762.039062 1366.949219 768.972656 1363.476562 774.96875 C 1360.003906 780.964844 1353.871094 786.621094 1346.5625 786.46875 C 1342.847656 786.328125 1339.085938 784.1875 1337.527344 780.738281 C 1336.492188 778.417969 1336.40625 775.804688 1336.765625 773.324219 C 1337.75 766.898438 1342.175781 761.644531 1346.925781 757.492188 C 1351.101562 753.765625 1356.066406 750.976562 1361.421875 749.363281 C 1360.371094 738.179688 1355.964844 727.75 1344.570312 723.9375 C 1345.195312 731.261719 1340.925781 741.199219 1335.425781 745.976562 C 1329.546875 751.347656 1321.078125 751.15625 1315.609375 745.304688 C 1309.144531 738.632812 1311.925781 727.695312 1317.984375 721.726562 C 1322.546875 717.445312 1328.921875 715.539062 1335.070312 715.175781 C 1333.160156 711.125 1330.402344 707.074219 1326.824219 704.367188 C 1324.167969 702.605469 1321.113281 701.125 1317.84375 701.492188 C 1314.734375 701.890625 1311.714844 703.019531 1308.953125 704.476562 C 1307.203125 705.570312 1305.527344 706.84375 1304.234375 708.46875 C 1303.765625 709.140625 1303.53125 709.933594 1303.109375 710.632812 C 1301.449219 713.507812 1297.128906 712.726562 1296.757812 709.375 C 1296.730469 705.238281 1300.117188 702.085938 1303.167969 699.742188 C 1306.003906 697.601562 1309.34375 696.242188 1312.730469 695.242188 C 1314.335938 694.78125 1315.960938 694.394531 1317.636719 694.300781 C 1323.097656 693.882812 1328.398438 696.289062 1332.542969 699.703125 C 1337.402344 704.066406 1341.078125 709.796875 1343.105469 716 C 1359.242188 719.726562 1366.886719 732.125 1368.507812 747.886719 C 1372.691406 747.375 1376.984375 747.191406 1381.09375 748.257812 C 1388.535156 750.101562 1395.128906 755.0625 1398.992188 761.675781 C 1400.253906 763.816406 1401.152344 766.148438 1401.859375 768.523438 C 1402.128906 769.5 1402.472656 770.472656 1402.59375 771.480469 C 1402.773438 773.257812 1401.691406 775.179688 1399.863281 775.5625 Z M 1357.558594 770.777344 C 1359.84375 766.542969 1361.035156 761.777344 1361.410156 757 C 1354.414062 759.40625 1342.246094 769.105469 1343.96875 777.402344 C 1344.308594 778.582031 1345.613281 779.105469 1346.730469 779.242188 C 1348.242188 779.378906 1349.675781 778.734375 1350.953125 777.988281 C 1353.8125 776.285156 1355.984375 773.675781 1357.558594 770.777344 Z M 1332.550781 738.554688 C 1334.109375 736.515625 1335.007812 734.652344 1335.914062 732.386719 C 1337.257812 728.925781 1337.703125 726.097656 1337.214844 722.398438 C 1331.859375 722.25 1325.203125 723.867188 1321.796875 728.292969 C 1319.953125 731.003906 1318.515625 734.457031 1319.359375 737.761719 C 1320.222656 740.554688 1323.027344 742.691406 1325.96875 742.664062 C 1328.699219 742.554688 1330.90625 740.570312 1332.550781 738.554688 Z M 1332.550781 738.554688 " fill-opacity="1" fill-rule="nonzero"/></g></g></g><g clip-path="url(#810f705ea6)"><g clip-path="url(#be77138ce1)"><g clip-path="url(#0fa77abc40)"><g transform="matrix(1, 0, 0, 1, 1354, 624)"><g clip-path="url(#ad496015c0)"><g clip-path="url(#c1051cc15d)"><g clip-path="url(#6e7ce3154d)"><g clip-path="url(#38bfcb8d5e)"><path fill="#0cd380" d="M 59.742188 -7.554688 L 85.988281 72.550781 L 14.035156 96.128906 L -12.210938 16.023438 Z M 59.742188 -7.554688 " fill-opacity="1" fill-rule="nonzero"/></g></g></g></g></g></g></g></g><g clip-path="url(#0f3def3b22)"><g clip-path="url(#f4042729fe)"><g clip-path="url(#0e2f7399c4)"><g transform="matrix(1, 0, 0, 1, 5, 681)"><g clip-path="url(#15c57e7842)"><g clip-path="url(#e236bf3f60)"><g clip-path="url(#fd74a2273f)"><g clip-path="url(#58e885a3d7)"><path fill="#d2501e" d="M 12.035156 81.917969 L -1.597656 -2.292969 L 71.976562 -14.207031 L 85.613281 70.003906 Z M 12.035156 81.917969 " fill-opacity="1" fill-rule="nonzero"/></g></g></g></g></g></g></g></g><g clip-path="url(#bfdd67c576)"><g clip-path="url(#6a69a77e61)"><g clip-path="url(#66bf18e7fe)"><g transform="matrix(1, 0, 0, 1, 58, 724)"><g clip-path="url(#c775c21ad9)"><g clip-path="url(#4f450ff51e)"><g clip-path="url(#eec6636688)"><g clip-path="url(#f506713ffc)"><path fill="#0cd380" d="M 43.578125 57.546875 L -7.105469 37.144531 L 11.222656 -8.382812 L 61.90625 12.019531 Z M 43.578125 57.546875 " fill-opacity="1" fill-rule="nonzero"/></g></g></g></g></g></g></g></g><g clip-path="url(#187f70cbc7)"><g clip-path="url(#bf3bdc0428)"><g clip-path="url(#69afd48b69)"><path fill="#1ca379" d="M 1358.476562 78.902344 C 1366.480469 71.722656 1373.761719 63.691406 1381.578125 56.285156 C 1387.722656 50.761719 1394.0625 45.40625 1399.347656 39.011719 C 1401.710938 36.554688 1404.460938 31.890625 1408.195312 35.09375 C 1411.414062 38.539062 1407.175781 41.398438 1405.050781 43.925781 C 1399.753906 50.261719 1393.613281 55.785156 1387.371094 61.164062 C 1380.09375 68.261719 1372.902344 75.449219 1365.710938 82.636719 C 1364.902344 83.414062 1364.074219 84.128906 1363.210938 84.746094 C 1359.339844 87.882812 1354.589844 82.097656 1358.476562 78.902344 Z M 1354.640625 7.414062 C 1355.726562 4.363281 1360.363281 4.222656 1361.585938 7.242188 C 1362.675781 9.753906 1360.492188 12.140625 1359.859375 14.515625 C 1357.992188 19.292969 1356.234375 24.117188 1354.503906 28.945312 C 1348.964844 43.382812 1344.277344 58.238281 1339.574219 72.789062 C 1337.351562 75.796875 1332.601562 73.566406 1333.226562 69.945312 C 1333.777344 66.179688 1335.253906 62.5 1336.316406 58.882812 C 1341.691406 41.484375 1348.019531 24.367188 1354.640625 7.414062 Z M 1303.492188 4.628906 C 1305.484375 4.246094 1307.515625 5.691406 1307.839844 7.6875 C 1308.3125 10.046875 1308.945312 12.378906 1309.191406 14.773438 C 1310.515625 21.300781 1311.523438 27.886719 1312.558594 34.464844 C 1313.765625 41.273438 1314.851562 48.105469 1315.921875 54.941406 C 1316.542969 58.707031 1317.328125 62.445312 1318.039062 66.195312 C 1318.257812 67.734375 1318.8125 69.335938 1318.46875 70.886719 C 1318.054688 72.871094 1315.386719 73.714844 1313.933594 72.257812 C 1313.027344 71.429688 1312.734375 70.183594 1312.363281 69.0625 C 1309.660156 59.683594 1308.367188 49.984375 1306.597656 40.40625 C 1305.113281 32.898438 1304.164062 25.289062 1302.433594 17.835938 C 1302.007812 16.351562 1301.609375 14.054688 1301.320312 12.75 C 1300.480469 9.636719 1299.191406 5.664062 1303.492188 4.628906 Z M 1303.492188 4.628906 " fill-opacity="1" fill-rule="nonzero"/></g></g></g><g clip-path="url(#37df5911ae)"><g clip-path="url(#bbebe41990)"><g clip-path="url(#f05866edc8)"><g transform="matrix(1, 0, 0, 1, 1373, 85)"><g clip-path="url(#9a2ba2a353)"><g clip-path="url(#d538bcf2b7)"><g clip-path="url(#af52d995d6)"><g clip-path="url(#faaf5171ba)"><path fill="#d2501e" d="M 63.324219 -1.160156 L 46.882812 60.960938 L -7.394531 46.59375 L 9.046875 -15.523438 Z M 63.324219 -1.160156 " fill-opacity="1" fill-rule="nonzero"/></g></g></g></g></g></g></g></g></svg>