<svg xmlns="http://www.w3.org/2000/svg" xmlns:xlink="http://www.w3.org/1999/xlink" width="1920" zoomAndPan="magnify" viewBox="0 0 1440 809.999993" height="1080" preserveAspectRatio="xMidYMid meet" version="1.0"><defs><clipPath id="3be37cbfcd"><path d="M 1274 731 L 1375 731 L 1375 810 L 1274 810 Z M 1274 731 " clip-rule="nonzero"/></clipPath><clipPath id="e6adb8dc44"><path d="M 1252.613281 776.25 L 1287.28125 721.859375 L 1387.210938 785.542969 L 1352.546875 839.9375 Z M 1252.613281 776.25 " clip-rule="nonzero"/></clipPath><clipPath id="fc2b8e327d"><path d="M 1252.613281 776.25 L 1287.28125 721.859375 L 1387.210938 785.542969 L 1352.546875 839.9375 Z M 1252.613281 776.25 " clip-rule="nonzero"/></clipPath><clipPath id="6766db4d93"><path d="M 1313 664 L 1391 664 L 1391 731 L 1313 731 Z M 1313 664 " clip-rule="nonzero"/></clipPath><clipPath id="2dbe8f645d"><path d="M 1371.550781 661.253906 L 1393.121094 727.082031 L 1325.445312 749.257812 L 1303.875 683.429688 Z M 1371.550781 661.253906 " clip-rule="nonzero"/></clipPath><clipPath id="a79f48351d"><path d="M 1314.664062 716.355469 C 1316.777344 722.800781 1322.601562 727.3125 1329.375 727.738281 L 1378.96875 730.871094 C 1382.503906 731.09375 1385.917969 729.550781 1388.082031 726.75 C 1390.25 723.953125 1390.886719 720.261719 1389.785156 716.894531 L 1374.898438 671.460938 C 1373.796875 668.097656 1371.097656 665.5 1367.695312 664.527344 C 1364.289062 663.550781 1360.625 664.328125 1357.910156 666.597656 L 1319.785156 698.472656 C 1314.578125 702.824219 1312.550781 709.90625 1314.664062 716.355469 Z M 1314.664062 716.355469 " clip-rule="nonzero"/></clipPath><clipPath id="01af2b214e"><path d="M 0 0 L 78 0 L 78 67 L 0 67 Z M 0 0 " clip-rule="nonzero"/></clipPath><clipPath id="aa28726db9"><path d="M 58.550781 -2.746094 L 80.121094 63.082031 L 12.445312 85.257812 L -9.125 19.429688 Z M 58.550781 -2.746094 " clip-rule="nonzero"/></clipPath><clipPath id="8ad43b870a"><path d="M 1.664062 52.355469 C 3.777344 58.800781 9.601562 63.3125 16.375 63.738281 L 65.96875 66.871094 C 69.503906 67.09375 72.917969 65.550781 75.082031 62.75 C 77.25 59.953125 77.886719 56.261719 76.785156 52.894531 L 61.898438 7.460938 C 60.796875 4.097656 58.097656 1.5 54.695312 0.527344 C 51.289062 -0.449219 47.625 0.328125 44.910156 2.597656 L 6.785156 34.472656 C 1.578125 38.824219 -0.449219 45.90625 1.664062 52.355469 Z M 1.664062 52.355469 " clip-rule="nonzero"/></clipPath><clipPath id="6fb91b02f4"><rect x="0" width="78" y="0" height="67"/></clipPath><clipPath id="a95891c6bb"><path d="M 177.121094 389.617188 L 1291.144531 389.617188 L 1291.144531 722.003906 L 177.121094 722.003906 Z M 177.121094 389.617188 " clip-rule="nonzero"/></clipPath><clipPath id="2e881f65aa"><path d="M 215.371094 389.617188 L 1252.851562 389.617188 C 1262.996094 389.617188 1272.726562 393.644531 1279.898438 400.820312 C 1287.070312 407.992188 1291.101562 417.722656 1291.101562 427.867188 L 1291.101562 683.753906 C 1291.101562 693.898438 1287.070312 703.628906 1279.898438 710.800781 C 1272.726562 717.976562 1262.996094 722.003906 1252.851562 722.003906 L 215.371094 722.003906 C 205.226562 722.003906 195.496094 717.976562 188.324219 710.800781 C 181.148438 703.628906 177.121094 693.898438 177.121094 683.753906 L 177.121094 427.867188 C 177.121094 417.722656 181.148438 407.992188 188.324219 400.820312 C 195.496094 393.644531 205.226562 389.617188 215.371094 389.617188 Z M 215.371094 389.617188 " clip-rule="nonzero"/></clipPath><clipPath id="01f7c5f087"><path d="M 0.121094 0.617188 L 1114.144531 0.617188 L 1114.144531 333.003906 L 0.121094 333.003906 Z M 0.121094 0.617188 " clip-rule="nonzero"/></clipPath><clipPath id="f8da49d2f0"><path d="M 38.371094 0.617188 L 1075.851562 0.617188 C 1085.996094 0.617188 1095.726562 4.644531 1102.898438 11.820312 C 1110.070312 18.992188 1114.101562 28.722656 1114.101562 38.867188 L 1114.101562 294.753906 C 1114.101562 304.898438 1110.070312 314.628906 1102.898438 321.800781 C 1095.726562 328.976562 1085.996094 333.003906 1075.851562 333.003906 L 38.371094 333.003906 C 28.226562 333.003906 18.496094 328.976562 11.324219 321.800781 C 4.148438 314.628906 0.121094 304.898438 0.121094 294.753906 L 0.121094 38.867188 C 0.121094 28.722656 4.148438 18.992188 11.324219 11.820312 C 18.496094 4.644531 28.226562 0.617188 38.371094 0.617188 Z M 38.371094 0.617188 " clip-rule="nonzero"/></clipPath><clipPath id="548367c573"><rect x="0" width="1115" y="0" height="334"/></clipPath><clipPath id="8a4426c707"><path d="M 155.601562 419.511719 L 1263.65625 419.511719 L 1263.65625 763.761719 L 155.601562 763.761719 Z M 155.601562 419.511719 " clip-rule="nonzero"/></clipPath><clipPath id="19a8beeaee"><path d="M 193.851562 419.511719 L 1225 419.511719 C 1235.144531 419.511719 1244.871094 423.539062 1252.046875 430.714844 C 1259.21875 437.886719 1263.25 447.617188 1263.25 457.761719 L 1263.25 725.511719 C 1263.25 735.65625 1259.21875 745.382812 1252.046875 752.558594 C 1244.871094 759.730469 1235.144531 763.761719 1225 763.761719 L 193.851562 763.761719 C 183.707031 763.761719 173.976562 759.730469 166.804688 752.558594 C 159.632812 745.382812 155.601562 735.65625 155.601562 725.511719 L 155.601562 457.761719 C 155.601562 447.617188 159.632812 437.886719 166.804688 430.714844 C 173.976562 423.539062 183.707031 419.511719 193.851562 419.511719 Z M 193.851562 419.511719 " clip-rule="nonzero"/></clipPath><clipPath id="2f92526cd9"><path d="M 0.601562 0.511719 L 1108.359375 0.511719 L 1108.359375 344.761719 L 0.601562 344.761719 Z M 0.601562 0.511719 " clip-rule="nonzero"/></clipPath><clipPath id="b4444f9b3b"><path d="M 38.851562 0.511719 L 1070 0.511719 C 1080.144531 0.511719 1089.871094 4.539062 1097.046875 11.714844 C 1104.21875 18.886719 1108.25 28.617188 1108.25 38.761719 L 1108.25 306.511719 C 1108.25 316.65625 1104.21875 326.382812 1097.046875 333.558594 C 1089.871094 340.730469 1080.144531 344.761719 1070 344.761719 L 38.851562 344.761719 C 28.707031 344.761719 18.976562 340.730469 11.804688 333.558594 C 4.632812 326.382812 0.601562 316.65625 0.601562 306.511719 L 0.601562 38.761719 C 0.601562 28.617188 4.632812 18.886719 11.804688 11.714844 C 18.976562 4.539062 28.707031 0.511719 38.851562 0.511719 Z M 38.851562 0.511719 " clip-rule="nonzero"/></clipPath><clipPath id="13a3bf02ed"><rect x="0" width="1109" y="0" height="345"/></clipPath><clipPath id="e82aad9800"><path d="M 1146 145 L 1210 145 L 1210 206 L 1146 206 Z M 1146 145 " clip-rule="nonzero"/></clipPath><clipPath id="93f27e5e3c"><path d="M 1213.917969 165.578125 L 1178.652344 209.5 L 1132.382812 172.347656 L 1167.648438 128.425781 Z M 1213.917969 165.578125 " clip-rule="nonzero"/></clipPath><clipPath id="3b44b970e5"><path d="M 1150.007812 150.394531 C 1146.46875 154.804688 1145.972656 160.921875 1148.753906 165.84375 L 1167.839844 199.601562 C 1169.582031 202.683594 1172.738281 204.699219 1176.269531 204.988281 C 1179.796875 205.273438 1183.238281 203.792969 1185.453125 201.03125 L 1207.105469 174.0625 C 1209.320312 171.304688 1210.023438 167.625 1208.984375 164.242188 C 1207.941406 160.859375 1205.289062 158.210938 1201.90625 157.175781 L 1164.820312 145.832031 C 1159.414062 144.179688 1153.546875 145.988281 1150.007812 150.394531 Z M 1150.007812 150.394531 " clip-rule="nonzero"/></clipPath><clipPath id="f31df45be9"><path d="M 0 0 L 64 0 L 64 60.441406 L 0 60.441406 Z M 0 0 " clip-rule="nonzero"/></clipPath><clipPath id="be762501dd"><path d="M 67.917969 20.578125 L 32.652344 64.5 L -13.617188 27.347656 L 21.648438 -16.574219 Z M 67.917969 20.578125 " clip-rule="nonzero"/></clipPath><clipPath id="1e40d82d9c"><path d="M 4.007812 5.394531 C 0.46875 9.804688 -0.0273438 15.921875 2.753906 20.84375 L 21.839844 54.601562 C 23.582031 57.683594 26.738281 59.699219 30.269531 59.988281 C 33.796875 60.273438 37.238281 58.792969 39.453125 56.03125 L 61.105469 29.0625 C 63.320312 26.304688 64.023438 22.625 62.984375 19.242188 C 61.941406 15.859375 59.289062 13.210938 55.90625 12.175781 L 18.820312 0.832031 C 13.414062 -0.820312 7.546875 0.988281 4.007812 5.394531 Z M 4.007812 5.394531 " clip-rule="nonzero"/></clipPath><clipPath id="3fa3b66aaa"><rect x="0" width="64" y="0" height="61"/></clipPath><clipPath id="a36d0a2083"><path d="M 1160 100 L 1214 100 L 1214 141 L 1160 141 Z M 1160 100 " clip-rule="nonzero"/></clipPath><clipPath id="6f8c3de1a9"><path d="M 1204.476562 98.035156 L 1215.734375 136.816406 L 1166.054688 151.238281 L 1154.796875 112.457031 Z M 1204.476562 98.035156 " clip-rule="nonzero"/></clipPath><clipPath id="f0e2a85fa0"><path d="M 1160.425781 131.847656 C 1161.589844 135.851562 1165.171875 138.675781 1169.335938 138.867188 L 1201.234375 140.339844 C 1204.867188 140.507812 1208.355469 138.910156 1210.605469 136.054688 C 1212.855469 133.199219 1213.589844 129.433594 1212.578125 125.941406 L 1207.632812 108.910156 C 1206.621094 105.417969 1203.984375 102.628906 1200.554688 101.421875 C 1197.125 100.214844 1193.320312 100.738281 1190.34375 102.824219 L 1164.191406 121.148438 C 1160.777344 123.539062 1159.261719 127.839844 1160.425781 131.847656 Z M 1160.425781 131.847656 " clip-rule="nonzero"/></clipPath><clipPath id="969829f73c"><path d="M 0 0.078125 L 53.679688 0.078125 L 53.679688 40.640625 L 0 40.640625 Z M 0 0.078125 " clip-rule="nonzero"/></clipPath><clipPath id="b46241d858"><path d="M 44.476562 -1.964844 L 55.734375 36.816406 L 6.054688 51.238281 L -5.203125 12.457031 Z M 44.476562 -1.964844 " clip-rule="nonzero"/></clipPath><clipPath id="bce1575113"><path d="M 0.425781 31.847656 C 1.589844 35.851562 5.171875 38.675781 9.335938 38.867188 L 41.234375 40.339844 C 44.867188 40.507812 48.355469 38.910156 50.605469 36.054688 C 52.855469 33.199219 53.589844 29.433594 52.578125 25.941406 L 47.632812 8.910156 C 46.621094 5.417969 43.984375 2.628906 40.554688 1.421875 C 37.125 0.214844 33.320312 0.738281 30.34375 2.824219 L 4.191406 21.148438 C 0.777344 23.539062 -0.738281 27.839844 0.425781 31.847656 Z M 0.425781 31.847656 " clip-rule="nonzero"/></clipPath><clipPath id="e0eb1b0380"><rect x="0" width="54" y="0" height="41"/></clipPath><clipPath id="aeb41da8d7"><path d="M 290.570312 18.011719 L 1161.546875 18.011719 L 1161.546875 151.449219 L 290.570312 151.449219 Z M 290.570312 18.011719 " clip-rule="nonzero"/></clipPath><clipPath id="e4fb07ff1d"><path d="M 328.820312 18.011719 L 1123.136719 18.011719 C 1133.28125 18.011719 1143.007812 22.042969 1150.183594 29.214844 C 1157.355469 36.386719 1161.386719 46.117188 1161.386719 56.261719 L 1161.386719 113.199219 C 1161.386719 123.34375 1157.355469 133.070312 1150.183594 140.242188 C 1143.007812 147.417969 1133.28125 151.449219 1123.136719 151.449219 L 328.820312 151.449219 C 318.675781 151.449219 308.945312 147.417969 301.773438 140.242188 C 294.601562 133.070312 290.570312 123.34375 290.570312 113.199219 L 290.570312 56.261719 C 290.570312 46.117188 294.601562 36.386719 301.773438 29.214844 C 308.945312 22.042969 318.675781 18.011719 328.820312 18.011719 Z M 328.820312 18.011719 " clip-rule="nonzero"/></clipPath><clipPath id="a0fb3b56f9"><path d="M 0.570312 0.0117188 L 871.546875 0.0117188 L 871.546875 133.449219 L 0.570312 133.449219 Z M 0.570312 0.0117188 " clip-rule="nonzero"/></clipPath><clipPath id="3277174349"><path d="M 38.820312 0.0117188 L 833.136719 0.0117188 C 843.28125 0.0117188 853.007812 4.042969 860.183594 11.214844 C 867.355469 18.386719 871.386719 28.117188 871.386719 38.261719 L 871.386719 95.199219 C 871.386719 105.34375 867.355469 115.070312 860.183594 122.242188 C 853.007812 129.417969 843.28125 133.449219 833.136719 133.449219 L 38.820312 133.449219 C 28.675781 133.449219 18.945312 129.417969 11.773438 122.242188 C 4.601562 115.070312 0.570312 105.34375 0.570312 95.199219 L 0.570312 38.261719 C 0.570312 28.117188 4.601562 18.386719 11.773438 11.214844 C 18.945312 4.042969 28.675781 0.0117188 38.820312 0.0117188 Z M 38.820312 0.0117188 " clip-rule="nonzero"/></clipPath><clipPath id="f99def0352"><rect x="0" width="872" y="0" height="134"/></clipPath><clipPath id="4cbc642c95"><path d="M 272.804688 43.398438 L 1142 43.398438 L 1142 176.832031 L 272.804688 176.832031 Z M 272.804688 43.398438 " clip-rule="nonzero"/></clipPath><clipPath id="31ca793895"><path d="M 311.054688 43.398438 L 1103.660156 43.398438 C 1113.804688 43.398438 1123.535156 47.425781 1130.707031 54.601562 C 1137.882812 61.773438 1141.910156 71.503906 1141.910156 81.648438 L 1141.910156 138.582031 C 1141.910156 148.726562 1137.882812 158.457031 1130.707031 165.628906 C 1123.535156 172.800781 1113.804688 176.832031 1103.660156 176.832031 L 311.054688 176.832031 C 300.910156 176.832031 291.179688 172.800781 284.007812 165.628906 C 276.835938 158.457031 272.804688 148.726562 272.804688 138.582031 L 272.804688 81.648438 C 272.804688 71.503906 276.835938 61.773438 284.007812 54.601562 C 291.179688 47.425781 300.910156 43.398438 311.054688 43.398438 Z M 311.054688 43.398438 " clip-rule="nonzero"/></clipPath><clipPath id="a9a785bed4"><path d="M 0.804688 0.398438 L 869.921875 0.398438 L 869.921875 133.832031 L 0.804688 133.832031 Z M 0.804688 0.398438 " clip-rule="nonzero"/></clipPath><clipPath id="06b1f781e4"><path d="M 39.054688 0.398438 L 831.660156 0.398438 C 841.804688 0.398438 851.535156 4.425781 858.707031 11.601562 C 865.882812 18.773438 869.910156 28.503906 869.910156 38.648438 L 869.910156 95.582031 C 869.910156 105.726562 865.882812 115.457031 858.707031 122.628906 C 851.535156 129.800781 841.804688 133.832031 831.660156 133.832031 L 39.054688 133.832031 C 28.910156 133.832031 19.179688 129.800781 12.007812 122.628906 C 4.835938 115.457031 0.804688 105.726562 0.804688 95.582031 L 0.804688 38.648438 C 0.804688 28.503906 4.835938 18.773438 12.007812 11.601562 C 19.179688 4.425781 28.910156 0.398438 39.054688 0.398438 Z M 39.054688 0.398438 " clip-rule="nonzero"/></clipPath><clipPath id="a9cf853f94"><rect x="0" width="870" y="0" height="134"/></clipPath><clipPath id="b184b123a0"><path d="M 272.804688 43.398438 L 380.804688 43.398438 L 380.804688 151.398438 L 272.804688 151.398438 Z M 272.804688 43.398438 " clip-rule="nonzero"/></clipPath><clipPath id="40c0587be6"><path d="M 1043.65625 78.578125 L 1141.90625 78.578125 L 1141.90625 176.828125 L 1043.65625 176.828125 Z M 1043.65625 78.578125 " clip-rule="nonzero"/></clipPath><clipPath id="f193c71d45"><path d="M 185 2 L 271 2 L 271 70 L 185 70 Z M 185 2 " clip-rule="nonzero"/></clipPath><clipPath id="8adb0549b5"><path d="M 183.113281 66.226562 L 201.289062 -0.625 L 279.285156 20.578125 L 261.113281 87.433594 Z M 183.113281 66.226562 " clip-rule="nonzero"/></clipPath><clipPath id="7c3a132b23"><path d="M 270.082031 53.972656 C 271.8125 47.609375 269.316406 40.847656 263.867188 37.136719 L 215.421875 4.136719 C 212.421875 2.09375 208.621094 1.625 205.21875 2.882812 C 201.8125 4.140625 199.226562 6.964844 198.273438 10.46875 L 186.128906 55.136719 C 185.179688 58.636719 185.980469 62.382812 188.277344 65.191406 C 190.578125 68 194.09375 69.519531 197.714844 69.277344 L 256.195312 65.347656 C 262.777344 64.902344 268.351562 60.335938 270.082031 53.972656 Z M 270.082031 53.972656 " clip-rule="nonzero"/></clipPath><clipPath id="c6b0938ab0"><path d="M 0.0390625 0 L 86 0 L 86 67.601562 L 0.0390625 67.601562 Z M 0.0390625 0 " clip-rule="nonzero"/></clipPath><clipPath id="9506083893"><path d="M -1.886719 64.226562 L 16.289062 -2.625 L 94.285156 18.578125 L 76.113281 85.433594 Z M -1.886719 64.226562 " clip-rule="nonzero"/></clipPath><clipPath id="e94d9e602f"><path d="M 85.082031 51.972656 C 86.8125 45.609375 84.316406 38.847656 78.867188 35.136719 L 30.421875 2.136719 C 27.421875 0.09375 23.621094 -0.375 20.21875 0.882812 C 16.8125 2.140625 14.226562 4.964844 13.273438 8.46875 L 1.128906 53.136719 C 0.179688 56.636719 0.980469 60.382812 3.277344 63.191406 C 5.578125 66 9.09375 67.519531 12.714844 67.277344 L 71.195312 63.347656 C 77.777344 62.902344 83.351562 58.335938 85.082031 51.972656 Z M 85.082031 51.972656 " clip-rule="nonzero"/></clipPath><clipPath id="d849bdcf1b"><rect x="0" width="86" y="0" height="68"/></clipPath><clipPath id="8265431b24"><path d="M 204 82 L 253 82 L 253 129 L 204 129 Z M 204 82 " clip-rule="nonzero"/></clipPath><clipPath id="18ebfa57bf"><path d="M 225.101562 132.648438 L 199.523438 101.882812 L 237.207031 70.550781 L 262.785156 101.316406 Z M 225.101562 132.648438 " clip-rule="nonzero"/></clipPath><clipPath id="6861004f67"><path d="M 249.988281 85.921875 C 247.3125 82.703125 242.90625 81.511719 238.972656 82.9375 L 211.371094 92.953125 C 207.984375 94.183594 205.40625 96.984375 204.460938 100.464844 C 203.519531 103.941406 204.332031 107.664062 206.636719 110.433594 L 217.972656 124.070312 C 220.277344 126.839844 223.785156 128.316406 227.378906 128.027344 C 230.972656 127.734375 234.195312 125.710938 236.023438 122.605469 L 250.910156 97.296875 C 253.03125 93.6875 252.660156 89.140625 249.988281 85.921875 Z M 249.988281 85.921875 " clip-rule="nonzero"/></clipPath><clipPath id="1f3e9820f2"><path d="M 0 0 L 49 0 L 49 46.398438 L 0 46.398438 Z M 0 0 " clip-rule="nonzero"/></clipPath><clipPath id="55af4cab87"><path d="M 21.101562 50.648438 L -4.476562 19.882812 L 33.207031 -11.449219 L 58.785156 19.316406 Z M 21.101562 50.648438 " clip-rule="nonzero"/></clipPath><clipPath id="33a875aff6"><path d="M 45.988281 3.921875 C 43.3125 0.703125 38.90625 -0.488281 34.972656 0.9375 L 7.371094 10.953125 C 3.984375 12.183594 1.40625 14.984375 0.460938 18.464844 C -0.480469 21.941406 0.332031 25.664062 2.636719 28.433594 L 13.972656 42.070312 C 16.277344 44.839844 19.785156 46.316406 23.378906 46.027344 C 26.972656 45.734375 30.195312 43.710938 32.023438 40.605469 L 46.910156 15.296875 C 49.03125 11.6875 48.660156 7.140625 45.988281 3.921875 Z M 45.988281 3.921875 " clip-rule="nonzero"/></clipPath><clipPath id="9d5c496cf4"><rect x="0" width="49" y="0" height="47"/></clipPath><clipPath id="1135465efa"><path d="M 177.121094 210.9375 L 1307.851562 210.9375 L 1307.851562 318.988281 L 177.121094 318.988281 Z M 177.121094 210.9375 " clip-rule="nonzero"/></clipPath><clipPath id="17bcd1fd69"><path d="M 215.371094 210.9375 L 1269.453125 210.9375 C 1279.597656 210.9375 1289.328125 214.96875 1296.5 222.140625 C 1303.671875 229.316406 1307.703125 239.042969 1307.703125 249.1875 L 1307.703125 280.738281 C 1307.703125 290.882812 1303.671875 300.613281 1296.5 307.785156 C 1289.328125 314.957031 1279.597656 318.988281 1269.453125 318.988281 L 215.371094 318.988281 C 205.226562 318.988281 195.496094 314.957031 188.324219 307.785156 C 181.148438 300.613281 177.121094 290.882812 177.121094 280.738281 L 177.121094 249.1875 C 177.121094 239.042969 181.148438 229.316406 188.324219 222.140625 C 195.496094 214.96875 205.226562 210.9375 215.371094 210.9375 Z M 215.371094 210.9375 " clip-rule="nonzero"/></clipPath><clipPath id="29dc38ba5d"><path d="M 0.121094 0.9375 L 1130.761719 0.9375 L 1130.761719 108.988281 L 0.121094 108.988281 Z M 0.121094 0.9375 " clip-rule="nonzero"/></clipPath><clipPath id="b5e78c5b5c"><path d="M 38.371094 0.9375 L 1092.453125 0.9375 C 1102.597656 0.9375 1112.328125 4.96875 1119.5 12.140625 C 1126.671875 19.316406 1130.703125 29.042969 1130.703125 39.1875 L 1130.703125 70.738281 C 1130.703125 80.882812 1126.671875 90.613281 1119.5 97.785156 C 1112.328125 104.957031 1102.597656 108.988281 1092.453125 108.988281 L 38.371094 108.988281 C 28.226562 108.988281 18.496094 104.957031 11.324219 97.785156 C 4.148438 90.613281 0.121094 80.882812 0.121094 70.738281 L 0.121094 39.1875 C 0.121094 29.042969 4.148438 19.316406 11.324219 12.140625 C 18.496094 4.96875 28.226562 0.9375 38.371094 0.9375 Z M 38.371094 0.9375 " clip-rule="nonzero"/></clipPath><clipPath id="234e0cce61"><rect x="0" width="1131" y="0" height="109"/></clipPath><clipPath id="80b416ac78"><path d="M 155.601562 233.980469 L 1293.933594 233.980469 L 1293.933594 342.03125 L 155.601562 342.03125 Z M 155.601562 233.980469 " clip-rule="nonzero"/></clipPath><clipPath id="8c52db2acd"><path d="M 193.851562 233.980469 L 1255.460938 233.980469 C 1265.605469 233.980469 1275.335938 238.007812 1282.507812 245.183594 C 1289.679688 252.355469 1293.710938 262.085938 1293.710938 272.230469 L 1293.710938 303.78125 C 1293.710938 313.925781 1289.679688 323.652344 1282.507812 330.828125 C 1275.335938 338 1265.605469 342.03125 1255.460938 342.03125 L 193.851562 342.03125 C 183.707031 342.03125 173.976562 338 166.804688 330.828125 C 159.632812 323.652344 155.601562 313.925781 155.601562 303.78125 L 155.601562 272.230469 C 155.601562 262.085938 159.632812 252.355469 166.804688 245.183594 C 173.976562 238.007812 183.707031 233.980469 193.851562 233.980469 Z M 193.851562 233.980469 " clip-rule="nonzero"/></clipPath><clipPath id="22afcba6e8"><path d="M 0.601562 0.980469 L 1138.839844 0.980469 L 1138.839844 109.03125 L 0.601562 109.03125 Z M 0.601562 0.980469 " clip-rule="nonzero"/></clipPath><clipPath id="9864b77bab"><path d="M 38.851562 0.980469 L 1100.460938 0.980469 C 1110.605469 0.980469 1120.335938 5.007812 1127.507812 12.183594 C 1134.679688 19.355469 1138.710938 29.085938 1138.710938 39.230469 L 1138.710938 70.78125 C 1138.710938 80.925781 1134.679688 90.652344 1127.507812 97.828125 C 1120.335938 105 1110.605469 109.03125 1100.460938 109.03125 L 38.851562 109.03125 C 28.707031 109.03125 18.976562 105 11.804688 97.828125 C 4.632812 90.652344 0.601562 80.925781 0.601562 70.78125 L 0.601562 39.230469 C 0.601562 29.085938 4.632812 19.355469 11.804688 12.183594 C 18.976562 5.007812 28.707031 0.980469 38.851562 0.980469 Z M 38.851562 0.980469 " clip-rule="nonzero"/></clipPath><clipPath id="84dd202b2f"><rect x="0" width="1139" y="0" height="110"/></clipPath><clipPath id="ec99383633"><path d="M 155.601562 233.980469 L 240.351562 233.980469 L 240.351562 318.730469 L 155.601562 318.730469 Z M 155.601562 233.980469 " clip-rule="nonzero"/></clipPath><clipPath id="d6660dde82"><path d="M 1206.351562 257.542969 L 1291.101562 257.542969 L 1291.101562 342.292969 L 1206.351562 342.292969 Z M 1206.351562 257.542969 " clip-rule="nonzero"/></clipPath><clipPath id="ec91967c18"><path d="M 1311 286 L 1405 286 L 1405 330 L 1311 330 Z M 1311 286 " clip-rule="nonzero"/></clipPath><clipPath id="4c1e5e3d32"><path d="M 1317.167969 340.800781 L 1307.761719 290.671875 L 1400.640625 273.25 L 1410.046875 323.375 Z M 1317.167969 340.800781 " clip-rule="nonzero"/></clipPath><clipPath id="819ac6ad90"><path d="M 1317.167969 340.800781 L 1307.761719 290.671875 L 1400.640625 273.25 L 1410.046875 323.375 Z M 1317.167969 340.800781 " clip-rule="nonzero"/></clipPath><clipPath id="511b60bf6d"><path d="M 1308 321 L 1365 321 L 1365 377 L 1308 377 Z M 1308 321 " clip-rule="nonzero"/></clipPath><clipPath id="e4214b11ba"><path d="M 1369.195312 351.777344 L 1340.503906 381.816406 L 1296.28125 339.578125 L 1324.96875 309.539062 Z M 1369.195312 351.777344 " clip-rule="nonzero"/></clipPath><clipPath id="b9da982c1d"><path d="M 1310.707031 324.640625 C 1307.855469 327.628906 1307.324219 332.140625 1309.398438 335.710938 L 1329.925781 370.984375 C 1331.800781 374.203125 1335.074219 376.351562 1338.773438 376.789062 C 1342.46875 377.226562 1346.15625 375.898438 1348.726562 373.207031 L 1360.972656 360.382812 C 1363.542969 357.691406 1364.699219 353.949219 1364.09375 350.273438 C 1363.488281 346.601562 1361.1875 343.429688 1357.886719 341.707031 L 1321.707031 322.824219 C 1318.046875 320.910156 1313.5625 321.652344 1310.707031 324.640625 Z M 1310.707031 324.640625 " clip-rule="nonzero"/></clipPath><clipPath id="606f4a814c"><path d="M 0 0 L 56.878906 0 L 56.878906 56 L 0 56 Z M 0 0 " clip-rule="nonzero"/></clipPath><clipPath id="d51e37b042"><path d="M 61.195312 30.777344 L 32.503906 60.816406 L -11.71875 18.578125 L 16.96875 -11.460938 Z M 61.195312 30.777344 " clip-rule="nonzero"/></clipPath><clipPath id="7f6dd0cf2f"><path d="M 2.707031 3.640625 C -0.144531 6.628906 -0.675781 11.140625 1.398438 14.710938 L 21.925781 49.984375 C 23.800781 53.203125 27.074219 55.351562 30.773438 55.789062 C 34.46875 56.226562 38.15625 54.898438 40.726562 52.207031 L 52.972656 39.382812 C 55.542969 36.691406 56.699219 32.949219 56.09375 29.273438 C 55.488281 25.601562 53.1875 22.429688 49.886719 20.707031 L 13.707031 1.824219 C 10.046875 -0.0898438 5.5625 0.652344 2.707031 3.640625 Z M 2.707031 3.640625 " clip-rule="nonzero"/></clipPath><clipPath id="2812eab6cd"><rect x="0" width="57" y="0" height="56"/></clipPath><clipPath id="4fa26e553e"><path d="M 110 174 L 180 174 L 180 242 L 110 242 Z M 110 174 " clip-rule="nonzero"/></clipPath><clipPath id="4a7601fd0c"><path d="M 166.078125 165.871094 L 198.054688 211.234375 L 133.074219 257.039062 L 101.097656 211.675781 Z M 166.078125 165.871094 " clip-rule="nonzero"/></clipPath><clipPath id="d3cc82207d"><path d="M 166.078125 165.871094 L 198.054688 211.234375 L 133.074219 257.039062 L 101.097656 211.675781 Z M 166.078125 165.871094 " clip-rule="nonzero"/></clipPath><clipPath id="f5b5251438"><path d="M 8 719 L 119 719 L 119 790 L 8 790 Z M 8 719 " clip-rule="nonzero"/></clipPath><clipPath id="1503a76cd3"><path d="M 24.894531 792.90625 L 5.742188 724.429688 L 108.164062 695.78125 L 127.316406 764.257812 Z M 24.894531 792.90625 " clip-rule="nonzero"/></clipPath><clipPath id="066ed78156"><path d="M 117.671875 730.039062 C 115.921875 723.785156 110.175781 719.496094 103.683594 719.597656 L 20.882812 720.886719 C 17.117188 720.945312 13.59375 722.746094 11.339844 725.761719 C 9.085938 728.78125 8.363281 732.671875 9.375 736.296875 L 21.84375 780.875 C 22.859375 784.503906 25.5 787.453125 28.988281 788.863281 C 32.480469 790.273438 36.429688 789.984375 39.679688 788.082031 L 111.132812 746.222656 C 116.734375 742.941406 119.421875 736.292969 117.671875 730.039062 Z M 117.671875 730.039062 " clip-rule="nonzero"/></clipPath><clipPath id="1baeab94d6"><path d="M 0.160156 0.28125 L 111 0.28125 L 111 71 L 0.160156 71 Z M 0.160156 0.28125 " clip-rule="nonzero"/></clipPath><clipPath id="2731b8c4a8"><path d="M 16.894531 73.90625 L -2.257812 5.429688 L 100.164062 -23.21875 L 119.316406 45.257812 Z M 16.894531 73.90625 " clip-rule="nonzero"/></clipPath><clipPath id="f324c0c1ba"><path d="M 109.671875 11.039062 C 107.921875 4.785156 102.175781 0.496094 95.683594 0.597656 L 12.882812 1.886719 C 9.117188 1.945312 5.59375 3.746094 3.339844 6.761719 C 1.085938 9.78125 0.363281 13.671875 1.375 17.296875 L 13.84375 61.875 C 14.859375 65.503906 17.5 68.453125 20.988281 69.863281 C 24.480469 71.273438 28.429688 70.984375 31.679688 69.082031 L 103.132812 27.222656 C 108.734375 23.941406 111.421875 17.292969 109.671875 11.039062 Z M 109.671875 11.039062 " clip-rule="nonzero"/></clipPath><clipPath id="b13eb85d6e"><rect x="0" width="111" y="0" height="71"/></clipPath><clipPath id="fc477b1a87"><path d="M 91 754 L 133 754 L 133 805 L 91 805 Z M 91 754 " clip-rule="nonzero"/></clipPath><clipPath id="d14061f8a2"><path d="M 123.777344 807.964844 L 87.851562 790.351562 L 109.429688 746.347656 L 145.355469 763.964844 Z M 123.777344 807.964844 " clip-rule="nonzero"/></clipPath><clipPath id="fe9298e181"><path d="M 127.378906 755.148438 C 123.621094 753.308594 119.113281 754.019531 116.105469 756.929688 L 95.011719 777.355469 C 92.421875 779.863281 91.21875 783.476562 91.78125 787.035156 C 92.34375 790.597656 94.601562 793.660156 97.839844 795.246094 L 113.761719 803.054688 C 116.996094 804.640625 120.804688 804.554688 123.960938 802.816406 C 127.121094 801.082031 129.238281 797.917969 129.636719 794.335938 L 132.871094 765.152344 C 133.332031 760.992188 131.132812 756.992188 127.378906 755.148438 Z M 127.378906 755.148438 " clip-rule="nonzero"/></clipPath><clipPath id="155f316b2b"><path d="M 0.199219 0 L 42 0 L 42 50.71875 L 0.199219 50.71875 Z M 0.199219 0 " clip-rule="nonzero"/></clipPath><clipPath id="8c7294a43f"><path d="M 32.777344 53.964844 L -3.148438 36.351562 L 18.429688 -7.652344 L 54.355469 9.964844 Z M 32.777344 53.964844 " clip-rule="nonzero"/></clipPath><clipPath id="2ccc14bf0c"><path d="M 36.378906 1.148438 C 32.621094 -0.691406 28.113281 0.0195312 25.105469 2.929688 L 4.011719 23.355469 C 1.421875 25.863281 0.21875 29.476562 0.78125 33.035156 C 1.34375 36.597656 3.601562 39.660156 6.839844 41.246094 L 22.761719 49.054688 C 25.996094 50.640625 29.804688 50.554688 32.960938 48.816406 C 36.121094 47.082031 38.238281 43.917969 38.636719 40.335938 L 41.871094 11.152344 C 42.332031 6.992188 40.132812 2.992188 36.378906 1.148438 Z M 36.378906 1.148438 " clip-rule="nonzero"/></clipPath><clipPath id="f79035ebf9"><rect x="0" width="42" y="0" height="51"/></clipPath><clipPath id="943dba6269"><path d="M 62 353 L 144 353 L 144 428 L 62 428 Z M 62 353 " clip-rule="nonzero"/></clipPath><clipPath id="ba8373738d"><path d="M 57.960938 405.484375 L 97.132812 349.179688 L 160.351562 393.164062 L 121.179688 449.46875 Z M 57.960938 405.484375 " clip-rule="nonzero"/></clipPath><clipPath id="a298abf149"><path d="M 140.816406 421.246094 C 144.59375 415.816406 144.566406 408.601562 140.746094 403.203125 L 108.90625 358.191406 C 106.828125 355.253906 103.445312 353.511719 99.84375 353.523438 C 96.242188 353.539062 92.871094 355.308594 90.816406 358.261719 L 64.378906 396.261719 C 62.324219 399.21875 61.835938 402.992188 63.074219 406.371094 C 64.316406 409.753906 67.125 412.320312 70.605469 413.246094 L 123.875 427.453125 C 130.265625 429.15625 137.039062 426.675781 140.816406 421.246094 Z M 140.816406 421.246094 " clip-rule="nonzero"/></clipPath><clipPath id="c3e901b245"><path d="M 0 0.28125 L 82 0.28125 L 82 75 L 0 75 Z M 0 0.28125 " clip-rule="nonzero"/></clipPath><clipPath id="cb5544fe27"><path d="M -4.039062 52.484375 L 35.132812 -3.820312 L 98.351562 40.164062 L 59.179688 96.46875 Z M -4.039062 52.484375 " clip-rule="nonzero"/></clipPath><clipPath id="e1b5958308"><path d="M 78.816406 68.246094 C 82.59375 62.816406 82.566406 55.601562 78.746094 50.203125 L 46.90625 5.191406 C 44.828125 2.253906 41.445312 0.511719 37.84375 0.523438 C 34.242188 0.539062 30.871094 2.308594 28.816406 5.261719 L 2.378906 43.261719 C 0.324219 46.21875 -0.164062 49.992188 1.074219 53.371094 C 2.316406 56.753906 5.125 59.320312 8.605469 60.246094 L 61.875 74.453125 C 68.265625 76.15625 75.039062 73.675781 78.816406 68.246094 Z M 78.816406 68.246094 " clip-rule="nonzero"/></clipPath><clipPath id="e0dd2f40d8"><rect x="0" width="82" y="0" height="75"/></clipPath><clipPath id="e55c830357"><path d="M 76 367 L 134 367 L 134 419 L 76 419 Z M 76 367 " clip-rule="nonzero"/></clipPath><clipPath id="98773a45d3"><path d="M 71.75 401.453125 L 98.796875 362.574219 L 144.664062 394.484375 L 117.613281 433.363281 Z M 71.75 401.453125 " clip-rule="nonzero"/></clipPath><clipPath id="109e9d4c90"><path d="M 131.113281 413.960938 C 133.851562 410.023438 133.832031 404.789062 131.0625 400.871094 L 110.457031 371.746094 C 108.378906 368.804688 104.996094 367.066406 101.394531 367.078125 C 97.792969 367.09375 94.425781 368.859375 92.367188 371.816406 L 78.125 392.289062 C 76.070312 395.242188 75.582031 399.015625 76.820312 402.398438 C 78.058594 405.78125 80.871094 408.347656 84.347656 409.273438 L 118.820312 418.464844 C 123.457031 419.703125 128.371094 417.902344 131.113281 413.960938 Z M 131.113281 413.960938 " clip-rule="nonzero"/></clipPath><clipPath id="ae79ace46a"><path d="M 0 0 L 57.921875 0 L 57.921875 52 L 0 52 Z M 0 0 " clip-rule="nonzero"/></clipPath><clipPath id="d3d7d1f12d"><path d="M -4.25 34.453125 L 22.796875 -4.425781 L 68.664062 27.484375 L 41.613281 66.363281 Z M -4.25 34.453125 " clip-rule="nonzero"/></clipPath><clipPath id="7b3c4453f0"><path d="M 55.113281 46.960938 C 57.851562 43.023438 57.832031 37.789062 55.0625 33.871094 L 34.457031 4.746094 C 32.378906 1.804688 28.996094 0.0664062 25.394531 0.078125 C 21.792969 0.09375 18.425781 1.859375 16.367188 4.816406 L 2.125 25.289062 C 0.0703125 28.242188 -0.417969 32.015625 0.820312 35.398438 C 2.058594 38.78125 4.871094 41.347656 8.347656 42.273438 L 42.820312 51.464844 C 47.457031 52.703125 52.371094 50.902344 55.113281 46.960938 Z M 55.113281 46.960938 " clip-rule="nonzero"/></clipPath><clipPath id="94f8ae933d"><rect x="0" width="58" y="0" height="52"/></clipPath><clipPath id="1e839e88c0"><path d="M 67 455 L 132 455 L 132 524 L 67 524 Z M 67 455 " clip-rule="nonzero"/></clipPath><clipPath id="75957648fe"><path d="M 58.640625 459.824219 L 108.789062 436.046875 L 142.851562 507.882812 L 92.703125 531.660156 Z M 58.640625 459.824219 " clip-rule="nonzero"/></clipPath><clipPath id="ecdcef633f"><path d="M 58.640625 459.824219 L 108.789062 436.046875 L 142.851562 507.882812 L 92.703125 531.660156 Z M 58.640625 459.824219 " clip-rule="nonzero"/></clipPath></defs><g clip-path="url(#3be37cbfcd)"><g clip-path="url(#e6adb8dc44)"><g clip-path="url(#fc2b8e327d)"><path fill="#ff743e" d="M 1371.804688 807.671875 C 1370.109375 808.078125 1368.441406 806.878906 1367.851562 805.324219 C 1367.605469 804.683594 1367.492188 804 1367.289062 803.347656 C 1366.660156 801.210938 1365.859375 799.105469 1364.640625 797.230469 C 1361.816406 792.933594 1357.367188 789.761719 1352.367188 788.539062 C 1349.144531 787.761719 1345.796875 788.027344 1342.546875 788.476562 C 1342.316406 794.953125 1340.84375 801.472656 1337.582031 807.113281 C 1334.316406 812.75 1328.546875 818.070312 1321.671875 817.929688 C 1318.179688 817.796875 1314.640625 815.78125 1313.175781 812.535156 C 1312.199219 810.355469 1312.121094 807.898438 1312.457031 805.566406 C 1313.382812 799.519531 1317.542969 794.582031 1322.015625 790.671875 C 1325.9375 787.167969 1330.609375 784.546875 1335.644531 783.027344 C 1334.660156 772.507812 1330.515625 762.699219 1319.800781 759.113281 C 1320.386719 766.003906 1316.367188 775.347656 1311.199219 779.84375 C 1305.667969 784.894531 1297.703125 784.714844 1292.558594 779.210938 C 1286.480469 772.9375 1289.09375 762.648438 1294.792969 757.035156 C 1299.085938 753.007812 1305.082031 751.214844 1310.859375 750.875 C 1309.066406 747.066406 1306.472656 743.253906 1303.105469 740.710938 C 1300.609375 739.050781 1297.734375 737.660156 1294.660156 738.003906 C 1291.734375 738.378906 1288.894531 739.441406 1286.296875 740.8125 C 1284.652344 741.839844 1283.074219 743.039062 1281.859375 744.5625 C 1281.421875 745.195312 1281.199219 745.941406 1280.800781 746.601562 C 1279.238281 749.304688 1275.179688 748.570312 1274.828125 745.417969 C 1274.804688 741.527344 1277.988281 738.5625 1280.855469 736.359375 C 1283.523438 734.34375 1286.667969 733.066406 1289.851562 732.125 C 1291.359375 731.691406 1292.890625 731.328125 1294.464844 731.238281 C 1299.601562 730.847656 1304.585938 733.109375 1308.488281 736.320312 C 1313.058594 740.425781 1316.511719 745.8125 1318.421875 751.648438 C 1333.597656 755.15625 1340.789062 766.816406 1342.3125 781.640625 C 1346.246094 781.160156 1350.28125 780.984375 1354.152344 781.988281 C 1361.148438 783.722656 1367.351562 788.390625 1370.984375 794.609375 C 1372.167969 796.621094 1373.015625 798.816406 1373.679688 801.050781 C 1373.933594 801.96875 1374.253906 802.882812 1374.371094 803.828125 C 1374.539062 805.503906 1373.523438 807.3125 1371.804688 807.671875 Z M 1332.015625 803.167969 C 1334.160156 799.183594 1335.285156 794.703125 1335.636719 790.210938 C 1329.058594 792.476562 1317.613281 801.59375 1319.234375 809.402344 C 1319.550781 810.507812 1320.777344 811.003906 1321.828125 811.132812 C 1323.253906 811.261719 1324.597656 810.652344 1325.800781 809.953125 C 1328.488281 808.347656 1330.53125 805.894531 1332.015625 803.167969 Z M 1308.496094 772.863281 C 1309.957031 770.945312 1310.800781 769.191406 1311.65625 767.0625 C 1312.921875 763.804688 1313.339844 761.144531 1312.878906 757.664062 C 1307.84375 757.527344 1301.582031 759.046875 1298.378906 763.210938 C 1296.644531 765.761719 1295.292969 769.007812 1296.085938 772.117188 C 1296.898438 774.746094 1299.535156 776.753906 1302.300781 776.730469 C 1304.871094 776.625 1306.945312 774.757812 1308.496094 772.863281 Z M 1308.496094 772.863281 " fill-opacity="1" fill-rule="nonzero"/></g></g></g><g clip-path="url(#6766db4d93)"><g clip-path="url(#2dbe8f645d)"><g clip-path="url(#a79f48351d)"><g transform="matrix(1, 0, 0, 1, 1313, 664)"><g clip-path="url(#6fb91b02f4)"><g clip-path="url(#01af2b214e)"><g clip-path="url(#aa28726db9)"><g clip-path="url(#8ad43b870a)"><path fill="#0cd380" d="M 56.992188 -7.503906 L 81.679688 67.839844 L 14.003906 90.015625 L -10.683594 14.671875 Z M 56.992188 -7.503906 " fill-opacity="1" fill-rule="nonzero"/></g></g></g></g></g></g></g></g><g clip-path="url(#a95891c6bb)"><g clip-path="url(#2e881f65aa)"><g transform="matrix(1, 0, 0, 1, 177, 389)"><g clip-path="url(#548367c573)"><g clip-path="url(#01f7c5f087)"><g clip-path="url(#f8da49d2f0)"><path fill="#1ca379" d="M 0.121094 0.617188 L 1114.144531 0.617188 L 1114.144531 333.003906 L 0.121094 333.003906 Z M 0.121094 0.617188 " fill-opacity="1" fill-rule="nonzero"/></g></g></g></g></g></g><g clip-path="url(#8a4426c707)"><g clip-path="url(#19a8beeaee)"><g transform="matrix(1, 0, 0, 1, 155, 419)"><g clip-path="url(#13a3bf02ed)"><g clip-path="url(#2f92526cd9)"><g clip-path="url(#b4444f9b3b)"><path fill="#ffbd59" d="M 0.601562 0.511719 L 1108.65625 0.511719 L 1108.65625 344.761719 L 0.601562 344.761719 Z M 0.601562 0.511719 " fill-opacity="1" fill-rule="nonzero"/></g></g></g></g></g></g><g clip-path="url(#e82aad9800)"><g clip-path="url(#93f27e5e3c)"><g clip-path="url(#3b44b970e5)"><g transform="matrix(1, 0, 0, 1, 1146, 145)"><g clip-path="url(#3fa3b66aaa)"><g clip-path="url(#f31df45be9)"><g clip-path="url(#be762501dd)"><g clip-path="url(#1e40d82d9c)"><path fill="#d2501e" d="M 70.964844 16.78125 L 29.605469 68.296875 L -16.667969 31.144531 L 24.695312 -20.371094 Z M 70.964844 16.78125 " fill-opacity="1" fill-rule="nonzero"/></g></g></g></g></g></g></g></g><g clip-path="url(#a36d0a2083)"><g clip-path="url(#6f8c3de1a9)"><g clip-path="url(#f0e2a85fa0)"><g transform="matrix(1, 0, 0, 1, 1160, 100)"><g clip-path="url(#e0eb1b0380)"><g clip-path="url(#969829f73c)"><g clip-path="url(#b46241d858)"><g clip-path="url(#bce1575113)"><path fill="#0cd380" d="M 43.242188 -6.214844 L 56.96875 41.066406 L 7.289062 55.488281 L -6.4375 8.207031 Z M 43.242188 -6.214844 " fill-opacity="1" fill-rule="nonzero"/></g></g></g></g></g></g></g></g><g clip-path="url(#aeb41da8d7)"><g clip-path="url(#e4fb07ff1d)"><g transform="matrix(1, 0, 0, 1, 290, 18)"><g clip-path="url(#f99def0352)"><g clip-path="url(#a0fb3b56f9)"><g clip-path="url(#3277174349)"><path fill="#1ca379" d="M 0.570312 0.0117188 L 871.546875 0.0117188 L 871.546875 133.449219 L 0.570312 133.449219 Z M 0.570312 0.0117188 " fill-opacity="1" fill-rule="nonzero"/></g></g></g></g></g></g><g clip-path="url(#4cbc642c95)"><g clip-path="url(#31ca793895)"><g transform="matrix(1, 0, 0, 1, 272, 43)"><g clip-path="url(#a9cf853f94)"><g clip-path="url(#a9a785bed4)"><g clip-path="url(#06b1f781e4)"><path fill="#ffbd59" d="M 0.804688 0.398438 L 869.695312 0.398438 L 869.695312 133.832031 L 0.804688 133.832031 Z M 0.804688 0.398438 " fill-opacity="1" fill-rule="nonzero"/></g></g></g></g></g></g><g clip-path="url(#b184b123a0)"><path fill="#ff743e" d="M 311.003906 43.398438 L 272.804688 81.597656 L 272.804688 151.445312 L 380.851562 43.398438 Z M 311.003906 43.398438 " fill-opacity="1" fill-rule="nonzero"/></g><g clip-path="url(#40c0587be6)"><path fill="#ff743e" d="M 1107.1875 176.828125 L 1141.90625 142.105469 L 1141.90625 78.625 L 1043.703125 176.828125 Z M 1107.1875 176.828125 " fill-opacity="1" fill-rule="nonzero"/></g><g clip-path="url(#f193c71d45)"><g clip-path="url(#8adb0549b5)"><g clip-path="url(#7c3a132b23)"><g transform="matrix(1, 0, 0, 1, 185, 2)"><g clip-path="url(#d849bdcf1b)"><g clip-path="url(#c6b0938ab0)"><g clip-path="url(#9506083893)"><g clip-path="url(#e94d9e602f)"><path fill="#d2501e" d="M -3 68.332031 L 17.40625 -6.730469 L 95.402344 14.472656 L 74.996094 89.539062 Z M -3 68.332031 " fill-opacity="1" fill-rule="nonzero"/></g></g></g></g></g></g></g></g><g clip-path="url(#8265431b24)"><g clip-path="url(#18ebfa57bf)"><g clip-path="url(#6861004f67)"><g transform="matrix(1, 0, 0, 1, 204, 82)"><g clip-path="url(#9d5c496cf4)"><g clip-path="url(#1f3e9820f2)"><g clip-path="url(#55af4cab87)"><g clip-path="url(#33a875aff6)"><path fill="#0cd380" d="M 24.039062 54.179688 L -7.414062 16.347656 L 30.269531 -14.980469 L 61.722656 22.847656 Z M 24.039062 54.179688 " fill-opacity="1" fill-rule="nonzero"/></g></g></g></g></g></g></g></g><g clip-path="url(#1135465efa)"><g clip-path="url(#17bcd1fd69)"><g transform="matrix(1, 0, 0, 1, 177, 210)"><g clip-path="url(#234e0cce61)"><g clip-path="url(#29dc38ba5d)"><g clip-path="url(#b5e78c5b5c)"><path fill="#1ca379" d="M 0.121094 0.9375 L 1130.851562 0.9375 L 1130.851562 108.988281 L 0.121094 108.988281 Z M 0.121094 0.9375 " fill-opacity="1" fill-rule="nonzero"/></g></g></g></g></g></g><g clip-path="url(#80b416ac78)"><g clip-path="url(#8c52db2acd)"><g transform="matrix(1, 0, 0, 1, 155, 233)"><g clip-path="url(#84dd202b2f)"><g clip-path="url(#22afcba6e8)"><g clip-path="url(#9864b77bab)"><path fill="#ffbd59" d="M 0.601562 0.980469 L 1138.507812 0.980469 L 1138.507812 109.03125 L 0.601562 109.03125 Z M 0.601562 0.980469 " fill-opacity="1" fill-rule="nonzero"/></g></g></g></g></g></g><g clip-path="url(#ec99383633)"><path fill="#ff743e" d="M 185.65625 233.980469 L 155.601562 264.035156 L 155.601562 318.988281 L 240.609375 233.980469 Z M 185.65625 233.980469 " fill-opacity="1" fill-rule="nonzero"/></g><g clip-path="url(#d6660dde82)"><path fill="#ff743e" d="M 1261.046875 342.292969 L 1291.101562 312.238281 L 1291.101562 257.285156 L 1206.09375 342.292969 Z M 1261.046875 342.292969 " fill-opacity="1" fill-rule="nonzero"/></g><g clip-path="url(#ec91967c18)"><g clip-path="url(#4c1e5e3d32)"><g clip-path="url(#819ac6ad90)"><path fill="#ff743e" d="M 1403.71875 294.066406 C 1402.953125 295.230469 1401.328125 295.441406 1400.136719 294.859375 C 1399.644531 294.617188 1399.203125 294.28125 1398.730469 294.011719 C 1397.199219 293.109375 1395.582031 292.324219 1393.851562 291.898438 C 1389.863281 290.9375 1385.539062 291.515625 1381.960938 293.53125 C 1379.660156 294.835938 1377.855469 296.816406 1376.210938 298.851562 C 1379.609375 302.746094 1382.308594 307.347656 1383.484375 312.414062 C 1384.660156 317.480469 1384.203125 323.722656 1380.121094 327.390625 C 1378.015625 329.21875 1374.855469 329.976562 1372.234375 328.886719 C 1370.476562 328.148438 1369.089844 326.761719 1368.011719 325.21875 C 1365.253906 321.195312 1364.980469 316.046875 1365.449219 311.332031 C 1365.824219 307.152344 1367.113281 303.078125 1369.21875 299.445312 C 1362.902344 293.859375 1355.136719 290.40625 1346.945312 294.164062 C 1351.042969 297.855469 1353.804688 305.488281 1353.242188 310.925781 C 1352.777344 316.886719 1348.042969 321.128906 1342.046875 320.730469 C 1335.082031 320.394531 1330.992188 312.976562 1331.25 306.597656 C 1331.550781 301.910156 1334.0625 297.59375 1337.242188 294.242188 C 1334.121094 293.003906 1330.527344 292.199219 1327.179688 292.554688 C 1324.824219 292.953125 1322.390625 293.710938 1320.785156 295.585938 C 1319.289062 297.402344 1318.214844 299.570312 1317.449219 301.785156 C 1317.050781 303.28125 1316.789062 304.839844 1316.914062 306.390625 C 1317.003906 307 1317.28125 307.554688 1317.40625 308.15625 C 1317.972656 310.582031 1315.207031 312.371094 1313.285156 310.726562 C 1311.148438 308.472656 1311.382812 305.007812 1311.851562 302.160156 C 1312.304688 299.53125 1313.4375 297.074219 1314.78125 294.785156 C 1315.421875 293.710938 1316.113281 292.664062 1316.984375 291.753906 C 1319.761719 288.722656 1323.898438 287.320312 1327.921875 287.066406 C 1332.820312 286.960938 1337.773438 288.214844 1342.070312 290.570312 C 1352.820312 284.332031 1363.367188 287.199219 1372.34375 295 C 1374.371094 292.574219 1376.628906 290.269531 1379.425781 288.742188 C 1384.445312 285.9375 1390.605469 285.269531 1396.113281 286.910156 C 1397.902344 287.433594 1399.589844 288.25 1401.199219 289.1875 C 1401.847656 289.585938 1402.53125 289.941406 1403.117188 290.429688 C 1404.128906 291.3125 1404.523438 292.921875 1403.71875 294.066406 Z M 1378.089844 313.152344 C 1377.167969 309.664062 1375.378906 306.441406 1373.128906 303.632812 C 1370.535156 308.539062 1368.847656 320.09375 1374.050781 323.757812 C 1374.839844 324.226562 1375.824219 323.847656 1376.503906 323.347656 C 1377.40625 322.648438 1377.859375 321.558594 1378.175781 320.492188 C 1378.867188 318.09375 1378.714844 315.550781 1378.089844 313.152344 Z M 1347.863281 308.339844 C 1347.667969 306.421875 1347.203125 304.941406 1346.539062 303.234375 C 1345.5 300.648438 1344.289062 298.871094 1342.125 297.097656 C 1339.117188 299.765625 1336.300781 304.066406 1336.707031 308.234375 C 1337.085938 310.667969 1338.070312 313.296875 1340.230469 314.675781 C 1342.136719 315.761719 1344.769531 315.492188 1346.363281 313.96875 C 1347.804688 312.507812 1347.992188 310.289062 1347.863281 308.339844 Z M 1347.863281 308.339844 " fill-opacity="1" fill-rule="nonzero"/></g></g></g><g clip-path="url(#511b60bf6d)"><g clip-path="url(#e4214b11ba)"><g clip-path="url(#b9da982c1d)"><g transform="matrix(1, 0, 0, 1, 1308, 321)"><g clip-path="url(#2812eab6cd)"><g clip-path="url(#606f4a814c)"><g clip-path="url(#d51e37b042)"><g clip-path="url(#7f6dd0cf2f)"><path fill="#0cd380" d="M 63.851562 27.992188 L 29.847656 63.597656 L -14.238281 21.492188 L 19.765625 -14.109375 Z M 63.851562 27.992188 " fill-opacity="1" fill-rule="nonzero"/></g></g></g></g></g></g></g></g><g clip-path="url(#4fa26e553e)"><g clip-path="url(#4a7601fd0c)"><g clip-path="url(#d3cc82207d)"><path fill="#0cd380" d="M 174.351562 219.03125 C 173.304688 211.742188 171.496094 204.542969 170.25 197.273438 C 169.4375 191.671875 168.800781 186.027344 167.164062 180.585938 C 166.664062 178.304688 165.050781 174.964844 168.296875 174.054688 C 171.484375 173.53125 171.5 177.03125 172.132812 179.203125 C 173.726562 184.628906 174.539062 190.226562 175.230469 195.828125 C 176.507812 202.671875 177.867188 209.5 179.230469 216.328125 C 179.363281 217.085938 179.457031 217.828125 179.480469 218.554688 C 179.796875 221.953125 174.695312 222.460938 174.351562 219.03125 Z M 132.171875 194.039062 C 130.84375 192.261719 132.527344 189.566406 134.714844 190.019531 C 136.558594 190.351562 137.085938 192.503906 138.203125 193.765625 C 140.210938 196.648438 142.289062 199.480469 144.382812 202.300781 C 150.503906 210.945312 157.183594 219.261719 163.683594 227.472656 C 164.550781 229.882812 161.476562 231.742188 159.652344 230.011719 C 157.714844 228.265625 156.179688 226.023438 154.523438 224.042969 C 146.65625 214.371094 139.3125 204.257812 132.171875 194.039062 Z M 111.140625 222.117188 C 111.679688 220.835938 113.277344 220.230469 114.535156 220.804688 C 116.058594 221.433594 117.628906 221.957031 119.085938 222.726562 C 123.308594 224.457031 127.441406 226.382812 131.582031 228.292969 C 135.921875 230.195312 140.226562 232.171875 144.527344 234.164062 C 146.90625 235.242188 149.335938 236.214844 151.742188 237.234375 C 152.703125 237.695312 153.824219 237.988281 154.578125 238.773438 C 155.550781 239.765625 155.015625 241.605469 153.632812 241.878906 C 152.816406 242.078125 151.996094 241.773438 151.214844 241.558594 C 144.84375 239.53125 138.832031 236.582031 132.699219 233.949219 C 127.859375 231.941406 123.164062 229.589844 118.261719 227.742188 C 117.253906 227.417969 115.792969 226.773438 114.941406 226.441406 C 112.847656 225.738281 110.09375 224.960938 111.140625 222.117188 Z M 111.140625 222.117188 " fill-opacity="1" fill-rule="nonzero"/></g></g></g><g clip-path="url(#f5b5251438)"><g clip-path="url(#1503a76cd3)"><g clip-path="url(#066ed78156)"><g transform="matrix(1, 0, 0, 1, 8, 719)"><g clip-path="url(#b13eb85d6e)"><g clip-path="url(#1baeab94d6)"><g clip-path="url(#2731b8c4a8)"><g clip-path="url(#f324c0c1ba)"><path fill="#d2501e" d="M 18.089844 77.042969 L -2.867188 2.128906 L 99.261719 -26.4375 L 120.214844 48.476562 Z M 18.089844 77.042969 " fill-opacity="1" fill-rule="nonzero"/></g></g></g></g></g></g></g></g><g clip-path="url(#fc477b1a87)"><g clip-path="url(#d14061f8a2)"><g clip-path="url(#fe9298e181)"><g transform="matrix(1, 0, 0, 1, 91, 754)"><g clip-path="url(#f79035ebf9)"><g clip-path="url(#155f316b2b)"><g clip-path="url(#8c7294a43f)"><g clip-path="url(#2ccc14bf0c)"><path fill="#0cd380" d="M 36.902344 55.988281 L -7.273438 34.328125 L 14.304688 -9.675781 L 58.480469 11.988281 Z M 36.902344 55.988281 " fill-opacity="1" fill-rule="nonzero"/></g></g></g></g></g></g></g></g><g clip-path="url(#943dba6269)"><g clip-path="url(#ba8373738d)"><g clip-path="url(#a298abf149)"><g transform="matrix(1, 0, 0, 1, 62, 353)"><g clip-path="url(#e0dd2f40d8)"><g clip-path="url(#c3e901b245)"><g clip-path="url(#cb5544fe27)"><g clip-path="url(#e1b5958308)"><path fill="#0cd380" d="M -6.613281 56.191406 L 37.882812 -7.769531 L 101.101562 36.214844 L 56.605469 100.171875 Z M -6.613281 56.191406 " fill-opacity="1" fill-rule="nonzero"/></g></g></g></g></g></g></g></g><g clip-path="url(#e55c830357)"><g clip-path="url(#98773a45d3)"><g clip-path="url(#109e9d4c90)"><g transform="matrix(1, 0, 0, 1, 76, 367)"><g clip-path="url(#94f8ae933d)"><g clip-path="url(#ae79ace46a)"><g clip-path="url(#d3d7d1f12d)"><g clip-path="url(#7b3c4453f0)"><path fill="#000000" d="M -6.867188 38.214844 L 25.414062 -8.1875 L 71.28125 23.722656 L 38.996094 70.125 Z M -6.867188 38.214844 " fill-opacity="1" fill-rule="nonzero"/></g></g></g></g></g></g></g></g><g clip-path="url(#1e839e88c0)"><g clip-path="url(#75957648fe)"><g clip-path="url(#ecdcef633f)"><path fill="#d2501e" d="M 112.433594 460.730469 C 105.074219 460.523438 97.667969 461.078125 90.292969 461.066406 C 84.636719 460.910156 78.964844 460.578125 73.324219 461.261719 C 70.992188 461.367188 67.425781 462.386719 67.082031 459.035156 C 67.109375 455.804688 70.5625 456.386719 72.8125 456.132812 C 78.429688 455.484375 84.082031 455.636719 89.71875 455.914062 C 96.679688 455.820312 103.640625 455.644531 110.601562 455.464844 C 111.371094 455.460938 112.117188 455.496094 112.835938 455.597656 C 116.238281 455.867188 115.871094 460.980469 112.433594 460.730469 Z M 80.617188 498.039062 C 78.640625 499.042969 76.269531 496.925781 77.089844 494.847656 C 77.734375 493.085938 79.941406 492.933594 81.378906 492.046875 C 84.558594 490.558594 87.703125 488.992188 90.839844 487.414062 C 100.402344 482.855469 109.734375 477.691406 118.933594 472.683594 C 121.457031 472.238281 122.765625 475.585938 120.746094 477.089844 C 118.695312 478.699219 116.226562 479.832031 113.992188 481.125 C 103.121094 487.226562 91.902344 492.742188 80.617188 498.039062 Z M 104.699219 523.546875 C 103.53125 522.796875 103.203125 521.117188 103.988281 519.976562 C 104.863281 518.582031 105.648438 517.125 106.65625 515.820312 C 109.078125 511.953125 111.683594 508.210938 114.273438 504.453125 C 116.886719 500.503906 119.566406 496.601562 122.257812 492.703125 C 123.730469 490.539062 125.101562 488.3125 126.519531 486.113281 C 127.136719 485.246094 127.613281 484.191406 128.515625 483.582031 C 129.660156 482.792969 131.378906 483.632812 131.414062 485.042969 C 131.472656 485.882812 131.03125 486.636719 130.6875 487.367188 C 127.605469 493.300781 123.671875 498.722656 120.03125 504.316406 C 117.230469 508.746094 114.113281 512.96875 111.457031 517.488281 C 110.96875 518.425781 110.082031 519.753906 109.609375 520.539062 C 108.558594 522.480469 107.324219 525.058594 104.699219 523.546875 Z M 104.699219 523.546875 " fill-opacity="1" fill-rule="nonzero"/></g></g></g></svg>