<svg xmlns="http://www.w3.org/2000/svg" xmlns:xlink="http://www.w3.org/1999/xlink" width="1920" zoomAndPan="magnify" viewBox="0 0 1440 809.999993" height="1080" preserveAspectRatio="xMidYMid meet" version="1.0"><defs><clipPath id="5bbe63e44b"><path d="M 800 713 L 907 713 L 907 806 L 800 806 Z M 800 713 " clip-rule="nonzero"/></clipPath><clipPath id="3122bcd141"><path d="M 776.535156 761.585938 L 813.214844 704.03125 L 919.472656 771.746094 L 882.792969 829.304688 Z M 776.535156 761.585938 " clip-rule="nonzero"/></clipPath><clipPath id="434bc7be2a"><path d="M 776.535156 761.585938 L 813.214844 704.03125 L 919.472656 771.746094 L 882.792969 829.304688 Z M 776.535156 761.585938 " clip-rule="nonzero"/></clipPath><clipPath id="54f86bbae9"><path d="M 833 670 L 899 670 L 899 728 L 833 728 Z M 833 670 " clip-rule="nonzero"/></clipPath><clipPath id="64f936ad0e"><path d="M 900.335938 673.15625 L 885.820312 729.984375 L 826.195312 714.753906 L 840.710938 657.925781 Z M 900.335938 673.15625 " clip-rule="nonzero"/></clipPath><clipPath id="46d1885c14"><path d="M 833.460938 686.316406 C 832.722656 689.195312 833.691406 692.242188 835.953125 694.171875 L 872.425781 725.300781 C 875 727.5 878.53125 728.214844 881.761719 727.191406 C 884.992188 726.164062 887.464844 723.546875 888.300781 720.265625 L 897.863281 682.824219 C 898.703125 679.542969 897.789062 676.058594 895.445312 673.609375 C 893.105469 671.164062 889.664062 670.097656 886.347656 670.792969 L 839.414062 680.617188 C 836.503906 681.226562 834.195312 683.433594 833.460938 686.316406 Z M 833.460938 686.316406 " clip-rule="nonzero"/></clipPath><clipPath id="9306736220"><path d="M 0 0.078125 L 65.800781 0.078125 L 65.800781 58 L 0 58 Z M 0 0.078125 " clip-rule="nonzero"/></clipPath><clipPath id="3691f97f11"><path d="M 67.335938 3.15625 L 52.820312 59.984375 L -6.804688 44.753906 L 7.710938 -12.074219 Z M 67.335938 3.15625 " clip-rule="nonzero"/></clipPath><clipPath id="c51cb163d0"><path d="M 0.460938 16.316406 C -0.277344 19.195312 0.691406 22.242188 2.953125 24.171875 L 39.425781 55.300781 C 42 57.5 45.53125 58.214844 48.761719 57.191406 C 51.992188 56.164062 54.464844 53.546875 55.300781 50.265625 L 64.863281 12.824219 C 65.703125 9.542969 64.789062 6.058594 62.445312 3.609375 C 60.105469 1.164062 56.664062 0.0976562 53.347656 0.792969 L 6.414062 10.617188 C 3.503906 11.226562 1.195312 13.433594 0.460938 16.316406 Z M 0.460938 16.316406 " clip-rule="nonzero"/></clipPath><clipPath id="13f832d163"><rect x="0" width="66" y="0" height="58"/></clipPath><clipPath id="621f0bb3f2"><path d="M 157.3125 251.320312 L 833 251.320312 L 833 693.277344 L 157.3125 693.277344 Z M 157.3125 251.320312 " clip-rule="nonzero"/></clipPath><clipPath id="1d4d08f816"><path d="M 195.5625 251.320312 L 794.257812 251.320312 C 804.402344 251.320312 814.128906 255.347656 821.304688 262.523438 C 828.476562 269.695312 832.507812 279.425781 832.507812 289.570312 L 832.507812 655.027344 C 832.507812 665.171875 828.476562 674.902344 821.304688 682.074219 C 814.128906 689.246094 804.402344 693.277344 794.257812 693.277344 L 195.5625 693.277344 C 185.417969 693.277344 175.691406 689.246094 168.515625 682.074219 C 161.34375 674.902344 157.3125 665.171875 157.3125 655.027344 L 157.3125 289.570312 C 157.3125 279.425781 161.34375 269.695312 168.515625 262.523438 C 175.691406 255.347656 185.417969 251.320312 195.5625 251.320312 Z M 195.5625 251.320312 " clip-rule="nonzero"/></clipPath><clipPath id="67ea615dd0"><path d="M 0.3125 0.320312 L 675.558594 0.320312 L 675.558594 442.277344 L 0.3125 442.277344 Z M 0.3125 0.320312 " clip-rule="nonzero"/></clipPath><clipPath id="11748a4697"><path d="M 38.5625 0.320312 L 637.257812 0.320312 C 647.402344 0.320312 657.128906 4.347656 664.304688 11.523438 C 671.476562 18.695312 675.507812 28.425781 675.507812 38.570312 L 675.507812 404.027344 C 675.507812 414.171875 671.476562 423.902344 664.304688 431.074219 C 657.128906 438.246094 647.402344 442.277344 637.257812 442.277344 L 38.5625 442.277344 C 28.417969 442.277344 18.691406 438.246094 11.515625 431.074219 C 4.34375 423.902344 0.3125 414.171875 0.3125 404.027344 L 0.3125 38.570312 C 0.3125 28.425781 4.34375 18.695312 11.515625 11.523438 C 18.691406 4.347656 28.417969 0.320312 38.5625 0.320312 Z M 38.5625 0.320312 " clip-rule="nonzero"/></clipPath><clipPath id="24282d97cb"><rect x="0" width="676" y="0" height="443"/></clipPath><clipPath id="e5abfc484d"><path d="M 86.394531 302.898438 L 776.953125 302.898438 L 776.953125 744.855469 L 86.394531 744.855469 Z M 86.394531 302.898438 " clip-rule="nonzero"/></clipPath><clipPath id="b5493e04dc"><path d="M 124.644531 302.898438 L 738.285156 302.898438 C 748.429688 302.898438 758.160156 306.925781 765.332031 314.101562 C 772.503906 321.273438 776.535156 331.003906 776.535156 341.148438 L 776.535156 706.605469 C 776.535156 716.75 772.503906 726.480469 765.332031 733.652344 C 758.160156 740.824219 748.429688 744.855469 738.285156 744.855469 L 124.644531 744.855469 C 114.5 744.855469 104.769531 740.824219 97.597656 733.652344 C 90.425781 726.480469 86.394531 716.75 86.394531 706.605469 L 86.394531 341.148438 C 86.394531 331.003906 90.425781 321.273438 97.597656 314.101562 C 104.769531 306.925781 114.5 302.898438 124.644531 302.898438 Z M 124.644531 302.898438 " clip-rule="nonzero"/></clipPath><clipPath id="f50afd6b20"><path d="M 0.394531 0.898438 L 690.640625 0.898438 L 690.640625 442.855469 L 0.394531 442.855469 Z M 0.394531 0.898438 " clip-rule="nonzero"/></clipPath><clipPath id="92f9355a7c"><path d="M 38.644531 0.898438 L 652.285156 0.898438 C 662.429688 0.898438 672.160156 4.925781 679.332031 12.101562 C 686.503906 19.273438 690.535156 29.003906 690.535156 39.148438 L 690.535156 404.605469 C 690.535156 414.75 686.503906 424.480469 679.332031 431.652344 C 672.160156 438.824219 662.429688 442.855469 652.285156 442.855469 L 38.644531 442.855469 C 28.5 442.855469 18.769531 438.824219 11.597656 431.652344 C 4.425781 424.480469 0.394531 414.75 0.394531 404.605469 L 0.394531 39.148438 C 0.394531 29.003906 4.425781 19.273438 11.597656 12.101562 C 18.769531 4.925781 28.5 0.898438 38.644531 0.898438 Z M 38.644531 0.898438 " clip-rule="nonzero"/></clipPath><clipPath id="548d8a6bf2"><rect x="0" width="691" y="0" height="443"/></clipPath><clipPath id="c364d242c2"><path d="M 45 151 L 144 151 L 144 271 L 45 271 Z M 45 151 " clip-rule="nonzero"/></clipPath><clipPath id="77877343bd"><path d="M 7.585938 191.019531 L 68.222656 138.449219 L 165.007812 250.082031 L 104.375 302.652344 Z M 7.585938 191.019531 " clip-rule="nonzero"/></clipPath><clipPath id="7a66b87b32"><path d="M 7.585938 191.019531 L 68.222656 138.449219 L 165.007812 250.082031 L 104.375 302.652344 Z M 7.585938 191.019531 " clip-rule="nonzero"/></clipPath><clipPath id="cab40a3cc3"><path d="M 7.585938 191.019531 L 68.222656 138.449219 L 165.007812 250.082031 L 104.375 302.652344 Z M 7.585938 191.019531 " clip-rule="nonzero"/></clipPath><clipPath id="9ce976c5e6"><path d="M 3 258 L 88 258 L 88 366 L 3 366 Z M 3 258 " clip-rule="nonzero"/></clipPath><clipPath id="2bd3d7b3e9"><path d="M 31.410156 251.320312 L 105.113281 284.921875 L 56.890625 390.699219 L -16.808594 357.097656 Z M 31.410156 251.320312 " clip-rule="nonzero"/></clipPath><clipPath id="a83abec8c1"><path d="M 31.410156 251.320312 L 105.113281 284.921875 L 56.890625 390.699219 L -16.808594 357.097656 Z M 31.410156 251.320312 " clip-rule="nonzero"/></clipPath><clipPath id="cf939d80f7"><path d="M 31.410156 251.320312 L 105.113281 284.921875 L 56.890625 390.699219 L -16.808594 357.097656 Z M 31.410156 251.320312 " clip-rule="nonzero"/></clipPath><clipPath id="865f6bee42"><path d="M 268.691406 17.097656 L 1224.507812 17.097656 L 1224.507812 163.527344 L 268.691406 163.527344 Z M 268.691406 17.097656 " clip-rule="nonzero"/></clipPath><clipPath id="5da360f643"><path d="M 306.941406 17.097656 L 1186.082031 17.097656 C 1196.226562 17.097656 1205.953125 21.125 1213.128906 28.300781 C 1220.300781 35.472656 1224.332031 45.203125 1224.332031 55.347656 L 1224.332031 125.277344 C 1224.332031 135.421875 1220.300781 145.152344 1213.128906 152.324219 C 1205.953125 159.5 1196.226562 163.527344 1186.082031 163.527344 L 306.941406 163.527344 C 296.796875 163.527344 287.066406 159.5 279.894531 152.324219 C 272.722656 145.152344 268.691406 135.421875 268.691406 125.277344 L 268.691406 55.347656 C 268.691406 45.203125 272.722656 35.472656 279.894531 28.300781 C 287.066406 21.125 296.796875 17.097656 306.941406 17.097656 Z M 306.941406 17.097656 " clip-rule="nonzero"/></clipPath><clipPath id="eaf45728b6"><path d="M 0.691406 0.0976562 L 956.480469 0.0976562 L 956.480469 146.527344 L 0.691406 146.527344 Z M 0.691406 0.0976562 " clip-rule="nonzero"/></clipPath><clipPath id="b3bb27fadf"><path d="M 38.941406 0.0976562 L 918.082031 0.0976562 C 928.226562 0.0976562 937.953125 4.125 945.128906 11.300781 C 952.300781 18.472656 956.332031 28.203125 956.332031 38.347656 L 956.332031 108.277344 C 956.332031 118.421875 952.300781 128.152344 945.128906 135.324219 C 937.953125 142.5 928.226562 146.527344 918.082031 146.527344 L 38.941406 146.527344 C 28.796875 146.527344 19.066406 142.5 11.894531 135.324219 C 4.722656 128.152344 0.691406 118.421875 0.691406 108.277344 L 0.691406 38.347656 C 0.691406 28.203125 4.722656 18.472656 11.894531 11.300781 C 19.066406 4.125 28.796875 0.0976562 38.941406 0.0976562 Z M 38.941406 0.0976562 " clip-rule="nonzero"/></clipPath><clipPath id="ab49c1aa8a"><rect x="0" width="957" y="0" height="147"/></clipPath><clipPath id="3ff81ba087"><path d="M 249.195312 44.953125 L 1203 44.953125 L 1203 173.777344 L 249.195312 173.777344 Z M 249.195312 44.953125 " clip-rule="nonzero"/></clipPath><clipPath id="55287009c0"><path d="M 287.445312 44.953125 L 1164.710938 44.953125 C 1174.855469 44.953125 1184.585938 48.984375 1191.757812 56.15625 C 1198.933594 63.328125 1202.960938 73.058594 1202.960938 83.203125 L 1202.960938 135.527344 C 1202.960938 145.671875 1198.933594 155.402344 1191.757812 162.574219 C 1184.585938 169.746094 1174.855469 173.777344 1164.710938 173.777344 L 287.445312 173.777344 C 277.300781 173.777344 267.570312 169.746094 260.398438 162.574219 C 253.226562 155.402344 249.195312 145.671875 249.195312 135.527344 L 249.195312 83.203125 C 249.195312 73.058594 253.226562 63.328125 260.398438 56.15625 C 267.570312 48.984375 277.300781 44.953125 287.445312 44.953125 Z M 287.445312 44.953125 " clip-rule="nonzero"/></clipPath><clipPath id="14ebaa0556"><path d="M 0.195312 0.953125 L 954 0.953125 L 954 129.777344 L 0.195312 129.777344 Z M 0.195312 0.953125 " clip-rule="nonzero"/></clipPath><clipPath id="9c449f545d"><path d="M 38.445312 0.953125 L 915.710938 0.953125 C 925.855469 0.953125 935.585938 4.984375 942.757812 12.15625 C 949.933594 19.328125 953.960938 29.058594 953.960938 39.203125 L 953.960938 91.527344 C 953.960938 101.671875 949.933594 111.402344 942.757812 118.574219 C 935.585938 125.746094 925.855469 129.777344 915.710938 129.777344 L 38.445312 129.777344 C 28.300781 129.777344 18.570312 125.746094 11.398438 118.574219 C 4.226562 111.402344 0.195312 101.671875 0.195312 91.527344 L 0.195312 39.203125 C 0.195312 29.058594 4.226562 19.328125 11.398438 12.15625 C 18.570312 4.984375 28.300781 0.953125 38.445312 0.953125 Z M 38.445312 0.953125 " clip-rule="nonzero"/></clipPath><clipPath id="476ec099e4"><rect x="0" width="954" y="0" height="130"/></clipPath><clipPath id="1e003420ae"><path d="M 249.195312 44.953125 L 367.695312 44.953125 L 367.695312 163.453125 L 249.195312 163.453125 Z M 249.195312 44.953125 " clip-rule="nonzero"/></clipPath><clipPath id="e58d78a6ec"><path d="M 1095 66 L 1202.953125 66 L 1202.953125 173.769531 L 1095 173.769531 Z M 1095 66 " clip-rule="nonzero"/></clipPath><clipPath id="bc25cc5b73"><path d="M 1208 157 L 1292 157 L 1292 237 L 1208 237 Z M 1208 157 " clip-rule="nonzero"/></clipPath><clipPath id="67125d49f1"><path d="M 1296.195312 182.191406 L 1248.765625 241.265625 L 1188.992188 193.269531 L 1236.425781 134.199219 Z M 1296.195312 182.191406 " clip-rule="nonzero"/></clipPath><clipPath id="40830238e0"><path d="M 1212.699219 163.746094 C 1208.128906 169.441406 1207.488281 177.34375 1211.082031 183.703125 L 1238 231.3125 C 1239.742188 234.390625 1242.898438 236.410156 1246.425781 236.695312 C 1249.953125 236.980469 1253.394531 235.5 1255.609375 232.738281 L 1289.335938 190.738281 C 1291.550781 187.976562 1292.253906 184.296875 1291.214844 180.914062 C 1290.171875 177.53125 1287.519531 174.882812 1284.136719 173.847656 L 1231.835938 157.851562 C 1224.851562 155.714844 1217.273438 158.050781 1212.699219 163.746094 Z M 1212.699219 163.746094 " clip-rule="nonzero"/></clipPath><clipPath id="e700f91da4"><path d="M 0 0 L 84 0 L 84 80 L 0 80 Z M 0 0 " clip-rule="nonzero"/></clipPath><clipPath id="3f62cfcb10"><path d="M 88.195312 25.191406 L 40.765625 84.265625 L -19.007812 36.269531 L 28.425781 -22.800781 Z M 88.195312 25.191406 " clip-rule="nonzero"/></clipPath><clipPath id="5f2637027d"><path d="M 4.699219 6.746094 C 0.128906 12.441406 -0.511719 20.34375 3.082031 26.703125 L 30 74.3125 C 31.742188 77.390625 34.898438 79.410156 38.425781 79.695312 C 41.953125 79.980469 45.394531 78.5 47.609375 75.738281 L 81.335938 33.738281 C 83.550781 30.976562 84.253906 27.296875 83.214844 23.914062 C 82.171875 20.53125 79.519531 17.882812 76.136719 16.847656 L 23.835938 0.851562 C 16.851562 -1.285156 9.273438 1.050781 4.699219 6.746094 Z M 4.699219 6.746094 " clip-rule="nonzero"/></clipPath><clipPath id="8c6027ef9a"><rect x="0" width="84" y="0" height="80"/></clipPath><clipPath id="e8ca0008c5"><path d="M 1231 105 L 1283 105 L 1283 149 L 1231 149 Z M 1231 105 " clip-rule="nonzero"/></clipPath><clipPath id="e770335c5d"><path d="M 1272.289062 102.488281 L 1284.597656 144.894531 L 1238.007812 158.417969 L 1225.699219 116.011719 Z M 1272.289062 102.488281 " clip-rule="nonzero"/></clipPath><clipPath id="01fd45940e"><path d="M 1231.855469 137.222656 C 1233.144531 141.664062 1237.007812 144.867188 1241.605469 145.316406 L 1270.300781 148.113281 C 1273.824219 148.457031 1277.289062 147.03125 1279.550781 144.308594 C 1281.8125 141.582031 1282.574219 137.914062 1281.585938 134.515625 L 1275.308594 112.882812 C 1274.320312 109.484375 1271.710938 106.792969 1268.34375 105.703125 C 1264.976562 104.613281 1261.285156 105.265625 1258.496094 107.441406 L 1235.757812 125.167969 C 1232.113281 128.007812 1230.566406 132.785156 1231.855469 137.222656 Z M 1231.855469 137.222656 " clip-rule="nonzero"/></clipPath><clipPath id="596b956b29"><path d="M 0 0 L 51.800781 0 L 51.800781 43.558594 L 0 43.558594 Z M 0 0 " clip-rule="nonzero"/></clipPath><clipPath id="a9e70703b4"><path d="M 41.289062 -2.511719 L 53.597656 39.894531 L 7.007812 53.417969 L -5.300781 11.011719 Z M 41.289062 -2.511719 " clip-rule="nonzero"/></clipPath><clipPath id="238a49e9ea"><path d="M 0.855469 32.222656 C 2.144531 36.664062 6.007812 39.867188 10.605469 40.316406 L 39.300781 43.113281 C 42.824219 43.457031 46.289062 42.03125 48.550781 39.308594 C 50.8125 36.582031 51.574219 32.914062 50.585938 29.515625 L 44.308594 7.882812 C 43.320312 4.484375 40.710938 1.792969 37.34375 0.703125 C 33.976562 -0.386719 30.285156 0.265625 27.496094 2.441406 L 4.757812 20.167969 C 1.113281 23.007812 -0.433594 27.785156 0.855469 32.222656 Z M 0.855469 32.222656 " clip-rule="nonzero"/></clipPath><clipPath id="84a49d098a"><rect x="0" width="52" y="0" height="44"/></clipPath><clipPath id="9f0daf7489"><path d="M 153 0 L 247 0 L 247 74 L 153 74 Z M 153 0 " clip-rule="nonzero"/></clipPath><clipPath id="2a97ed7931"><path d="M 150.683594 70.335938 L 170.800781 -3.675781 L 256.398438 19.59375 L 236.277344 93.601562 Z M 150.683594 70.335938 " clip-rule="nonzero"/></clipPath><clipPath id="0c968ed554"><path d="M 246.207031 56.5625 C 248.105469 49.578125 245.367188 42.160156 239.386719 38.085938 L 184.957031 1.007812 C 181.957031 -1.035156 178.15625 -1.503906 174.75 -0.246094 C 171.347656 1.011719 168.761719 3.835938 167.808594 7.339844 L 153.675781 59.320312 C 152.726562 62.820312 153.523438 66.566406 155.824219 69.375 C 158.125 72.183594 161.640625 73.703125 165.261719 73.460938 L 230.96875 69.042969 C 238.191406 68.558594 244.308594 63.546875 246.207031 56.5625 Z M 246.207031 56.5625 " clip-rule="nonzero"/></clipPath><clipPath id="9b21d92076"><path d="M 0 0 L 94 0 L 94 73.921875 L 0 73.921875 Z M 0 0 " clip-rule="nonzero"/></clipPath><clipPath id="1376185562"><path d="M -2.316406 70.335938 L 17.800781 -3.675781 L 103.398438 19.59375 L 83.277344 93.601562 Z M -2.316406 70.335938 " clip-rule="nonzero"/></clipPath><clipPath id="78a9c57d05"><path d="M 93.207031 56.5625 C 95.105469 49.578125 92.367188 42.160156 86.386719 38.085938 L 31.957031 1.007812 C 28.957031 -1.035156 25.15625 -1.503906 21.75 -0.246094 C 18.347656 1.011719 15.761719 3.835938 14.808594 7.339844 L 0.675781 59.320312 C -0.273438 62.820312 0.523438 66.566406 2.824219 69.375 C 5.125 72.183594 8.640625 73.703125 12.261719 73.460938 L 77.96875 69.042969 C 85.191406 68.558594 91.308594 63.546875 93.207031 56.5625 Z M 93.207031 56.5625 " clip-rule="nonzero"/></clipPath><clipPath id="c76a64e4b9"><rect x="0" width="94" y="0" height="74"/></clipPath><clipPath id="f057c6bae2"><path d="M 173 87 L 227 87 L 227 139 L 173 139 Z M 173 87 " clip-rule="nonzero"/></clipPath><clipPath id="3400bb573e"><path d="M 197.109375 143.226562 L 168.503906 108.820312 L 209.855469 74.433594 L 238.464844 108.84375 Z M 197.109375 143.226562 " clip-rule="nonzero"/></clipPath><clipPath id="d28a2077fc"><path d="M 224.148438 91.625 C 221.214844 88.09375 216.378906 86.785156 212.0625 88.351562 L 180.332031 99.863281 C 176.941406 101.09375 174.363281 103.898438 173.421875 107.375 C 172.480469 110.855469 173.289062 114.574219 175.59375 117.347656 L 189.996094 134.667969 C 192.300781 137.441406 195.808594 138.917969 199.402344 138.625 C 202.996094 138.335938 206.222656 136.3125 208.050781 133.203125 L 225.164062 104.109375 C 227.492188 100.148438 227.085938 95.15625 224.148438 91.625 Z M 224.148438 91.625 " clip-rule="nonzero"/></clipPath><clipPath id="37cae9c6fd"><path d="M 0 0 L 54 0 L 54 51.960938 L 0 51.960938 Z M 0 0 " clip-rule="nonzero"/></clipPath><clipPath id="7433b66b9f"><path d="M 24.109375 56.226562 L -4.496094 21.820312 L 36.855469 -12.566406 L 65.464844 21.84375 Z M 24.109375 56.226562 " clip-rule="nonzero"/></clipPath><clipPath id="c56c3f66ca"><path d="M 51.148438 4.625 C 48.214844 1.09375 43.378906 -0.214844 39.0625 1.351562 L 7.332031 12.863281 C 3.941406 14.09375 1.363281 16.898438 0.421875 20.375 C -0.519531 23.855469 0.289062 27.574219 2.59375 30.347656 L 16.996094 47.667969 C 19.300781 50.441406 22.808594 51.917969 26.402344 51.625 C 29.996094 51.335938 33.222656 49.3125 35.050781 46.203125 L 52.164062 17.109375 C 54.492188 13.148438 54.085938 8.15625 51.148438 4.625 Z M 51.148438 4.625 " clip-rule="nonzero"/></clipPath><clipPath id="69fc3085b0"><rect x="0" width="54" y="0" height="52"/></clipPath></defs><g clip-path="url(#5bbe63e44b)"><g clip-path="url(#3122bcd141)"><g clip-path="url(#434bc7be2a)"><path fill="#ff743e" d="M 903.257812 794.992188 C 901.457031 795.421875 899.679688 794.148438 899.054688 792.496094 C 898.796875 791.816406 898.675781 791.085938 898.457031 790.394531 C 897.789062 788.121094 896.9375 785.886719 895.640625 783.890625 C 892.636719 779.324219 887.90625 775.949219 882.589844 774.648438 C 879.167969 773.824219 875.609375 774.105469 872.152344 774.582031 C 871.90625 781.46875 870.339844 788.398438 866.871094 794.398438 C 863.398438 800.390625 857.265625 806.046875 849.957031 805.898438 C 846.242188 805.753906 842.480469 803.613281 840.921875 800.164062 C 839.886719 797.84375 839.800781 795.234375 840.160156 792.75 C 841.144531 786.324219 845.570312 781.074219 850.320312 776.917969 C 854.492188 773.191406 859.460938 770.402344 864.8125 768.789062 C 863.765625 757.605469 859.359375 747.175781 847.964844 743.363281 C 848.589844 750.6875 844.320312 760.625 838.820312 765.402344 C 832.941406 770.773438 824.472656 770.582031 819.003906 764.730469 C 812.539062 758.0625 815.316406 747.121094 821.378906 741.15625 C 825.941406 736.875 832.316406 734.964844 838.460938 734.605469 C 836.554688 730.550781 833.796875 726.5 830.214844 723.796875 C 827.5625 722.03125 824.503906 720.550781 821.234375 720.917969 C 818.128906 721.316406 815.105469 722.449219 812.347656 723.90625 C 810.597656 724.996094 808.917969 726.269531 807.628906 727.894531 C 807.160156 728.566406 806.921875 729.359375 806.503906 730.058594 C 804.84375 732.933594 800.523438 732.15625 800.152344 728.800781 C 800.125 724.667969 803.511719 721.511719 806.558594 719.167969 C 809.394531 717.027344 812.738281 715.667969 816.125 714.667969 C 817.730469 714.207031 819.355469 713.820312 821.027344 713.726562 C 826.492188 713.308594 831.792969 715.714844 835.9375 719.128906 C 840.796875 723.492188 844.472656 729.222656 846.5 735.425781 C 862.636719 739.15625 870.28125 751.554688 871.902344 767.3125 C 876.082031 766.800781 880.375 766.617188 884.488281 767.6875 C 891.925781 769.527344 898.523438 774.492188 902.386719 781.101562 C 903.644531 783.242188 904.546875 785.574219 905.253906 787.953125 C 905.523438 788.929688 905.863281 789.898438 905.988281 790.90625 C 906.167969 792.683594 905.085938 794.609375 903.257812 794.992188 Z M 860.953125 790.203125 C 863.238281 785.96875 864.429688 781.203125 864.804688 776.425781 C 857.808594 778.835938 845.640625 788.53125 847.363281 796.828125 C 847.703125 798.007812 849.007812 798.535156 850.125 798.667969 C 851.636719 798.808594 853.070312 798.160156 854.347656 797.414062 C 857.203125 795.710938 859.378906 793.101562 860.953125 790.203125 Z M 835.945312 757.980469 C 837.503906 755.941406 838.398438 754.078125 839.308594 751.8125 C 840.652344 748.351562 841.097656 745.523438 840.605469 741.824219 C 835.253906 741.675781 828.597656 743.292969 825.191406 747.71875 C 823.347656 750.429688 821.910156 753.882812 822.753906 757.191406 C 823.617188 759.980469 826.421875 762.117188 829.363281 762.09375 C 832.09375 761.980469 834.296875 759.996094 835.945312 757.980469 Z M 835.945312 757.980469 " fill-opacity="1" fill-rule="nonzero"/></g></g></g><g clip-path="url(#54f86bbae9)"><g clip-path="url(#64f936ad0e)"><g clip-path="url(#46d1885c14)"><g transform="matrix(1, 0, 0, 1, 833, 670)"><g clip-path="url(#13f832d163)"><g clip-path="url(#9306736220)"><g clip-path="url(#3691f97f11)"><g clip-path="url(#c51cb163d0)"><path fill="#0cd380" d="M 68.761719 -2.433594 L 51.390625 65.574219 L -8.230469 50.34375 L 9.140625 -17.664062 Z M 68.761719 -2.433594 " fill-opacity="1" fill-rule="nonzero"/></g></g></g></g></g></g></g></g><g clip-path="url(#621f0bb3f2)"><g clip-path="url(#1d4d08f816)"><g transform="matrix(1, 0, 0, 1, 157, 251)"><g clip-path="url(#24282d97cb)"><g clip-path="url(#67ea615dd0)"><g clip-path="url(#11748a4697)"><path fill="#1ca379" d="M 0.3125 0.320312 L 675.335938 0.320312 L 675.335938 442.277344 L 0.3125 442.277344 Z M 0.3125 0.320312 " fill-opacity="1" fill-rule="nonzero"/></g></g></g></g></g></g><g clip-path="url(#e5abfc484d)"><g clip-path="url(#b5493e04dc)"><g transform="matrix(1, 0, 0, 1, 86, 302)"><g clip-path="url(#548d8a6bf2)"><g clip-path="url(#f50afd6b20)"><g clip-path="url(#92f9355a7c)"><path fill="#ffbd59" d="M 0.394531 0.898438 L 690.953125 0.898438 L 690.953125 442.855469 L 0.394531 442.855469 Z M 0.394531 0.898438 " fill-opacity="1" fill-rule="nonzero"/></g></g></g></g></g></g><g clip-path="url(#c364d242c2)"><g clip-path="url(#77877343bd)"><g clip-path="url(#7a66b87b32)"><g clip-path="url(#cab40a3cc3)"><path fill="#1ca379" d="M 138.695312 270.707031 C 136.527344 270.59375 134.960938 268.570312 134.8125 266.503906 C 134.75 265.65625 134.859375 264.796875 134.847656 263.945312 C 134.859375 261.167969 134.652344 258.375 133.867188 255.703125 C 132.027344 249.570312 127.847656 244.207031 122.3125 240.976562 C 118.742188 238.910156 114.65625 238.042969 110.613281 237.429688 C 108.027344 245.085938 103.941406 252.351562 98.03125 257.9375 C 92.121094 263.515625 83.335938 267.828125 75.175781 265.230469 C 71.050781 263.835938 67.546875 260.179688 66.957031 255.785156 C 66.566406 252.835938 67.351562 249.871094 68.585938 247.203125 C 71.847656 240.308594 78.578125 235.882812 85.3125 232.792969 C 91.246094 229.996094 97.761719 228.515625 104.316406 228.484375 C 106.890625 215.566406 105.441406 202.382812 93.925781 194.3125 C 92.167969 202.75 84.039062 212.492188 76.261719 216.03125 C 67.855469 220.109375 58.40625 217.078125 54.230469 208.683594 C 49.210938 199.042969 56 187.675781 64.808594 182.988281 C 71.371094 179.695312 79.171875 179.671875 86.195312 181.3125 C 85.410156 176.125 83.671875 170.652344 80.5625 166.425781 C 78.171875 163.5625 75.234375 160.882812 71.441406 160.207031 C 67.816406 159.617188 64.046875 159.886719 60.457031 160.605469 C 58.125 161.246094 55.8125 162.121094 53.816406 163.515625 C 53.066406 164.117188 52.535156 164.929688 51.828125 165.574219 C 49 168.25 44.410156 165.941406 45.117188 162.050781 C 46.476562 157.394531 51.335938 154.976562 55.546875 153.359375 C 59.453125 151.894531 63.660156 151.480469 67.800781 151.480469 C 69.753906 151.5 71.710938 151.605469 73.621094 152.058594 C 79.898438 153.402344 85.042969 157.871094 88.554688 163.085938 C 92.546875 169.605469 94.75 177.265625 94.945312 184.910156 C 111.816406 194.464844 116.238281 210.9375 112.773438 229.183594 C 117.640625 230 122.519531 231.21875 126.78125 233.785156 C 134.515625 238.332031 140.257812 246.101562 142.378906 254.8125 C 143.074219 257.636719 143.300781 260.554688 143.296875 263.460938 C 143.273438 264.648438 143.332031 265.851562 143.132812 267.023438 C 142.738281 269.085938 140.875 270.882812 138.695312 270.707031 Z M 92.792969 251.253906 C 96.777344 247.257812 99.71875 242.300781 101.742188 237.058594 C 93.078125 237.4375 76.160156 244.285156 75.308594 254.179688 C 75.292969 255.617188 76.582031 256.640625 77.789062 257.164062 C 79.441406 257.824219 81.269531 257.574219 82.953125 257.160156 C 86.734375 256.195312 90.050781 253.988281 92.792969 251.253906 Z M 75.523438 206.738281 C 77.953125 204.964844 79.589844 203.171875 81.371094 200.925781 C 84.039062 197.484375 85.488281 194.457031 86.179688 190.136719 C 80.214844 188.191406 72.199219 187.792969 66.890625 191.632812 C 63.90625 194.0625 61.132812 197.464844 60.972656 201.460938 C 61.003906 204.886719 63.4375 208.21875 66.75 209.167969 C 69.851562 209.949219 72.996094 208.453125 75.523438 206.738281 Z M 75.523438 206.738281 " fill-opacity="1" fill-rule="nonzero"/></g></g></g></g><g clip-path="url(#9ce976c5e6)"><g clip-path="url(#2bd3d7b3e9)"><g clip-path="url(#a83abec8c1)"><g clip-path="url(#cf939d80f7)"><path fill="#ff743e" d="M 80.941406 312.105469 C 74.257812 303.707031 66.6875 295.980469 59.769531 287.75 C 54.625 281.300781 49.667969 274.671875 43.605469 269.027344 C 41.296875 266.527344 36.8125 263.511719 40.222656 259.984375 C 43.847656 256.984375 46.441406 261.371094 48.839844 263.640625 C 54.835938 269.292969 59.980469 275.734375 64.96875 282.273438 C 71.613281 289.941406 78.347656 297.53125 85.085938 305.121094 C 85.816406 305.976562 86.476562 306.839844 87.039062 307.738281 C 89.9375 311.777344 83.894531 316.164062 80.941406 312.105469 Z M 9.480469 311.671875 C 6.503906 310.410156 6.636719 305.78125 9.722656 304.746094 C 12.289062 303.808594 14.535156 306.125 16.867188 306.894531 C 21.519531 309.042969 26.21875 311.078125 30.925781 313.089844 C 44.988281 319.464844 59.511719 325.015625 73.734375 330.566406 L 73.730469 330.566406 C 76.601562 332.960938 74.097656 337.558594 70.527344 336.71875 C 66.804688 335.949219 63.226562 334.257812 59.683594 332.984375 C 42.667969 326.597656 25.984375 319.277344 9.480469 311.671875 Z M 3.6875 362.445312 C 3.425781 360.441406 4.988281 358.5 6.996094 358.300781 C 9.371094 357.96875 11.734375 357.476562 14.132812 357.375 C 20.71875 356.445312 27.335938 355.832031 33.953125 355.191406 C 40.808594 354.394531 47.679688 353.71875 54.554688 353.058594 C 58.34375 352.667969 62.113281 352.105469 65.894531 351.621094 C 67.441406 351.496094 69.070312 351.039062 70.59375 351.472656 C 72.542969 352.003906 73.226562 354.710938 71.6875 356.074219 C 70.8125 356.925781 69.554688 357.140625 68.414062 357.445312 C 58.910156 359.582031 49.171875 360.289062 39.519531 361.480469 C 31.953125 362.515625 24.316406 363.007812 16.785156 364.289062 C 15.28125 364.621094 12.96875 364.882812 11.652344 365.09375 C 8.503906 365.746094 4.464844 366.792969 3.6875 362.445312 Z M 3.6875 362.445312 " fill-opacity="1" fill-rule="nonzero"/></g></g></g></g><g clip-path="url(#865f6bee42)"><g clip-path="url(#5da360f643)"><g transform="matrix(1, 0, 0, 1, 268, 17)"><g clip-path="url(#ab49c1aa8a)"><g clip-path="url(#eaf45728b6)"><g clip-path="url(#b3bb27fadf)"><path fill="#1ca379" d="M 0.691406 0.0976562 L 956.507812 0.0976562 L 956.507812 146.527344 L 0.691406 146.527344 Z M 0.691406 0.0976562 " fill-opacity="1" fill-rule="nonzero"/></g></g></g></g></g></g><g clip-path="url(#3ff81ba087)"><g clip-path="url(#55287009c0)"><g transform="matrix(1, 0, 0, 1, 249, 44)"><g clip-path="url(#476ec099e4)"><g clip-path="url(#14ebaa0556)"><g clip-path="url(#9c449f545d)"><path fill="#ffbd59" d="M 0.195312 0.953125 L 953.796875 0.953125 L 953.796875 129.777344 L 0.195312 129.777344 Z M 0.195312 0.953125 " fill-opacity="1" fill-rule="nonzero"/></g></g></g></g></g></g><g clip-path="url(#1e003420ae)"><path fill="#ff743e" d="M 291.117188 44.953125 L 249.195312 86.875 L 249.195312 163.523438 L 367.765625 44.953125 Z M 291.117188 44.953125 " fill-opacity="1" fill-rule="nonzero"/></g><g clip-path="url(#e58d78a6ec)"><path fill="#ff743e" d="M 1164.851562 173.769531 L 1202.953125 135.667969 L 1202.953125 66.003906 L 1095.1875 173.769531 Z M 1164.851562 173.769531 " fill-opacity="1" fill-rule="nonzero"/></g><g clip-path="url(#bc25cc5b73)"><g clip-path="url(#67125d49f1)"><g clip-path="url(#40830238e0)"><g transform="matrix(1, 0, 0, 1, 1208, 157)"><g clip-path="url(#8c6027ef9a)"><g clip-path="url(#e700f91da4)"><g clip-path="url(#3f62cfcb10)"><g clip-path="url(#5f2637027d)"><path fill="#d2501e" d="M 91.195312 21.457031 L 37.765625 88 L -22.007812 40.007812 L 31.421875 -26.535156 Z M 91.195312 21.457031 " fill-opacity="1" fill-rule="nonzero"/></g></g></g></g></g></g></g></g><g clip-path="url(#e8ca0008c5)"><g clip-path="url(#e770335c5d)"><g clip-path="url(#01fd45940e)"><g transform="matrix(1, 0, 0, 1, 1231, 105)"><g clip-path="url(#84a49d098a)"><g clip-path="url(#596b956b29)"><g clip-path="url(#a9e70703b4)"><g clip-path="url(#238a49e9ea)"><path fill="#0cd380" d="M 39.917969 -7.242188 L 54.972656 44.625 L 8.382812 58.148438 L -6.675781 6.28125 Z M 39.917969 -7.242188 " fill-opacity="1" fill-rule="nonzero"/></g></g></g></g></g></g></g></g><g clip-path="url(#9f0daf7489)"><g clip-path="url(#2a97ed7931)"><g clip-path="url(#0c968ed554)"><g transform="matrix(1, 0, 0, 1, 153, 0.000000000000039746)"><g clip-path="url(#c76a64e4b9)"><g clip-path="url(#9b21d92076)"><g clip-path="url(#1376185562)"><g clip-path="url(#78a9c57d05)"><path fill="#d2501e" d="M -3.453125 74.515625 L 18.941406 -7.859375 L 104.535156 15.410156 L 82.140625 97.785156 Z M -3.453125 74.515625 " fill-opacity="1" fill-rule="nonzero"/></g></g></g></g></g></g></g></g><g clip-path="url(#f057c6bae2)"><g clip-path="url(#3400bb573e)"><g clip-path="url(#d28a2077fc)"><g transform="matrix(1, 0, 0, 1, 173, 87)"><g clip-path="url(#69fc3085b0)"><g clip-path="url(#37cae9c6fd)"><g clip-path="url(#7433b66b9f)"><g clip-path="url(#c56c3f66ca)"><path fill="#0cd380" d="M 27.066406 59.78125 L -7.453125 18.265625 L 33.902344 -16.117188 L 68.417969 25.398438 Z M 27.066406 59.78125 " fill-opacity="1" fill-rule="nonzero"/></g></g></g></g></g></g></g></g></svg>