<?xml version="1.0" encoding="UTF-8" standalone="no"?>
<svg
   width="168.34766"
   zoomAndPan="magnify"
   viewBox="0 0 126.26074 117.2596"
   height="156.34613"
   preserveAspectRatio="xMidYMid"
   version="1.0"
   id="svg238"
   xmlns="http://www.w3.org/2000/svg"
   xmlns:svg="http://www.w3.org/2000/svg">
  <defs
     id="defs68">
    <clipPath
       id="72f702d382">
      <path
         d="m 1258,561 h 127 v 118 h -127 z m 0,0"
         clip-rule="nonzero"
         id="path25" />
    </clipPath>
    <clipPath
       id="dff3ab15d6">
      <path
         d="m 1389.2773,585.53125 -62.1835,97.22266 -95.0079,-60.76172 62.1836,-97.22657 z m 0,0"
         clip-rule="nonzero"
         id="path26" />
    </clipPath>
    <clipPath
       id="d872f5d2e6">
      <path
         d="m 1264.2305,571.73437 -2.125,3.32422 c -5.125,8.01172 -4.8516,18.33594 0.6914,26.06641 l 52.125,72.69141 c 2.0625,2.8789 5.4179,4.54687 8.957,4.45312 3.5391,-0.0937 6.8008,-1.9375 8.707,-4.92187 l 50.4336,-78.85157 c 1.9102,-2.98047 2.2149,-6.71484 0.8125,-9.96484 -1.3984,-3.25391 -4.3164,-5.60156 -7.7929,-6.26563 l -87.8516,-16.83593 c -9.3437,-1.78907 -18.832,2.29297 -23.957,10.30468 z m 0,0"
         clip-rule="nonzero"
         id="path27" />
    </clipPath>
    <clipPath
       id="1ec5187a67">
      <path
         d="M 0,0 H 127 V 117.48047 H 0 Z m 0,0"
         clip-rule="nonzero"
         id="path28" />
    </clipPath>
    <clipPath
       id="ae9da5c437">
      <path
         d="M 131.27734,24.53125 69.09375,121.75391 -25.914062,60.992188 36.269531,-36.234375 Z m 0,0"
         clip-rule="nonzero"
         id="path29" />
    </clipPath>
    <clipPath
       id="cb00a0faaa">
      <path
         d="m 6.230469,10.734375 -2.125,3.324219 c -5.125,8.011718 -4.851563,18.335937 0.691406,26.066406 l 52.125,72.69141 c 2.0625,2.8789 5.417969,4.54687 8.957031,4.45312 3.539063,-0.0937 6.800782,-1.9375 8.707032,-4.92187 L 125.01953,33.496094 c 1.91016,-2.980469 2.21485,-6.714844 0.8125,-9.964844 -1.39844,-3.253906 -4.3164,-5.601562 -7.79297,-6.265625 L 30.1875,0.429688 C 20.84375,-1.359375 11.355469,2.722656 6.230469,10.734375 Z m 0,0"
         clip-rule="nonzero"
         id="path30" />
    </clipPath>
    <clipPath
       id="b399d8f672">
      <rect
         x="0"
         width="127"
         y="0"
         height="118"
         id="rect30" />
    </clipPath>
  </defs>
  <g
     clip-path="url(#72f702d382)"
     id="g126"
     transform="translate(-1258.4425,-561.01365)">
    <g
       clip-path="url(#dff3ab15d6)"
       id="g125">
      <g
         clip-path="url(#d872f5d2e6)"
         id="g124">
        <g
           transform="translate(1258,561)"
           id="g123">
          <g
             clip-path="url(#b399d8f672)"
             id="g122">
            <g
               clip-path="url(#1ec5187a67)"
               id="g121">
              <g
                 clip-path="url(#ae9da5c437)"
                 id="g120">
                <g
                   clip-path="url(#cb00a0faaa)"
                   id="g119">
                  <path
                     fill="#0cd380"
                     d="M 133.50781,20.230469 66.121094,125.58594 -28.511719,65.058594 38.871094,-40.300781 Z m 0,0"
                     fill-opacity="1"
                     fill-rule="nonzero"
                     id="path118" />
                </g>
              </g>
            </g>
          </g>
        </g>
      </g>
    </g>
  </g>
</svg>
