<?xml version="1.0" encoding="UTF-8" standalone="no"?>
<svg
   width="108.77783"
   zoomAndPan="magnify"
   viewBox="0 0 81.583374 71.541732"
   height="95.388977"
   preserveAspectRatio="xMidYMid"
   version="1.0"
   id="svg238"
   xmlns="http://www.w3.org/2000/svg"
   xmlns:svg="http://www.w3.org/2000/svg">
  <defs
     id="defs68">
    <clipPath
       id="f343f218c7">
      <path
         d="m 1323,488 h 83 v 73 h -83 z m 0,0"
         clip-rule="nonzero"
         id="path31" />
    </clipPath>
    <clipPath
       id="aee28c1764">
      <path
         d="m 1384.7461,485.67187 23.1133,70.54688 -71.9531,23.57812 -23.1133,-70.55078 z m 0,0"
         clip-rule="nonzero"
         id="path32" />
    </clipPath>
    <clipPath
       id="ec1dc85f13">
      <path
         d="m 1324.3555,544.53516 c 2.2461,6.85546 8.4414,11.64843 15.6406,12.10156 l 53.7187,3.39453 c 3.5352,0.22266 6.9493,-1.32031 9.1133,-4.12109 2.168,-2.80079 2.8047,-6.49219 1.7032,-9.85547 l -16.4493,-50.19532 c -1.1015,-3.36328 -3.8007,-5.96093 -7.2031,-6.9375 -3.4023,-0.97265 -7.0664,-0.19531 -9.7812,2.07422 l -41.2969,34.52344 c -5.5352,4.62891 -7.6914,12.16016 -5.4453,19.01563 z m 0,0"
         clip-rule="nonzero"
         id="path33" />
    </clipPath>
    <clipPath
       id="eee5f724ab">
      <path
         d="M 0,0 H 82.679688 V 72.398438 H 0 Z m 0,0"
         clip-rule="nonzero"
         id="path34" />
    </clipPath>
    <clipPath
       id="4fe9dbb073">
      <path
         d="M 61.746094,-2.328125 84.859375,68.21875 12.90625,91.796875 -10.207031,21.246094 Z m 0,0"
         clip-rule="nonzero"
         id="path35" />
    </clipPath>
    <clipPath
       id="b8fd036d51">
      <path
         d="m 1.355469,56.535156 c 2.246093,6.855469 8.441406,11.648438 15.640625,12.101563 l 53.71875,3.394531 c 3.535156,0.222656 6.949218,-1.320312 9.113281,-4.121094 2.167969,-2.800781 2.804687,-6.492187 1.703125,-9.855468 L 65.082031,7.859375 C 63.980469,4.496094 61.28125,1.898438 57.878906,0.921875 54.476562,-0.0507812 50.8125,0.726562 48.097656,2.996094 L 6.800781,37.519531 C 1.265625,42.148438 -0.890625,49.679688 1.355469,56.535156 Z m 0,0"
         clip-rule="nonzero"
         id="path36" />
    </clipPath>
    <clipPath
       id="e0bec32d04">
      <rect
         x="0"
         width="83"
         y="0"
         height="73"
         id="rect36" />
    </clipPath>
  </defs>
  <g
     clip-path="url(#f343f218c7)"
     id="g134"
     transform="translate(-1323.4781,-488.51068)">
    <g
       clip-path="url(#aee28c1764)"
       id="g133">
      <g
         clip-path="url(#ec1dc85f13)"
         id="g132">
        <g
           transform="translate(1323,488)"
           id="g131">
          <g
             clip-path="url(#e0bec32d04)"
             id="g130">
            <g
               clip-path="url(#eee5f724ab)"
               id="g129">
              <g
                 clip-path="url(#4fe9dbb073)"
                 id="g128">
                <g
                   clip-path="url(#b8fd036d51)"
                   id="g127">
                  <path
                     fill="#ff743e"
                     d="M 60.179688,-7.105469 86.425781,72.996094 14.472656,96.574219 -11.773438,16.46875 Z m 0,0"
                     fill-opacity="1"
                     fill-rule="nonzero"
                     id="path126" />
                </g>
              </g>
            </g>
          </g>
        </g>
      </g>
    </g>
  </g>
</svg>
