<?xml version="1.0" encoding="UTF-8" standalone="no"?>
<svg
   width="90.352783"
   zoomAndPan="magnify"
   viewBox="0 0 67.764587 67.535293"
   height="90.047058"
   preserveAspectRatio="xMidYMid"
   version="1.0"
   id="svg238"
   xmlns="http://www.w3.org/2000/svg"
   xmlns:svg="http://www.w3.org/2000/svg">
  <defs
     id="defs68">
    <clipPath
       id="062f755c31">
      <path
         d="m 312,615 h 69 v 69 h -69 z m 0,0"
         clip-rule="nonzero"
         id="path43" />
    </clipPath>
    <clipPath
       id="6c42686091">
      <path
         d="m 298.22266,641.43359 55.39453,-36.66015 29.14843,44.03906 -55.39453,36.66016 z m 0,0"
         clip-rule="nonzero"
         id="path44" />
    </clipPath>
    <clipPath
       id="ba8ecfe319">
      <path
         d="m 317.4375,628.71875 16.85156,-11.15625 c 3.73438,-2.46875 8.63281,-2.27344 12.15625,0.48828 l 32.01953,25.07422 c 1.36719,1.07031 2.13672,2.73437 2.07032,4.46875 -0.0703,1.73828 -0.96875,3.33594 -2.41797,4.29297 l -46.21094,30.58594 c -1.44922,0.96093 -3.27344,1.16406 -4.89844,0.55078 -1.625,-0.61719 -2.85547,-1.97657 -3.30469,-3.65235 l -10.57031,-39.27343 c -1.16406,-4.32422 0.57031,-8.90625 4.30469,-11.37891 z m 0,0"
         clip-rule="nonzero"
         id="path45" />
    </clipPath>
    <clipPath
       id="0505aa774f">
      <path
         d="M 0,0 H 68.640625 V 68.761719 H 0 Z m 0,0"
         clip-rule="nonzero"
         id="path46" />
    </clipPath>
    <clipPath
       id="8043fca8bd">
      <path
         d="M -13.777344,26.433594 41.617188,-10.226562 70.765625,33.8125 15.371094,70.472656 Z m 0,0"
         clip-rule="nonzero"
         id="path47" />
    </clipPath>
    <clipPath
       id="7c65bda40f">
      <path
         d="M 5.4375,13.71875 22.289062,2.5625 c 3.734376,-2.46875 8.632813,-2.273438 12.15625,0.488281 L 66.464844,28.125 c 1.367187,1.070312 2.136718,2.734375 2.070312,4.46875 -0.07031,1.738281 -0.96875,3.335938 -2.417968,4.292969 L 19.90625,67.472656 c -1.449219,0.960938 -3.273438,1.164063 -4.898438,0.550782 -1.625,-0.617188 -2.855468,-1.976563 -3.304687,-3.652344 L 1.132812,25.097656 C -0.03125,20.773438 1.703125,16.191406 5.4375,13.71875 Z m 0,0"
         clip-rule="nonzero"
         id="path48" />
    </clipPath>
    <clipPath
       id="53e216b398">
      <rect
         x="0"
         width="69"
         y="0"
         height="69"
         id="rect48" />
    </clipPath>
  </defs>
  <g
     clip-path="url(#062f755c31)"
     id="g150"
     transform="translate(-312.77453,-615.83686)">
    <g
       clip-path="url(#6c42686091)"
       id="g149">
      <g
         clip-path="url(#ba8ecfe319)"
         id="g148">
        <g
           transform="translate(312,615)"
           id="g147">
          <g
             clip-path="url(#53e216b398)"
             id="g146">
            <g
               clip-path="url(#0505aa774f)"
               id="g145">
              <g
                 clip-path="url(#8043fca8bd)"
                 id="g144">
                <g
                   clip-path="url(#7c65bda40f)"
                   id="g143">
                  <path
                     fill="#ff743e"
                     d="M -15.496094,27.574219 43.164062,-11.253906 72.3125,32.785156 13.652344,71.613281 Z m 0,0"
                     fill-opacity="1"
                     fill-rule="nonzero"
                     id="path142" />
                </g>
              </g>
            </g>
          </g>
        </g>
      </g>
    </g>
  </g>
</svg>
