<?xml version="1.0" encoding="UTF-8" standalone="no"?>
<svg
   width="240.11133"
   zoomAndPan="magnify"
   viewBox="0 0 180.0835 123.74538"
   height="164.99384"
   preserveAspectRatio="xMidYMid"
   version="1.0"
   id="svg238"
   xmlns="http://www.w3.org/2000/svg"
   xmlns:svg="http://www.w3.org/2000/svg">
  <defs
     id="defs68">
    <clipPath
       id="3d2a418084">
      <path
         d="m 1143,623 h 181 v 124 h -181 z m 0,0"
         clip-rule="nonzero"
         id="path5" />
    </clipPath>
    <clipPath
       id="beb68dd688">
      <path
         d="m 1123.5234,712.64844 29.5274,-99.19532 182.582,54.34766 L 1306.1055,767 Z m 0,0"
         clip-rule="nonzero"
         id="path6" />
    </clipPath>
    <clipPath
       id="95ffce6d6d">
      <path
         d="m 1123.5234,712.64844 29.5274,-99.19532 182.582,54.34766 L 1306.1055,767 Z m 0,0"
         clip-rule="nonzero"
         id="path7" />
    </clipPath>
  </defs>
  <g
     clip-path="url(#3d2a418084)"
     id="g76"
     transform="translate(-1143.7423,-623.23326)">
    <g
       clip-path="url(#beb68dd688)"
       id="g75">
      <g
         clip-path="url(#95ffce6d6d)"
         id="g74">
        <path
           fill="#ffbd59"
           d="m 1321.1367,708.63281 c -2.4375,1.3711 -5.5351,0.26172 -7.1289,-1.8789 -0.6601,-0.87891 -1.1367,-1.88672 -1.7383,-2.80079 -1.9101,-3.01953 -4.0742,-5.91015 -6.7773,-8.26562 -6.2461,-5.38281 -14.5039,-8.31641 -22.7539,-8 -5.3047,0.21875 -10.3516,2.10156 -15.1641,4.22266 2.4961,10.08984 3.0938,20.78906 0.543,30.92578 -2.5508,10.13281 -9.1055,20.87109 -19.7695,23.67968 -5.4454,1.33204 -11.7852,-0.21484 -15.4727,-4.57421 -2.4648,-2.9336 -3.668,-6.6875 -4.1758,-10.4336 -1.2344,-9.72656 3.0078,-19.17578 8.1797,-27.17187 4.5078,-7.12891 10.5586,-13.22657 17.6524,-17.78516 -6.1524,-15.78906 -16.8594,-29.08984 -34.961,-29.89844 3.9375,10.36328 1.8594,26.53907 -4.1367,35.7461 -6.3086,10.22265 -18.668,13.45312 -29.0195,7.23047 -12.1368,-6.9961 -12.6368,-24.01172 -6.3164,-35.17579 4.8437,-8.09765 13.3007,-13.5039 22.0625,-16.57421 -4.4454,-5.08204 -10.1211,-9.82032 -16.4297,-12.26172 -4.5821,-1.45703 -9.6289,-2.33594 -14.2188,-0.45313 -4.3437,1.86328 -8.2539,4.75391 -11.6523,8.01172 -2.0899,2.30859 -3.9922,4.85156 -5.1953,7.73828 -0.3985,1.17188 -0.4141,2.41797 -0.7344,3.60547 -1.2188,4.85547 -7.8047,5.51563 -9.7305,0.80859 -1.75,-5.98828 1.8516,-11.96093 5.3047,-16.625 3.2266,-4.28125 7.5117,-7.63281 12.0078,-10.48828 2.1367,-1.33203 4.3321,-2.5664 6.7227,-3.39453 7.75,-2.86719 16.4336,-1.57031 23.8594,1.66406 8.8554,4.31641 16.5546,11.10547 22.0664,19.26172 24.9453,-1.27343 41.164,13.54297 50.0429,35.72657 5.8516,-2.47266 12,-4.51563 18.4063,-4.67188 11.5508,-0.40234 23.1719,4.05859 31.5117,12.05078 2.7148,2.58203 4.9844,5.58985 6.9922,8.7461 0.7969,1.30468 1.6953,2.57031 2.289,3.98046 1,2.50782 0.2227,5.74219 -2.2656,7.05469 z m -63.3398,10.57031 c 1.5586,-7.08593 1.3203,-14.49218 -0.1172,-21.57421 -9.1484,6.39062 -22.7813,25.48828 -16.8438,36.8125 0.9766,1.5664 3.086,1.78906 4.7618,1.52343 2.2539,-0.42578 4.0625,-1.95703 5.6054,-3.5664 3.4414,-3.65625 5.5117,-8.33985 6.5938,-13.19532 z m -49.6055,-36.3789 c 1.4141,-3.59766 1.9453,-6.67188 2.3242,-10.33594 0.5157,-5.57422 -0.012,-9.86328 -2.2539,-15.02734 -7.8242,2.00781 -16.8125,7.10547 -19.914,14.93359 -1.5547,4.69531 -2.211,10.30078 0.3828,14.74609 2.4101,3.69141 7.3593,5.62891 11.6133,4.375 3.914,-1.29296 6.2929,-5.08593 7.8476,-8.6914 z m 0,0"
           fill-opacity="1"
           fill-rule="nonzero"
           id="path73" />
      </g>
    </g>
  </g>
</svg>
