<?xml version="1.0" encoding="UTF-8" standalone="no"?>
<svg
   width="200.79581"
   zoomAndPan="magnify"
   viewBox="0 0 150.59686 197.70813"
   height="263.61084"
   preserveAspectRatio="xMidYMid"
   version="1.0"
   id="svg238"
   xmlns="http://www.w3.org/2000/svg"
   xmlns:svg="http://www.w3.org/2000/svg">
  <defs
     id="defs68">
    <clipPath
       id="fe3a0b9038">
      <path
         d="M 55,481 H 207 V 680 H 55 Z m 0,0"
         clip-rule="nonzero"
         id="path8" />
    </clipPath>
    <clipPath
       id="20fc2d7f4d">
      <path
         d="m 33.28125,483.95312 144.53125,-30.6875 44.08203,207.6211 -144.527342,30.6875 z m 0,0"
         clip-rule="nonzero"
         id="path9" />
    </clipPath>
    <clipPath
       id="ae1a49ea5b">
      <path
         d="m 33.28125,483.95312 144.53125,-30.6875 44.08203,207.6211 -144.527342,30.6875 z m 0,0"
         clip-rule="nonzero"
         id="path10" />
    </clipPath>
    <clipPath
       id="a9407c3c2f">
      <path
         d="m 33.28125,483.95312 144.53125,-30.6875 44.08203,207.6211 -144.527342,30.6875 z m 0,0"
         clip-rule="nonzero"
         id="path11" />
    </clipPath>
  </defs>
  <g
     clip-path="url(#fe3a0b9038)"
     id="g80"
     transform="translate(-55.51023,-481.70667)">
    <g
       clip-path="url(#20fc2d7f4d)"
       id="g79">
      <g
         clip-path="url(#ae1a49ea5b)"
         id="g78">
        <g
           clip-path="url(#a9407c3c2f)"
           id="g77">
          <path
             fill="#ff743e"
             d="m 171.86328,519.41016 c -18.91016,-5.07032 -38.39844,-8.19532 -57.46875,-12.76563 -14.539061,-3.88281 -29.003905,-8.23437 -44.011718,-9.9375 -6.101562,-1.16406 -15.945312,-0.72266 -14.777343,-9.60547 2.058593,-8.33984 10.628906,-4.71484 16.601562,-3.98437 14.929688,1.78515 29.457029,5.66015 43.867189,9.83984 18.0625,4.04688 36.17578,7.875 54.28906,11.70313 1.99219,0.46093 3.90234,1.01171 5.69922,1.71875 8.63672,2.78515 4.53516,15.78515 -4.19922,13.03125 z M 66.625,596.34766 c -5.730469,1.3789 -10.554688,-5.5586 -7.164062,-10.42969 2.75,-4.16406 8.558593,-3.19922 12.8125,-4.60156 9.148437,-1.89454 18.246093,-4.00782 27.332031,-6.16797 27.531251,-5.90235 54.847651,-13.51953 81.722651,-20.8125 v 0.004 c 6.80079,0.39844 8.11719,9.86719 1.97657,12.51172 -6.29297,2.90625 -13.375,4.3125 -19.94922,6.28906 -31.87891,9.09375 -64.281251,16.45313 -96.73047,23.20704 z m 46.60547,80.82421 c -2.5625,-2.66015 -2.375,-7.19921 0.34766,-9.67578 3.125,-3.0664 6.05078,-6.35547 9.46093,-9.10937 8.64453,-8.51172 17.6836,-16.59375 26.6875,-24.71875 9.1875,-8.60938 18.52735,-17.0625 27.89063,-25.49219 5.1289,-4.6875 10.05078,-9.60937 15.0664,-14.42187 2.12891,-1.85938 4.01953,-4.30079 6.72657,-5.31641 3.4375,-1.33984 7.375,1.89062 6.59765,5.5625 -0.36328,2.20312 -1.97265,3.88281 -3.30859,5.57031 -11.625,13.44922 -25.12891,25.0586 -37.98438,37.28906 -9.97656,9.73047 -20.63672,18.74219 -30.28515,28.79688 -1.84375,2.125 -4.94922,5.01953 -6.64844,6.75781 -3.91406,4.375 -8.69531,10.29297 -14.55078,4.75781 z m 0,0"
             fill-opacity="1"
             fill-rule="nonzero"
             id="path76" />
        </g>
      </g>
    </g>
  </g>
</svg>
