<?xml version="1.0" encoding="UTF-8" standalone="no"?>
<svg
   width="1405.3334"
   zoomAndPan="magnify"
   viewBox="0 0 1054 388.84373"
   height="518.45831"
   preserveAspectRatio="xMidYMid"
   version="1.0"
   id="svg238"
   xmlns="http://www.w3.org/2000/svg"
   xmlns:svg="http://www.w3.org/2000/svg">
  <defs
     id="defs68">
    <clipPath
       id="ca0ba67732">
      <path
         d="M 205.09375,208.72266 H 1259.9883 v 388.5664 H 205.09375 Z m 0,0"
         clip-rule="nonzero"
         id="path19" />
    </clipPath>
    <clipPath
       id="60d1873dfc">
      <path
         d="m 243.34375,208.72266 h 977.50395 c 21.125,0 38.25,17.125 38.25,38.25 v 312.0664 c 0,21.125 -17.125,38.25 -38.25,38.25 H 243.34375 c -21.125,0 -38.25,-17.125 -38.25,-38.25 v -312.0664 c 0,-21.125 17.125,-38.25 38.25,-38.25 z m 0,0"
         clip-rule="nonzero"
         id="path20" />
    </clipPath>
    <clipPath
       id="e9796d397e">
      <path
         d="M 0.09375,0.722656 H 1054 V 389.28906 H 0.09375 Z m 0,0"
         clip-rule="nonzero"
         id="path21" />
    </clipPath>
    <clipPath
       id="b31df63509">
      <path
         d="m 38.34375,0.722656 h 977.50395 c 21.125,0 38.25,17.125 38.25,38.25 V 351.03906 c 0,21.125 -17.125,38.25 -38.25,38.25 H 38.34375 c -21.125,0 -38.25,-17.125 -38.25,-38.25 V 38.972656 c 0,-21.125 17.125,-38.25 38.25,-38.25 z m 0,0"
         clip-rule="nonzero"
         id="path22" />
    </clipPath>
    <clipPath
       id="bf2e13bf31">
      <rect
         x="0"
         width="1055"
         y="0"
         height="390"
         id="rect22" />
    </clipPath>
    <clipPath
       id="7007afe41c">
      <path
         d="m 205.09375,208.44531 h 213 v 213 h -213 z m 0,0"
         clip-rule="nonzero"
         id="path23" />
    </clipPath>
    <clipPath
       id="fb0dfc246d">
      <path
         d="m 1023,359 h 236.0938 V 594.88672 H 1023 Z m 0,0"
         clip-rule="nonzero"
         id="path24" />
    </clipPath>
  </defs>
  <g
     clip-path="url(#ca0ba67732)"
     id="g95"
     transform="translate(-205.09377,-208.44531)">
    <g
       clip-path="url(#60d1873dfc)"
       id="g94">
      <g
         transform="translate(205,208)"
         id="g93">
        <g
           clip-path="url(#bf2e13bf31)"
           id="g92">
          <g
             clip-path="url(#e9796d397e)"
             id="g91">
            <g
               clip-path="url(#b31df63509)"
               id="g90">
              <path
                 fill="#ffbd59"
                 d="M 0.09375,0.722656 H 1053.4727 V 389.28906 H 0.09375 Z m 0,0"
                 fill-opacity="1"
                 fill-rule="nonzero"
                 id="path89" />
            </g>
          </g>
        </g>
      </g>
    </g>
  </g>
  <g
     clip-path="url(#7007afe41c)"
     id="g96"
     transform="translate(-205.09377,-208.44531)">
    <path
       fill="#ff743e"
       d="m 280.42578,208.44531 -75.33203,75.33594 V 421.52734 L 418.17578,208.44531 Z m 0,0"
       fill-opacity="1"
       fill-rule="nonzero"
       id="path95" />
  </g>
  <g
     clip-path="url(#fb0dfc246d)"
     id="g97"
     transform="translate(-205.09377,-208.44531)">
    <path
       fill="#ff743e"
       d="m 1175.6992,594.88672 83.3946,-83.39453 V 359.01172 l -235.8751,235.875 z m 0,0"
       fill-opacity="1"
       fill-rule="nonzero"
       id="path96" />
  </g>
</svg>
