<?xml version="1.0" encoding="UTF-8" standalone="no"?>
<svg
   width="141.14062"
   zoomAndPan="magnify"
   viewBox="0 0 105.85547 92.218734"
   height="122.95831"
   preserveAspectRatio="xMidYMid"
   version="1.0"
   id="svg712"
   xmlns="http://www.w3.org/2000/svg"
   xmlns:svg="http://www.w3.org/2000/svg">
  <defs
     id="defs60">
    <clipPath
       id="3321763a5e">
      <path
         d="m 1289,703 h 107 v 93 h -107 z m 0,0"
         clip-rule="nonzero"
         id="path1" />
    </clipPath>
    <clipPath
       id="c8a04a8426">
      <path
         d="m 1266.0547,750.94922 36.6797,-57.55469 106.2539,67.71875 -36.6797,57.55469 z m 0,0"
         clip-rule="nonzero"
         id="path2" />
    </clipPath>
    <clipPath
       id="6d062a8bea">
      <path
         d="m 1266.0547,750.94922 36.6797,-57.55469 106.2539,67.71875 -36.6797,57.55469 z m 0,0"
         clip-rule="nonzero"
         id="path3" />
    </clipPath>
  </defs>
  <g
     clip-path="url(#3321763a5e)"
     id="g64"
     transform="translate(-1289.6678,-703.04584)">
    <g
       clip-path="url(#c8a04a8426)"
       id="g63">
      <g
         clip-path="url(#6d062a8bea)"
         id="g62">
        <path
           fill="#ff743e"
           d="m 1392.7734,784.35547 c -1.8007,0.43359 -3.5742,-0.83985 -4.2031,-2.4961 -0.2578,-0.67968 -0.3789,-1.40625 -0.5976,-2.10156 -0.668,-2.27344 -1.5196,-4.50781 -2.8164,-6.5 -3,-4.57031 -7.7305,-7.94531 -13.0508,-9.24609 -3.4219,-0.82422 -6.9805,-0.54297 -10.4375,-0.0664 -0.2461,6.88672 -1.8086,13.82031 -5.2813,19.81641 -3.4726,5.99609 -9.6054,11.64844 -16.914,11.5 -3.7149,-0.14063 -7.4766,-2.28125 -9.0313,-5.73438 -1.0391,-2.3164 -1.1211,-4.92968 -0.7656,-7.41015 0.9844,-6.42578 5.4101,-11.67969 10.1601,-15.83594 4.1758,-3.72266 9.1407,-6.51172 14.4961,-8.125 -1.0507,-11.1875 -5.457,-21.61719 -16.8515,-25.42578 0.625,7.32422 -3.6446,17.25781 -9.1446,22.03515 -5.8789,5.3711 -14.3476,5.1836 -19.8164,-0.66796 -6.4648,-6.67188 -3.6836,-17.60938 2.375,-23.57813 4.5625,-4.28125 10.9375,-6.1875 17.086,-6.55078 -1.9102,-4.05078 -4.668,-8.10547 -8.2461,-10.80859 -2.6563,-1.76172 -5.711,-3.24219 -8.9805,-2.875 -3.1094,0.39453 -6.1289,1.52734 -8.8906,2.98437 -1.75,1.08984 -3.4258,2.36719 -4.7188,3.98828 -0.4687,0.67578 -0.7031,1.46875 -1.125,2.16797 -1.6601,2.87109 -5.9804,2.09375 -6.3515,-1.25781 -0.027,-4.13672 3.3593,-7.28906 6.4101,-9.63281 2.836,-2.14454 6.1758,-3.5 9.5625,-4.50391 1.6055,-0.46094 3.2305,-0.84766 4.9063,-0.9375 5.4609,-0.42188 10.7617,1.98828 14.9062,5.40234 4.8594,4.36328 8.5352,10.09375 10.5625,16.29688 16.1367,3.72656 23.7813,16.125 25.4063,31.88672 4.1797,-0.51172 8.4726,-0.69532 12.582,0.37109 7.4414,1.84375 14.0352,6.80469 17.8984,13.41797 1.2618,2.14062 2.1602,4.47266 2.8672,6.84766 0.2696,0.97656 0.6133,1.94531 0.7344,2.95312 0.1797,1.78125 -0.9023,3.70313 -2.7305,4.08594 z m -42.3046,-4.78906 c 2.2851,-4.23438 3.4765,-9 3.8515,-13.77735 -6.9961,2.41016 -19.164,12.10547 -17.4414,20.40625 0.3399,1.17578 1.6445,1.70313 2.7617,1.83985 1.5117,0.13671 2.9453,-0.50782 4.2227,-1.25391 2.8594,-1.70703 5.0312,-4.31641 6.6055,-7.21484 z m -25.0079,-32.21875 c 1.5586,-2.03907 2.4571,-3.90235 3.3633,-6.16797 1.3438,-3.46094 1.7891,-6.28907 1.3008,-9.99219 -5.3555,-0.14453 -12.0117,1.47266 -15.4141,5.89844 -1.8476,2.71093 -3.2851,6.16406 -2.4414,9.46875 0.8633,2.79297 3.668,4.92968 6.6094,4.90234 2.7305,-0.10937 4.9375,-2.09766 6.582,-4.10937 z m 0,0"
           fill-opacity="1"
           fill-rule="nonzero"
           id="path62" />
      </g>
    </g>
  </g>
</svg>
