<?xml version="1.0" encoding="UTF-8" standalone="no"?>
<svg
   width="216.76709"
   zoomAndPan="magnify"
   viewBox="0 0 162.57532 114.74747"
   height="152.99663"
   preserveAspectRatio="xMidYMid"
   version="1.0"
   id="svg238"
   xmlns="http://www.w3.org/2000/svg"
   xmlns:svg="http://www.w3.org/2000/svg">
  <defs
     id="defs68">
    <clipPath
       id="e9b59da0c2">
      <path
         d="m 1184,15 h 163 v 116 h -163 z m 0,0"
         clip-rule="nonzero"
         id="path12" />
    </clipPath>
    <clipPath
       id="1dadf49593">
      <path
         d="m 1353.8047,32.117188 -24.418,115.187502 -165.082,-34.99219 24.418,-115.191406 z m 0,0"
         clip-rule="nonzero"
         id="path13" />
    </clipPath>
    <clipPath
       id="4c91ff5027">
      <path
         d="m 1353.8047,32.117188 -24.418,115.187502 -165.082,-34.99219 24.418,-115.191406 z m 0,0"
         clip-rule="nonzero"
         id="path14" />
    </clipPath>
  </defs>
  <g
     clip-path="url(#e9b59da0c2)"
     id="g83"
     transform="translate(-1184.0477,-15.794034)">
    <g
       clip-path="url(#1dadf49593)"
       id="g82">
      <g
         clip-path="url(#4c91ff5027)"
         id="g81">
        <path
           fill="#0cd380"
           d="m 1283.3047,121.37891 c 9.7891,-12.10547 18.3516,-25.261722 27.8281,-37.644535 7.5156,-9.3125 15.3477,-18.421875 21.4297,-28.777344 2.8125,-4.058593 5.6719,-11.355469 11.7461,-7.636719 5.3945,4.1875 0,9.246094 -2.4648,13.351563 -6.1172,10.273437 -13.6211,19.582031 -21.3086,28.703125 -8.7735,11.82031 -17.4024,23.74609 -26.0274,35.67578 -0.9805,1.30078 -1.9961,2.51172 -3.0898,3.58984 -4.8125,5.375 -12.9336,-1.80078 -8.1133,-7.26171 z M 1261.3906,20.0625 c 0.8477,-4.613281 7.4453,-5.878906 9.8867,-1.84375 2.1368,3.34375 -0.4375,7.253906 -0.7929,10.800781 -1.5742,7.257813 -2.9805,14.554688 -4.3438,21.851563 -4.5976,21.914062 -7.8828,44.226562 -11.2617,66.113286 v -0.004 c -2.4844,4.81641 -9.7891,2.71484 -9.7266,-2.60156 -0.078,-5.51172 1.1875,-11.10938 1.875,-16.527348 3.6836,-26.105468 8.7969,-52.027343 14.3672,-77.789062 z m -73.7617,7.777344 c 2.7578,-1.003906 5.9961,0.597656 6.918,3.375 1.2148,3.261718 2.6601,6.449218 3.5625,9.816406 3.3906,9.03125 6.3437,18.210938 9.3398,27.375 3.2891,9.457031 6.4141,18.972656 9.5156,28.5 1.75,5.24219 3.7344,10.40625 5.6133,15.60547 0.6641,2.14844 1.8282,4.30859 1.6914,6.60547 -0.1367,2.92969 -3.7578,4.75 -6.1718,3 -1.4844,-0.97656 -2.1836,-2.69141 -2.9766,-4.20703 -6.0195,-12.78907 -10.0938,-26.351566 -14.8281,-39.640629 -3.8477,-10.390625 -6.9532,-21.046875 -11.1446,-31.308593 -0.9492,-2.023438 -2.0468,-5.214844 -2.7578,-7.011719 -1.9179,-4.257813 -4.6718,-9.640625 1.2383,-12.109375 z m 0,0"
           fill-opacity="1"
           fill-rule="nonzero"
           id="path80" />
      </g>
    </g>
  </g>
</svg>
