<?xml version="1.0" encoding="UTF-8" standalone="no"?>
<svg
   width="168.93874"
   zoomAndPan="magnify"
   viewBox="0 0 126.70405 153.76192"
   height="205.0159"
   preserveAspectRatio="xMidYMid"
   version="1.0"
   id="svg238"
   xmlns="http://www.w3.org/2000/svg"
   xmlns:svg="http://www.w3.org/2000/svg">
  <defs
     id="defs68">
    <clipPath
       id="5bf73825ce">
      <path
         d="M 142,16 H 269 V 171 H 142 Z m 0,0"
         clip-rule="nonzero"
         id="path1" />
    </clipPath>
    <clipPath
       id="dc213f61d8">
      <path
         d="M 93.851562,67.570312 172.05469,-0.230469 296.84375,143.70312 218.64453,211.50391 Z m 0,0"
         clip-rule="nonzero"
         id="path2" />
    </clipPath>
    <clipPath
       id="82e84a7ca8">
      <path
         d="M 93.851562,67.570312 172.05469,-0.230469 296.84375,143.70312 218.64453,211.50391 Z m 0,0"
         clip-rule="nonzero"
         id="path3" />
    </clipPath>
    <clipPath
       id="841bb0df03">
      <path
         d="M 93.851562,67.570312 172.05469,-0.230469 296.84375,143.70312 218.64453,211.50391 Z m 0,0"
         clip-rule="nonzero"
         id="path4" />
    </clipPath>
  </defs>
  <g
     clip-path="url(#5bf73825ce)"
     id="g73"
     transform="translate(-142.15144,-16.566406)">
    <g
       clip-path="url(#dc213f61d8)"
       id="g72">
      <g
         clip-path="url(#82e84a7ca8)"
         id="g71">
        <g
           clip-path="url(#841bb0df03)"
           id="g70">
          <path
             fill="#1ca379"
             d="m 262.91797,170.3125 c -2.79688,-0.14453 -4.81641,-2.75 -5.00781,-5.41797 -0.082,-1.09375 0.0586,-2.20312 0.043,-3.30078 0.0195,-3.57813 -0.25,-7.18359 -1.26171,-10.62891 -2.3711,-7.90625 -7.76172,-14.82422 -14.89844,-18.98828 -4.60156,-2.66406 -9.875,-3.78125 -15.08985,-4.57031 -3.33593,9.86719 -8.60546,19.24219 -16.22656,26.44141 -7.625,7.19921 -18.95312,12.76171 -29.47656,9.41015 -5.31641,-1.80078 -9.83984,-6.51172 -10.60156,-12.18359 -0.4961,-3.80078 0.51172,-7.6211 2.10547,-11.0625 4.20703,-8.89063 12.88671,-14.60547 21.57031,-18.58594 7.65625,-3.60937 16.05469,-5.51953 24.50781,-5.5625 3.32422,-16.652342 1.45703,-33.656249 -13.39453,-44.062499 -2.26563,10.878907 -12.75391,23.445313 -22.78125,28.007813 -10.84375,5.261716 -23.02734,1.355466 -28.41406,-9.472656 -6.47266,-12.433594 2.28906,-27.089844 13.64843,-33.136719 8.46094,-4.246094 18.51954,-4.277344 27.57813,-2.167969 -1.01172,-6.6875 -3.25,-13.742188 -7.26172,-19.195312 -3.08203,-3.691407 -6.86719,-7.148438 -11.76172,-8.019532 -4.67578,-0.757812 -9.53906,-0.410156 -14.16797,0.515625 -3.00781,0.828125 -5.98828,1.957031 -8.5625,3.757813 -0.96875,0.773437 -1.65234,1.820312 -2.5664,2.652344 -3.64844,3.453124 -9.56641,0.472656 -8.65235,-4.542969 1.75,-6.003907 8.01953,-9.121094 13.44922,-11.210938 5.03516,-1.886719 10.46485,-2.421875 15.80469,-2.421875 2.51953,0.02344 5.04297,0.160156 7.50781,0.742188 8.09375,1.734375 14.72656,7.496094 19.25391,14.222656 5.14844,8.40625 7.98828,18.28125 8.24219,28.140625 21.75781,12.324219 27.45703,33.5625 22.98437,57.093755 6.27734,1.05468 12.57422,2.625 18.06641,5.9375 9.97656,5.85937 17.3789,15.8789 20.11328,27.11718 0.89844,3.64063 1.1914,7.40235 1.1875,11.14844 -0.0312,1.53516 0.043,3.08203 -0.21485,4.59766 -0.51171,2.65625 -2.91015,4.97656 -5.72265,4.74609 z m -59.19922,-25.07813 c 5.14062,-5.15625 8.93359,-11.55078 11.54297,-18.31249 -11.17188,0.49218 -32.99219,9.32421 -34.08985,22.08593 -0.0195,1.85156 1.64063,3.17188 3.19922,3.84766 2.13282,0.85156 4.48828,0.52734 6.66016,-0.004 4.87891,-1.24609 9.15234,-4.09375 12.6875,-7.61719 z M 181.45312,87.824219 c 3.13672,-2.285157 5.24219,-4.597657 7.54297,-7.492188 3.44141,-4.4375 5.3125,-8.347656 6.20313,-13.917969 -7.69141,-2.507812 -18.03125,-3.023437 -24.87891,1.929688 -3.84765,3.136719 -7.42187,7.523438 -7.6289,12.675781 0.0391,4.417969 3.17578,8.714844 7.44531,9.9375 4.0039,1.011719 8.05859,-0.917969 11.3164,-3.132812 z m 0,0"
             fill-opacity="1"
             fill-rule="nonzero"
             id="path70" />
        </g>
      </g>
    </g>
  </g>
</svg>
